<svg xmlns="http://www.w3.org/2000/svg" viewBox="0 0 709.87 583.71"><defs><style>.cls-1,.cls-2,.cls-3,.cls-4,.cls-5,.cls-6,.cls-7,.cls-8,.cls-9{fill-rule:evenodd;}.cls-2{fill:#33358d;}.cls-3{fill:#d14f2e;}.cls-4{fill:#f1f0f0;}.cls-5{fill:#b0d5ea;}.cls-6{fill:#f3d239;}.cls-7{fill:#42a3df;}.cls-8{fill:#fff;}.cls-9{fill:#e1a03b;}</style></defs><title>Fichier 4</title><g id="Calque_2" data-name="Calque 2"><g id="Calque_1-2" data-name="Calque 1"><path class="cls-1" d="M708.46,4.39l.94,7.22.47,7.06v6.91l-.63,6.74-.94,6.75-1.41,6.44-1.57,6.58-2,6.28-2.36,6.28-2.66,6.12-5.81,12.08-6.28,11.61-6.59,11.3,2.67-2.36,3.14-2.51,7.37-5.17,3.77-2.2L699.82,92l1.41-.47,1.42-.16h1.1l.78.31.47.48.47.78.16,1.41L705.32,96l-.79,1.88-.94,2-1.1,1.89-.94,1.88-.63,1.73-3.45,6.27-3.61,6-3.76,6-3.93,6-8.47,11.3-9.26,11-9.72,10.67-10.21,10.36L638,183l-11,9.89-22.43,19L581.83,230.5,559.55,249l-11,9.42-10.51,9.41L492.7,301.74l-45.35,33.42-45.5,33.11-45.51,33-7.53,5L341.12,411l-3.92,2.36-3.92,2.19-7.69,4.71.79,2,1.1,2.2,2.35,4.54.78,2.21.63,1.87v1.73l-.47,1.1-.47.47-.63.16-1.41-.16-1.73-.63-1.88-.94L321,432.45l-1.57-1.1-1.09-.63-.32-.16-.47.32-.79.31-.94.79-1.09.93-4.56,4.56,1.42,4.55,1.09,4.08.79,3.45.31,3.14v2.67l-.47,2-.79,1.73-1.09,1.26-.79.31-.78.16-1.72-.31-1.89-1-1.88-1.41-3.61-3.3-1.57-1.41-1.41-.94h-.32l-.47.32-1.57,1.25-2,1.72-2.19,2.05-2.35,2.19-2.36,1.88-1.88,1.73-.94.47-.63.47v3l-.31,3-.48,2.82-.63,2.67-.78,2.35-.94,2-1.09,1.41-1.26.78-.47.16-.32-.16-.47-.31h-.47l-.16.31-.47.64-3.13,4.54-3.46,3.93-3.29,3.3-3.3,2.81-3.14,2.21L256.08,502l-2.36,1.09-1.73.79-2.65,5.65-1,3.14-.32,3.6,4.4.79,4.7.63,5,.31,5.18.16,10.66-.31,10.36-.63,4.86-.47,4.72-.48,4.23-.47,3.77-.47,3.14-.31,2.66-.31,1.88-.31h1.11l1.56.15,1.89.31,2.19.47,2.2.79,4.71,2,4.55,2.67,4.23,3.13,1.73,1.73,1.41,1.88,1.1,1.73.63,2,.31,1.88-.31,2,3.92,3.92L349,543.7l1.73,2.67,1.72,2.82,1.57,3.29,1.41,3.45L352,557.66l-3.76,1.26-4.08.78-3.93.31-3.61.16h-3.13l-2.51-.16-.79-.15h-.63l-3.29,1.72-3.3,1.42-3.14,1.1-3.13.78-3.3.47-3,.16h-3.14l-3.13-.16L298,564.1l-6-1.89-6.12-2.51-6.12-3.14-6-3.45-6.27-3.61-6.13-3.77L255,541.81l-6.43-3.61-6.6-3.45-6.74-3.14-7.06-2.51-6.44-1.88-3.44-1.1-3.61-.94-3.93-.94-4.39-.94-4.71-.94-5.18-1.11v-1.87l.32-1.73.62-1.57,1.1-1.57,1.26-1.25,1.41-1.26,3.61-2.2,3.77-1.72L212.3,507l3.3-.62,1.41-.16h1.1l2,.32,2,.46,4.08,1.58,3.76,1.72,1.42.79,1.25.63,1.41-3.46.79-3.91.31-4.09-.47-3.92-2.83,1.56-3.29,1.58-3.46,1.41-3.6,1.1-3.61.63-3.45.15-3.3-.31-3-1.1-4.23,3-4.4,3-2.2,1.26-2.19.78-1.89.47-1.72-.32-.63-.78-.47-1.41-.31-1.88-.16-2,.16-4.23.16-1.89.31-1.26-1.42,2.67-1.88,2.83-2.19,2.35-1.11.62-.94.48-.62-.32-.63-.62-.94-1.1-.94-1.41-1.1-1.73-1.26-2-2.51-4.39-5.33-10-2.36-4.71-1.1-2.2-.93-1.88-.79,1.57-.79,1.1-.78.62-.94.32-.94-.16-.94-.63-1.1-.78-1.26-1.1-5,4.7-5,4.72-9.88,9.56-4.56,5L129,504.78l-3.77,5.34-3.29,5.8,1.57-.31,1.42-.63,2.81-1.57,2.67-1.88,2.83-2,3-1.73,3.13-1.25,1.89-.32h1.89l2.19.32,2.2.62,1.41.32,1.88.78,2.2.95,2.2,1.25,2.19,1.41,2,1.57,1.73,1.88,1.25,2-2.82,1.57-2.36,1.42-4.54,1.88-.32.16-.62.15-.79.32-1.1.47-2.67.94-1.57.62-1.88.63-3.92,1.57L135.26,529l-4.87,2.35-5.33,2.51-5.65,3-5.65,3.14L108,543.7l-5.81,3.92L96.34,552l-5.49,4.71-5.18,5-4.86,5.5-1.41,1.4-1.73,1.41-2,1.42L73.43,573l-5.33,2.82L62,578.53l-6.59,2.35-6.91,1.73-6.75.94-3.29.16H35.3l-.46-1.89-.16-1.88.16-3.29.78-2.83.94-2.19-4.71,1.88L27,575.23l-5,1.42-4.87.93-4.71.64L8,578.06l-4.23-.63-1.89-.78L0,575.86l.79-3L2,569.59l1.73-3.3L6,563l2-3.14L10.2,557l1.88-2.35L13.65,553l-3.13-.48-3.61-.15.94-3,1.72-3.3,2-3.14,2.51-3.14L16.79,537l2.67-2.67,2.67-2,2.35-1.57,4.86-2.35,4.86-1.73,4.72-1.25,4.54-.63,4.71-.31h4.55l9.1.46,9.1.48,4.55.15,4.55-.15,4.71-.63,4.71-.94,4.7-1.41,4.87-2.2,3.92-4.71,3.46-5,3-5.18,2.67-5.49,4.4-11,3.92-11-2,1.73-2.19,1.88L113.45,483l-2.67.95-.63,1.88-.94,2.35-2.19,5-1.42,2.35-1.41,1.89-1.41,1.25-1.42.63-.94-.15-.94-.48-.94-1.09L97.6,496l-1.1-2-1.09-2.36-1.11-3-1.1-3.3-.94,2.21-.94,1.72-1.09.79-1.26.15-.79-.31-.78-.48L86,487.83l-1.42-2.51-1.25-3.13-1.26-3.61L81,474.34l-1.1-4.7-1-4.87-1.56-10-1-10.2-.31-4.71V431.5l.31-3.45-1.25,1.26-1.26,1.57-2.51,3.61-2.51,4.23L66.37,443,64,446.72l-1.26,1.57-1.09,1.41-1.1,1.1-1.1.64-.94.31-.94-.16-.47-.31-.31-.64-.16-.78-.16-1.09-.16-2.67v-6.59l.16-3.61v-6l-3,4.56-3.29,4.39-1.73,1.72-1.57,1.26-1.56.63-.63-.16-.63-.16-.63-.63-.78-.94-.63-1.25-.47-1.73-.47-1.88-.47-2.35-.32-2.51-.15-2.83-1.1,1.73-1.57,2-3.61,4.08L32,437.47l-1.88,1.25L28.4,439l-.78-.16-.79-.3L25.73,437l-.63-2.2L25,432.13l.15-3,.79-6.43.47-3,.47-2.83,2.83-10.19,3.6-10.05,4.4-9.73L40,382.23l2.66-4.7L45.51,373l3.13-4.4,3.3-4.24,3.61-4.07,3.77-3.92,3.92-3.61,4.39-3.46L72.18,346,81,339.87l9.1-6.12,9.41-6,4.71-2.67,5-2.35,4.86-2,5-1.57,5.18-.94,5.34-.63,5.34.16,5.49.78,5.64,1.57,5.66,2.35,4.54-2.51,5-2.19,5.5-2.2,5.33-1.89,5.18-1.72,2.2-.63,2.19-.63,1.89-.47,1.57-.47,1.25-.16.94-.15h1.57l1.26.31,1.25.63,1.1.78L194.1,313l1.1,1.88,1.1,3.3,1.41,3,2.19-.79,2-.94h.15l1.1-2.2.63-1.72.47-3.61-.47-.79-.63-.78-1.41-2-1.41-2.83-.48-1.72-.46-1.89L195,298l-2-2.19-1.88-2.36-1.73-2.51L188,288.09l-.94-3-.63-3.14h-.16l-3.61-.47-4.23-.47-4.86-.16-5.5-.16h-6l-6.28.16-6.43.31-6.75.48L129,283.38l-6.9,1.1-6.59,1.41-6.28,1.73-6,1.88-5.64,2-5,2.51,1.25-3.29,1.58-3.14,1.72-2.83L99,282.28l2-2.51,2.35-2.2,4.71-3.76,4.71-3.14,4.55-2.51,4.08-1.88,1.73-.78,1.41-.64,2.82-1.09,3-.94,6.59-1.42,7.22-.78,7.54-.47,15.68-.16h15.69l2-1.25,2.51-1.26,2.19-.94.79-.31.63-.16V245.72l-.63-10-1.1-10L188,216.07l-2.36-9.42-2.82-9.25-3.45-8.79L175.27,180l-7.06,1.89-7.37,2-14.76,3.92-15.37,3.77L123,193.31l-7.85,1.42-7.84,1.1-7.85.94-7.85.47H83.79l-8-.32L67.94,196l-7.84-1.57-7.85-2-.47-4.86-.31-4.87.16-4.86.15-4.55.47-4.55.78-4.55.95-4.39,1.1-4.24,3-8.32,3.45-7.84L65.75,132l4.7-7.06,5.18-6.59,5.5-6.12,5.8-5.65,6.12-5.18,6.12-4.7,6.28-4.24,6.11-3.77,6.12-3.13,5.5-2.2,5.49-1.41,5.49-1.1,5.49-.32h5.49l5.49.48,5.34.78L161.46,83l5.18,1.41L172,86.14l10.2,3.93,9.72,4.39,9.1,4.39L203.35,96l3-2.83,3.45-2.35,3.6-2L217,87.56l1.88-.16h1.89l1.71.16,1.73.63,1.73.94,1.57,1.25h-.79l-1.09.31-1.26.32-1.41.62,1.57.48,1.88.63,2,1.09,2,1.42L232.23,97l1.41,2.2.94,2.35.16,1.41v1.42l-1.41-1.1-1.42-.79-1.41-.31-.94-.31.63.94.47,1.25.79,3.14.3,3.45v3.3l2.67-.32,2.83-.15h2.83l2.51.15.94,1.26.78,1.41.16,1.41v1.1l1.25.31h1.11l2.19-.78,2.19-1.1,2.2-1.1,5.18-5.8,5.49-5.81,5.81-5.8,6-5.34L279,90.85l3.29-2.2,3.3-2,3.3-1.72,3.44-1.41,3.61-1.1,3.61-.79,3.77-.31-.79.94-.94,1.42-.78,1.72-.63,1.72,1.26-.15h1.41l3.61.15,3.92.63,4.08.94,3.61,1.73,1.57,1.1,1.26,1.26L322,94.3l.63,1.73.47,1.88-.16,2.2-.78-.47-1.25-.47-1.42-.47-1.41-.16.78,2.35.32,2.51.15,2.36-.15,2.51-.63,2.2-.79,2.19-.94,1.88-1.41,1.57v5.18l-.31,5.18-.94,5.18-1.42,4.86L311,141.22l-2.19,4.55-2.67,4.39L303,154.4l-.32,2.67-.47,3.45-.78,3.77-.94,4.55,1.56,5.64,1.26,5.49,1.1,5,.62,4.7.48,4.4.16,3.92-.16,3.77-.48,3.29,1.42,3.77,1.57,3.77,1.1,1.56,1.41,1.1,1.88.79,2.36.15h5.48l5.5.16,2.51.47,2.19.94,1.73,1.41.79,1.1.47,1.1,2.82,1.26,2.83,1.09,2.67,1.26,1.4.94,1.11,1.1.3,1.1-.15.94-.31.94-.63.79-.78.63-.94.46-.95.32h-1.1l-5.8.31-5.81-.31-5.8-.78L316.65,230l-5.5-1.88-5.48-2-10.21-4.39-7.52,10.35L279.77,242l-4.24,4.86L271,251.37l-4.72,4.4-5,4.23L260,263.3l-.94,3.45-.62,3.61-.48,3.76-.31,7.69-.32,7.85-.47,7.69-.63,3.6-.78,3.61L254.2,308l-1.57,3.3-2,3.14-2.52,2.82-1.09.16-1.1-.16-1.72-.62-.95-.48-.78-.46-1.89-.79-.94,2.19-.62,2.52-.47,2.66v5.5l.47,2.51.62,2.51.94,2,1.73-.63,1.73-.16,1.72.32,1.73.78,1.57,1.26,1.57,1.41,1.56,1.73,1.42,2,2.51,4.56,2.2,4.7,1.72,4.86,1.25,4.4,7.54,3.61,7.69,4.08,7.37,4.7,7.22,5.18,6.75,5.66,6.43,6.27,6,6.75,5.18,7.21,4.86-2.19,2.05-.79.78-.16.47-.15h.16l11.14-10,10.67-10.05,10-9.88,9.73-10,9.26-9.88,9.1-10.05,8.78-10.2,8.63-10.36,8.48-10.5,8.31-11,8.47-11.14,8.48-11.61,8.63-12.08,8.79-12.4,9.1-13,9.41-13.64,10.83-15.86,10.2-15.68,9.89-15.23,9.41-14.9,8.79-14.13,4.23-6.9,4.08-6.59,3.92-6.59,3.77-6.28,3.61-6.11,3.46-5.81,3.13-5.49,3.14-5.34,3-5.18,2.67-4.71,2.5-4.54L559.7,81,561.9,77l2-3.61,1.72-3.13,1.58-2.83,1.4-2.51,1.11-2,.94-1.72.62-1.26.47-.79.32-.46,1.72-3.3,1.11-1.57,1.25-1.41,1.1-1.1,1.25-.62h1.1l.94.78,1.41,2,.94,2.35.63,2.83.16,2.82-.32,5.8-.47,2.83-.46,2.51-2.36,9.26L577.28,91,574.13,100l-3.44,8.79-3.77,8.79L563,126l-4.24,8.63L554.21,143l-9.42,16.63-9.88,16.32-10.2,16.32-10.2,16.16,2.2-2.36,2.35-2.66,2.51-2.83,2.67-3.13,5.65-6.91,5.8-7.22,5.81-7.53,5.8-7.22,5.34-6.59,2.35-3,2.35-2.82,8.32-10.51,8-11,7.85-11.45,7.83-11.46,7.85-11.61,7.85-11.61,8-11.46,8.16-11.14,8.47-10.82,9-10.2,9.26-9.73,4.7-4.55,5-4.4,5-4.07,5.18-4.08,5.5-3.61L678.8,11l5.64-3.13,6-2.83,6.12-2.66L702.8.16,704.06,0h1.1l.94.32.79.62.94,1.57.63,1.88Z"/><path class="cls-2" d="M703.12,46.92l-2.2,6.27-2,6-2.19,5.5-2,5.33-4.55,9.89-5.18,9.57-2.83,4.71L678.8,99l-3.46,5-3.76,5.18-4.23,5.34-4.71,5.8-5.19,6.12-5.64,6.43v-4.39l-.47-4.23-.94-4.09-1.26-3.92-1.88-3.61-2.36-3.45-3.13-3-3.61-2.51-2.2-1.26-2.2-.94-4.54-1.41-5-.78h-4.86l-5,.47-4.87.94-4.86,1.41-4.4,1.57,4.4-7.38,4.55-7.21,4.4-6.75,4.54-6.28,4.4-6.12,4.39-5.8,4.39-5.34,4.24-5.18,4.23-4.86L644,44.41,648.2,40l3.92-3.92,4.08-3.61L660,29l3.76-3.14,3.77-3L671,20.25l3.45-2.52,3.14-2.19,3.14-2,3-1.72,2.67-1.57L689,8.79l2.35-1.26,2.19-.94,2.05-.94L697.31,5l1.57-.62,1.42-.32,1.09-.31h1.41l.64.47.62.94.47,1.41L705,8.47l.47,2.2.32,2.67.31,2.82.16,3.14.15,6.75L706,33.26l-1.11,7.07-.78,3.3-.94,3.29Z"/><path class="cls-2" d="M703,46.92l-2.19,6.27-2,6-2.19,5.5-2,5.33-4.55,9.89-5.18,9.57v-.15L681.93,94l-3.29,4.86-3.45,5-3.77,5.18-4.23,5.33-4.71,5.8-5.18,6.12-5.65,6.44.32.15v-4.39l-.47-4.23-.94-4.09-1.26-3.92-1.89-3.61v-.15l-2.35-3.45-3.14-3-3.6-2.51h-.16l-2.2-1.25-2.2-1L629.22,100l-5-.78h-4.86l-5,.47-4.87.94L604.58,102l-4.4,1.57.16.32,4.39-7.38,4.56-7.21,4.39-6.75,4.55-6.28,4.4-6.12,4.38-5.8,4.4-5.34,4.24-5.18L639.88,49l8.48-8.79,3.92-3.92,4.08-3.61,3.76-3.45,3.77-3.14,3.77-3,3.45-2.67,3.45-2.51,3.14-2.2,3.14-2,3-1.72,2.67-1.57h-.16L689,8.94l2.35-1.25,2.19-.94,2.05-.94,1.73-.63,1.56-.63,1.42-.31,1.09-.32h1.26l.63.48.62.94V5.18l.47,1.41.47,1.88.48,2.2.31,2.67.32,2.82.16,3.14.15,6.75-.47,7.21-1.1,7.07-.79,3.3L703,46.92h.32l.94-3.29.78-3.3,1.11-7.07.46-7.21-.16-6.75-.15-3.14L706,13.34l-.32-2.67-.47-2.2-.47-1.88-.47-1.41-.63-1.1-.79-.47h-1.41l-1.09.31-1.42.32-1.56.63-1.73.62-2.05.94-2.19,1L689,8.63,686.33,10h-.16l-2.67,1.57-3,1.73-3.13,2-3.14,2.2-3.45,2.51-3.45,2.66-3.77,3-3.77,3.13-3.76,3.45L652,35.93l-3.92,3.93-8.48,8.78-4.23,4.87-4.24,5.18L626.7,64l-4.39,5.81L617.91,76l-4.54,6.27L609,89l-4.55,7.22-4.55,7.69,4.71-1.57,4.86-1.42,4.87-.94,5-.47h4.86l5,.79,4.54,1.41,2.2.94,2.2,1.26H638l3.6,2.51,3.14,3,2.36,3.45v-.16l1.87,3.61,1.26,3.92.94,4.09.47,4.23v4.71l6-6.59,5.18-6.12,4.71-5.81,4.23-5.33,3.77-5.18,3.46-5,3.29-4.87,2.83-4.7v-.16l5.17-9.57L694.8,70l2-5.33,2.2-5.49,2-6,2.2-6.27ZM580.26,59.63l-.94,8.16-1.58,8-2.19,7.85-2.35,7.68-2.83,7.53-3.13,7.54-3.15,7.37L561,121.14l-1.41-2.2-1.73-1.73-1.88-1.41-2.05-1.1-2.19-.78-2.19-.47-2.21-.32-2,.16,2-3.92,2.36-4.24,4.87-9.26,5.17-9.57L564.88,77l2.36-4.39,2.35-3.92,2-3.77,1.89-3.14,1.57-2.66,1.26-2.2.94-1.26.62-.62.63-.16.63.16.47.47.32.63.31,1.56v1.89Z"/><path class="cls-2" d="M580.1,59.63l-.94,8.16-1.57,8-2.2,7.85L573,91.32l-2.82,7.53-3.14,7.54-6.28,14.75.32-.16-1.42-2.2L558,117.06l-1.89-1.42h-.15l-2.05-1.09-2.19-.79-2.19-.47L547.3,113l-2,.15.16.16,2-3.92,2.36-4.24,4.87-9.26,5.17-9.57L565,77l2.35-4.39v.16l2.36-3.92v-.16l2-3.77v.16L573.67,62l1.56-2.67v-.15l1.26-2.2v.16l1-1.26.62-.62h-.16l.63-.16.63.16H579l.46.46v-.15l.32.63.31,1.56v1.89h.31V57.74l-.31-1.56-.31-.79-.63-.47-.63-.16-.63.16-.78.63-.94,1.25V57l-1.25,2.2V59l-1.58,2.67-1.88,3.13V65l-2,3.77v-.16l-2.35,3.92v.16L564.73,77l-5.18,9.26-5.18,9.57-4.86,9.26-2.36,4.24-2.2,4.08,2.35-.16,2.21.32,2.19.47,2.19.78,2.05,1.1h-.16l1.88,1.41,1.73,1.72,1.57,2.36,6.43-15.06,3.14-7.54,2.82-7.53,2.36-7.68,2.19-7.85,1.57-8,.94-8.16Z"/><path class="cls-3" d="M223.29,117.21,217.48,116l-6-1.41L199.28,112l-12.56-2-6.27-.63-6.28-.31-6.43.31-6.44.47-6.27.78-6.28,1.26-6.12,2-3,1.26-2.83,1.56L134,118.63l-2.67,2-2.67,2.51L126.16,126l.62,3.45,1.1,3.14,1.41,2.82,1.73,2.67,2,2.36,2.2,2,2.35,1.72,2.36,1.73,5,2.66,4.7,1.89,2.2.78,1.88.63,1.57.47,1.26.47,1.1.31,1.41.48,1.57.47,1.88.47,4.55,1.1,5.18,1.09,5.8,1.26,6.44.94,6.9.94,7.06.79-1.41.31-1.57.79L194.26,163l-.79,1.26,2.51-.94,3.14-.79,3.45-.47,3.77-.31h3.76l3.45.15,3.14.47,2.67.79v.16l.94.62.79.79.94,2.35.78,2.51.48,2.51L230,198l6.9,25.89,3.61,12.87,3.77,12.71,4.24,12.71,4.39,12.55.47,4.86v4.87l-.15,4.86-.32,4.71-.79,4.71-1.09,4.55-1.26,4.39-1.72,4.24-.47.94-.78.47-.79.16-.79-.16-1.57-.63-1.41-.78-2.51-3.45-2.67-3.3-2.67-3-2.82-2.83-6.12-5.17-6.59-4.39-6.74-3.61-7.23-3.14-7.53-2.36-7.53-1.88-8-1.41-8-.78-8-.32H157.7l-8.16.47-8.16.79-8,.94-7.84,1.41-6.28,1.73L113,282.91l-6.28,1.26-6.28,1.72,3.46-3.61,3.76-3.13,4.08-2.83,4.08-2.51,4.39-2.2,4.4-1.88,4.7-1.73,4.72-1.4,4.86-1.1,5-.79,10.2-1.25,10.36-.32,10.5.16-2.34.94-2.05,1.1-1.73,1.26-1.4,1.56-4.56-.47-4.39-.31-4.23-.16h-7.54l-3.6.16-3.3.16-3,.31-2.81.47-2.67.63-2.36.62-2.2.79-1.87.78-1.73,1.1-1.57.94-1.26,1.26,7.21-1.41,7.54-1.1,7.69-.63,7.84-.16,7.85.16,8,.63,8,.78,8,1.26,8,1.41,7.84,1.72,7.85,2,7.69,2.19,7.38,2.51,7.37,2.51,6.9,2.83,6.75,2.82,1.26-2.67.78-3,.31-3v-3.14L244,274l-.47-2.83-.32-2.66-.62-6.12-1.26-6.59-1.41-7.22L238,241l-4.4-15.53-4.86-15.37-2.51-7.22-2.36-6.75-2.2-6.12-2-5.34-1-2.35-.78-2.2-.78-1.88-.63-1.57-.48-1.25-.46-1.1-.32-.63-.16-.31-2.19-2.67-1.57-.94-1.1-.16-1.1-.16,1.1,1.57.94,2-1.57-.62-2-.48-2.19-.15-2.35-.16-5.34.16-5.65.79-5.65.94-5.49,1.09-4.71,1.26-1.88.62-1.72.48-1,.31-1.25.31-1.58.48-2,.62-2.2.63-2.51.78-2.67.79-3,.78-6.59,1.73-7.37,1.88-8,1.73-8.63,1.73-8.78,1.56-9.1,1.42-9.26.94-9.26.63h-9L71.87,193l-8.32-1.1L59.62,191,55.86,190l-.16-7.22.31-7.06.8-7.06,1.41-6.9,1.72-6.59,2.35-6.44L65,142.32l3.14-6.12,3.61-5.81,3.92-5.8L80,119.25l4.71-5.33,5.18-4.87,5.34-4.7,5.8-4.4,6.12-4.08,3.61-2.51,3.77-2,3.76-1.88,3.61-1.57,3.77-1.25,3.76-.94,3.77-.79,3.92-.47,7.53-.16,7.54.63,7.68,1.25,7.54,2,7.37,2.66L182.33,94l7.22,3.45,7.06,3.77,13.81,8,6.59,4.08,6.28,3.92Z"/><path class="cls-3" d="M223.13,117.37l.16-.31-5.81-1.26-6-1.41-12.24-2.51-12.56-2-6.27-.63-6.28-.31-6.43.31-6.44.47-6.27.79-6.28,1.25-6.12,2-3,1.26-2.83,1.56h-.15l-2.82,1.89-2.67,2L128.51,123,126,126l.63,3.45,1.09,3.14,1.42,2.82v.16l1.72,2.67,2,2.35,2.2,2,4.71,3.45H140l5,2.67,4.7,1.88,2.2.79,1.88.63,1.57.47,1.26.47,1.1.31,1.41.48,1.57.46,1.88.48,4.55,1.09,5.18,1.1,5.8,1.26,6.44.94,6.9.94,7.06.79v-.32l-1.41.32-1.73.78-1.25,1.25-.95,1.73,2.83-1.1,3.14-.78,3.45-.47,3.77-.32h3.76l3.45.16,3.14.47,2.67.79-.16-.16v.16l1,.78.78.78v-.15l.94,2.35.78,2.51.48,2.51L229.88,198l6.89,25.89,3.62,12.87,3.77,12.71,4.23,12.71,4.4,12.55.47,4.86v4.87l-.16,4.86-.31,4.71-.8,4.71-1.09,4.55-1.26,4.39-1.72,4.24-.47.94v-.16l-.78.48h.16l-.79.15-.79-.15-1.57-.63-1.41-.78h.16l-2.51-3.46L237.25,305l-2.67-3-2.83-2.82-6.11-5.18-6.59-4.39h-.16l-6.74-3.61-7.23-3.14-7.53-2.35-7.53-1.89-8-1.41-8-.78-8-.32H157.7l-8.16.48-8.16.78-8,.94-7.84,1.41-6.28,1.73L106.7,284l-6.28,1.73.16.31,3.45-3.61,3.77-3.14,4.08-2.82L116,274h-.16l4.39-2.2,4.4-1.88,4.7-1.73,4.72-1.41,4.86-1.1,5-.78,10.2-1.26,10.36-.31,10.5.16v-.32l-2.34.94-2.05,1.1h-.15l-1.73,1.26L167.27,268h.15l-4.55-.46-4.39-.32-4.23-.16h-7.54l-3.6.16-3.3.16-3,.31-2.81.47-2.67.63-2.36.63-2.2.79-1.87.78h-.16l-1.73,1.1-1.57.94-1.57,1.57,7.68-1.42,7.54-1.09,7.69-.63,7.84-.16,7.85.16,8,.63,8,.78,8,1.25,8,1.42,7.84,1.72,7.85,2,7.69,2.2,14.75,5,6.9,2.82,6.75,2.83,1.41-2.83.79-3,.31-3v-3.14l-.62-6.27-.48-2.82-.31-2.67-.63-6.12-1.25-6.59-1.41-7.22L238.19,241l-4.39-15.54-4.86-15.37-4.87-14-2.2-6.12-2-5.34-1-2.35-.78-2.2-.79-1.88-.63-1.57-.47-1.25-.47-1.1-.47-1.1-2.19-2.67-1.73-.94-2.51-.31,1.25,1.88V171l1,2,.15-.15-1.57-.63-2-.47-2.19-.16-2.35-.15-5.34.15-5.65.79-5.65.94-5.49,1.1-4.71,1.25-1.88.63-1.72.47-1,.32-1.25.31-1.58.47-2,.63-2.2.62-2.51.79-2.67.78-3,.79-6.59,1.72-7.37,1.89-8,1.72-8.63,1.73-8.78,1.57-9.1,1.41-9.26.94-9.26.63h-9l-8.62-.31-8.32-1.1-3.93-.95-3.76-.94L56,190l-.15-7.22.31-7.06.79-7.06,1.41-6.9,1.73-6.59,2.35-6.44,2.67-6.43,3.14-6.12v.16l3.61-5.81,3.92-5.81,4.39-5.33,4.71-5.33,5.18-4.87,5.34-4.7,5.8-4.4L107.33,96l3.61-2.51h-.16l3.77-2,3.76-1.88L121.92,88l3.77-1.26,3.76-.94,3.77-.78,3.92-.47,7.53-.16,7.54.63,7.68,1.25,7.54,2L174.8,91v-.32L167.43,88l-7.54-2-7.68-1.25-7.54-.63-7.53.15-3.92.48-3.77.78-3.76.94-3.77,1.25-3.61,1.58-3.76,1.88-3.77,2h-.15L107,95.72l-6.13,4.08-5.8,4.39-5.34,4.71-5.18,4.86-4.7,5.34-4.4,5.33-3.92,5.81L67.94,136v.16l-3.14,6.12-2.67,6.43-2.35,6.44-1.72,6.59-1.41,6.9-.79,7.06-.31,7.06.15,7.38,3.92.94,3.93.94,8.32,1.1,8.62.31h9l9.26-.62,9.26-.95,9.1-1.41,8.78-1.57,8.63-1.72,8-1.73,7.37-1.88,6.59-1.73,3-.78,2.67-.79,2.51-.78,2.2-.63,2-.63,1.58-.47,1.25-.31,1-.31,1.72-.48,1.88-.62,4.71-1.26,5.49-1.1,5.65-.94,5.65-.78,5.34-.16,2.35.16,2.19.15,2,.48,1.73.62-.94-2.19-1.1-1.73-.16.31,2.2.32h-.16l1.57.94,2.2,2.67v-.16l.47.94.47,1.1.47,1.25.63,1.57.78,1.88.79,2.2.94,2.35,2,5.34,2.2,6.12,4.86,14,4.87,15.37L237.88,241l1.88,7.53,1.41,7.22,1.26,6.59.62,6.12.32,2.67.47,2.82.63,6.28v3.13l-.31,3-.79,3L242.11,292l.16-.16L235.52,289l-6.9-2.82-14.75-5-7.69-2.2-7.85-2-7.84-1.73-8-1.41-8-1.26-8-.78-8-.62-7.85-.16-7.84.16-7.69.62-7.54,1.1-7.21,1.41.16.32,1.25-1.26,1.57-.94,1.73-1.1h-.15l1.87-.78,2.2-.79,2.36-.62,2.67-.63,2.81-.48,3-.31,3.3-.15,3.6-.16h7.54l4.23.16,4.39.31,4.55.47,1.57-1.57,1.73-1.25h-.16l2-1.1,3.14-1.26L164.45,263l-10.36.31-10.2,1.25-5,.79-4.86,1.1-4.72,1.41-4.7,1.72-4.4,1.89-4.39,2.2h-.15l-4.09,2.5L107.48,279l-3.76,3.14L100,286.21l6.75-1.89,12.55-2.51,6.28-1.72,7.84-1.42,8-.94,8.16-.78,8.16-.47h8.15l8,.31,8,.79,8,1.41,7.53,1.88,7.53,2.36,7.22,3.13,6.75,3.62h-.16l6.59,4.38,6.13,5.18,2.81,2.83,2.67,3,2.67,3.29,2.51,3.46,1.57.78,1.57.63.79.15.78-.15,1-.47.46-1.1L250,307.7l1.25-4.39,1.1-4.55.79-4.71.31-4.71.16-4.86v-4.87l-.47-4.86-4.4-12.55-4.23-12.71-3.77-12.71-3.61-12.87L230.19,198l-6.75-25.89-.47-2.51-.78-2.51-.95-2.51-.78-.78-.94-.63V163l-2.83-.78-3.14-.47-3.45-.16h-3.76l-3.77.31-3.45.47-3.14.79-2.51.94.16.31.78-1.25,1.25-1.26h-.15l1.57-.78,2.36-.47-8-.94-6.9-1-6.44-.94-5.8-1.25-5.18-1.1-4.55-1.1-1.88-.47-1.57-.47L157.7,153l-1.1-.31-1.26-.47-1.57-.48-1.88-.62-2.2-.79-4.7-1.88-5-2.67h.15l-4.71-3.45-2.19-2-2-2.35-1.73-2.67v.15L128,132.59l-1.1-3.14-.63-3.45v.16l2.52-2.83,2.66-2.51,2.67-2L137,116.9h-.16l2.83-1.57,3-1.25,6.12-2,6.28-1.26,6.27-.78,6.44-.47,6.43-.32,6.28.32,6.27.62,12.56,2,12.24,2.51,6,1.42,6.59,1.41-.94-.16Z"/><path class="cls-3" d="M174.8,91l7.53,3.14,7.22,3.45,7.06,3.76h-.16l13.81,8,6.59,4.08,6.28,3.92.94.16-6.9-4.4-6.59-4.07-13.81-8h-.16l-7.06-3.76-7.22-3.45-7.53-3.15V91Z"/><path class="cls-1" d="M318.69,95.56,317,94.78l-2.35-.48H312.1l-1.11.16-1.09.47,1.57.94,1.25,1.26,1.1,1.41.79,1.57.62,1.73.32,1.72.16,1.57-.32,1.57-.62-2.19-.95-1.58-1.41-1.25-1.57-1.26,1.1,5.65.47,6-.15,5.81-.63,5.81-1.26,5.8-1.57,5.65-1.88,5.34-2.2,5.18-.62-9.89-.16-5-.47-5-.63-4.87-1.41-4.55-.79-2.19-1.1-2.2-1.41-2L296.56,108l1.57-.94,2-1,2.2-.47h.94l1.1.16.78.31.63.32.79,1.09.31,1.26V110l.78-1.57.32-1.26-.16-1.25-.32-1-.62-.78-.63-.63-.78-.31-.79-.16-4.08.31-4.08.79-4.24,1.1-4.23,1.57L284,108.58l-4.08,2.2-4.08,2.35-3.92,2.67L268,118.63l-3.6,3.13-3.61,3.46-3.3,3.45-3.14,3.61L251.53,136,248.86,140l-2.35,4.08,1.41-4.24,1.72-4.55,2.2-4.4,2.36-4.55,2.66-4.39,3-4.55,3.14-4.24,3.45-4.23,3.46-3.93,3.77-3.92,3.76-3.45,3.92-3.3,3.93-2.82L289.19,89l4.07-2.2,3.93-1.57-1.73,1.42-1.56,2-1.42,2.52-1.25,3.13,4.39-2.19,4.23-1.42,4.25-.62,4.08.16,3.6.62,3,1.1,2.35,1.57.94.94.63,1.1Z"/><path class="cls-1" d="M318.53,95.56l.16-.16L317,94.62l-2.35-.47H312.1L311,94.3l-1.4.63,1.72,1.1,1.26,1.26,1.09,1.41v-.16l.79,1.57.63,1.73.31,1.72.16,1.57-.32,1.57h.32l-.63-2.19-.94-1.73-1.41-1.26-1.89-1.41,1.1,6,.48,6-.16,5.81-.63,5.8-1.26,5.81-1.57,5.65-1.88,5.34-2.2,5.18h.32l-.63-9.89-.15-5-.48-5-.62-4.87-1.42-4.55-.78-2.19-1.1-2.2v-.16l-1.41-2-1.57-1.88v.31l1.57-.94h-.16l2-.94,2.2-.47h.94l1.1.16.78.31.63.31h-.15l.78,1.1v-.16l.31,1.26v1.88l1.1-2.19.32-1.26-.16-1.25-.32-1-.63-.94-.62-.63-.94-.31-.79-.16-4.08.32-4.08.78-4.24,1.1-4.23,1.57L284,108.43l-4.08,2.19h-.16L275.69,113l-3.92,2.66-3.92,2.83-3.61,3.14-3.61,3.45-3.3,3.45-3.13,3.61-2.83,3.77-2.67,3.92-2.35,4.08.32.16,1.4-4.24,1.73-4.55,2.19-4.4,2.36-4.55v.16l2.67-4.39,3-4.55,3.14-4.24,3.45-4.23,3.45-3.93,3.77-3.92,3.76-3.45,3.92-3.3,3.93-2.83,3.92-2.5h-.15l4.07-2.2,3.93-1.57-.16-.31-1.72,1.41-1.57,2v.16l-1.42,2.51-1.25,3.29,4.55-2.2,4.23-1.41,4.25-.62,4.08.15,3.6.63,3,1.1h-.16L317,93.68l.94.94v-.16l.63,1.1.47.31-.78-1.57-.94-.94-2.51-1.57-3-1.1-3.6-.62-4.08-.16-4.25.63L295.62,92l-4.39,2.2.16.15,1.25-3.13,1.41-2.51v.15l1.57-2,2.36-2-4.72,1.88-4.07,2.19H289l-3.92,2.51-3.93,2.83-3.92,3.29-3.76,3.45-3.77,3.93-3.46,3.92L262.83,113l-3.14,4.23-3,4.55-2.67,4.4v.15l-2.35,4.55-2.2,4.4-1.73,4.55-1.88,5.49,3.14-5.18,2.67-3.92,2.81-3.77,3.15-3.6,3.29-3.46,3.62-3.45,3.6-3.14,3.93-2.82,3.92-2.67,4.08-2.35h-.16l4.07-2.2,4.09-1.72,4.23-1.57,4.24-1.1,4.08-.79,4.08-.31.79.15.78.32h-.16l.63.63.63.78V105l.31,1,.16,1.25-.32,1.26-.78,1.57h.31v-1.26l-.31-1.26-.78-1.25-.79-.31-.78-.32-1.1-.15h-.94l-2.2.47-2,.94H298l-1.56,1.1,1.56,2,1.41,2v-.15l1.11,2.2.78,2.19,1.41,4.55.63,4.87.47,5,.16,5,.62,10.51,2.51-5.8L309,135.1l1.57-5.65,1.25-5.8.63-5.81.15-5.81-.46-6L311,100.42l-.31.16,1.57,1.26,1.41,1.25.95,1.57v-.15l.78,2.82.47-2.2-.15-1.57-.32-1.72-.62-1.73L314,98.39,312.88,97l-1.25-1.25-1.58-.94-.15.31,1.09-.47,1.11-.16h2.51l2.35.47,2,.94-.47-.31ZM215.44,93.68l2.19-.32H220l2,.48,2,.62,1.88,1.1,1.72,1.1,1.42,1.57,1.41,1.57-1.41-1.1-2-.94-2.51-.63-2.51.16L223.76,99l1.4,2,1.26,1.88.79,2.2,1.25,4.55.63,4.87-.47.31-.79.32-1.88.62-.94-3.61-1.41-3.29-1.89-3.3-2.35-2.82,2.35-1.1,1.26-.32,1.25-.15-1.41-.79-1.57-.47-1.56-.15-1.57.31-1.57.63-1.58,1.1-1.57,1.56-1.56,2-4.24-2.36-1.88-1.41-2-1.26L207,96.66l1.89-1.88,2-1.58,2.36-1.41,2.35-1.25,2.66-.94,2.67-.47-1.09.78-1.73.94-1.73,1.26-.63.78-.31.79Z"/><path class="cls-1" d="M215.28,93.84l2.35-.32H220l2,.47,2,.63h-.16l1.89,1.1,1.72,1.09,2.82,3.14.32-.31-1.42-1.1-2.19-.94L224.54,97l-2.83.16,1.89,2,1.41,2,1.26,1.88v-.16l.78,2.2,1.26,4.55.63,4.87v-.16l-.48.31h.16l-.79.32-1.88.62.16.16-1-3.61-1.4-3.29-1.89-3.45-2.35-2.83-.16.31,2.35-1.09,1.26-.32,1.73-.16-1.89-1.09-1.57-.47-1.56-.16-1.57.31-1.57.63-1.73,1.1-1.56,1.57-1.58,2h.16l-4.24-2.36h.16l-1.88-1.41-2-1.25v.31l3.29-3.77L209,94.93l2-1.57L213.39,92h-.14l2.35-1.26,2.66-.94,2.67-.46-.15-.32-1.1.78h.16l-1.73.94H218L216.22,92l-.62.79-.32,1.09.32-.15.31-.79v.16l.63-.79L218.26,91h-.15l1.73-.94H220l1.57-1.26-3.3.63-2.66.94-2.35,1.25h-.16l-2.36,1.42-2,1.57-1.88,1.88-3.3,3.92,2.05,1.42,1.87,1.41h.16l4.24,2.35,1.72-2,1.57-1.57,1.57-1.1h-.15l1.57-.62,1.57-.32,1.56.16,1.57.47,1.41.78v-.31l-1.25.16-1.26.31-2.51,1.26,2.36,3v-.16l1.88,3.3,1.41,3.29L226,116l1.88-.63.79-.31.62-.47-.62-4.87-1.26-4.55-.78-2.2-1.26-2-1.41-2-1.72-1.72-.16.31,2.51-.15,2.51.62,2,.94h-.15l1.4,1.1.32-.31-2.83-3.14-1.72-1.1-2-1.1-2-.62-2-.48h-2.36l-2.19.32.16.16-.32.16Z"/><path class="cls-2" d="M700.92,95.87l.16.32.15.47-.15.78-.31,1.1-.32,1.1-.63,1.41-1.41,3.14-2.2,3.92-2.51,4.4-3,4.7-3.45,5.18-3.77,5.34-4.08,5.49L675,138.87l-4.71,5.49-4.86,5.33-5,5.18-5.18,5-5.34,4.4v-1.57l-.3-1.88-.64-2.05-.94-1.88L646.63,155l-1.57-1.73-2-1.25-2.35-.94,4.55-5.81,4.7-5.65,4.87-5.33,4.87-5.18,4.86-5,4.7-4.71,4.72-4.39,4.54-3.93,4.24-3.76,4.08-3.14,3.61-2.67,3.13-2.35,2.67-1.73,2.2-1.1,1.57-.62h.63l.31.15Z"/><path class="cls-2" d="M700.92,96l-.15-.16.15.32.16.47-.16.78-.62,2.2-.64,1.41-1.4,3.14-2.21,3.92-2.51,4.4v-.16l-3,4.71-3.45,5.17-3.76,5.34-4.08,5.49-4.39,5.65-4.71,5.49-4.87,5.34-5,5.18-5.18,5-5.33,4.39.31.16v-1.57l-.31-1.88-.63-2.05-.94-2-1.41-1.88-1.57-1.73-2.05-1.25H643l-2.35-.94.16.31,4.55-5.8,4.7-5.65,4.86-5.34,4.87-5.17,4.87-5,4.7-4.71,4.71-4.39,4.55-3.93,4.24-3.77,4.07-3.13,3.61-2.67,3.14-2.36,2.67-1.72h-.16l2.2-1.1,1.57-.63h.63l.31.16.16-.31-.47-.16H700l-1.57.63-2.2,1.1h-.16L693.39,99l-3.14,2.35L686.64,104l-4.08,3.14-4.23,3.77-4.55,3.92-4.71,4.39L664.36,124l-4.86,5-4.87,5.18-4.86,5.34-4.71,5.64-4.54,6,2.5,1.09h-.15l2,1.26,1.57,1.73,1.42,1.88v-.16l.94,1.88.63,2.05.31,1.88v1.88l5.65-4.55,5.18-5,5-5.18,4.86-5.33,4.71-5.5,4.39-5.65,4.08-5.49,3.77-5.33,3.45-5.18,3-4.71v-.15l2.51-4.4,2.19-3.92,1.42-3.14.63-1.41.62-2.2.16-.78-.16-.47-.15-.47-.16.31Z"/><path class="cls-4" d="M646,116.9l1,2.35.78,2.51.94,5.18.31,5.18-.47,5.33-3.61,3.93-4.23,4.24L640.2,142l-.48-3.61-.62-3.46-.94-3.45-1.57-3.14-2.2-3.13-1.26-1.42-1.56-1.41L629.68,121l-2-1.25-4.55-2.2-4.86-1.41-5-.94-5-.16-5,.31-4.87.94-4.86,1.26-4.39,1.88,1.41-2.2,1.25-2,1.1-1.73,1.1-1.42.78-1.09,1.57-1.57,5.34-2.2,4.86-1.72,4.71-1.26,4.39-.79,3.92-.31h3.77l3.45.31,3.14.63,3,.94,2.67,1.1,2.36,1.41,2,1.73,1.89,1.73,1.72,1.88,1.41,2,1.1,2Z"/><path class="cls-4" d="M645.84,116.9l.95,2.35.78,2.51.94,5.18.32,5.18-.48,5.33v-.15l-3.6,3.92-4.23,4.24.31.16-1-7.22-.62-3.46-1-3.45-1.57-3.14v-.15l-2.19-3.14-1.26-1.41-1.56-1.42-1.89-1.41-2-1.25h-.16l-4.55-2.2L618.23,116l-5-.94-5-.16-5,.32-4.87.94-4.86,1.25-4.4,1.88.16.32,1.42-2.2,1.25-2,1.1-1.72,1.1-1.42.78-1.1,1.57-1.56h-.16l5.34-2.2,4.86-1.73,4.71-1.25,4.39-.79,3.92-.31h3.77l3.45.31,3.14.63,3,.94,2.67,1.1h-.15l2.35,1.41,2,1.73,1.89,1.72,1.72,1.89,1.42,2v-.16l1.09,2h.32l-1.1-2v-.16l-1.41-2-1.73-1.88L640,109.06l-2-1.73-2.35-1.41h-.16l-2.67-1.1-3-.94-3.14-.63-3.45-.32h-3.77l-3.92.32-4.39.78-4.71,1.26L601.6,107l-5.5,2.19-1.57,1.57-.78,1.1-1.1,1.41L591.56,115l-1.26,2-1.57,2.67,4.71-2,4.86-1.25,4.87-.94,5-.31,5,.15,5,.94,4.86,1.41,4.55,2.2h-.15l2,1.26,1.88,1.41L633,124l1.25,1.41,2.2,3.14v-.16l1.57,3.14.94,3.45.63,3.46.95,7.53,4.54-4.4,3.61-4.08.47-5.33-.31-5.18-.94-5.18-.79-2.51-.94-2.35Z"/><path class="cls-5" d="M223.6,114.86l-2.67-2.67-2.51-2-2.51-1.72L214.18,107l.79-1,.78-1.1.79-.94,1.09-.63,1.1,1.11,1.11,1.41,1.72,3,1.09,3.13.95,2.83Z"/><path class="cls-5" d="M223.44,114.86l.32-.16L221.09,112l-2.51-2-2.52-1.73-1.72-1.41v.31l.78-.94.79-1.1.78-.94h-.15l1.09-.63h-.15l1.09,1.1,1.11,1.41,1.72,3v-.16l1.09,3.13.95,2.83.47.47-1.1-3.3-1.1-3.13L220,105.76l-1.1-1.41-1.26-1.1-1.25.62-.78.95-.79,1.1L214,107l1.72,1.56,2.52,1.73,2.51,2,3.13,3-.47-.47ZM299.38,158l-.94,4.71-1.25,5-1.57,5.33-2,4.87-3-5.65-1.72-2.51-1.73-2.51-2.2-2.36-2.51-2.19-3.14-2.2-3.45-1.88-3.92-1.57-4.08-1.26-4.24-.78-4.39-.47L255,154.4h-4.55l-8.79.63,2.36-2.67,2-2.51,3.76-5,3.3-5,3.45-4.71,3.92-4.86,2.2-2.36,2.51-2.35L268,123l3.14-2.51L274.6,118l3.92-2.51,1.57-.94,2-1.26,4.39-2.2,2.36-.94,2-.31,1.73.16.62.31.64.63,1.72,2.51,1.41,2.82,1.26,3.14.78,3.29.78,3.61.48,3.46.47,7.37v6.91l-.16,3.13-.31,2.83-.16,2.67-.32,2.19-.31,1.88-.16,1.26Z"/><path class="cls-5" d="M299.23,158l-.94,4.71-1.26,5-1.57,5.33-2,4.87h.32l-3-5.65v-.16l-3.45-5-2.19-2.35-2.51-2.2-3.14-2.2h-.16l-3.45-1.88-3.92-1.57-4.08-1.25-4.24-.79-4.39-.47-4.24-.16h-4.55l-8.79.63.16.32,2.36-2.67,2-2.51,3.77-5,3.3-5,3.45-4.71,3.92-4.87,2.2-2.35,2.51-2.35,2.82-2.51,3.14-2.51,3.45-2.52,3.93-2.51,1.56-.94,2-1.25h-.15l4.39-2.2,2.36-.94,2-.31,1.73.15.62.32h-.15l.63.62,1.72,2.52v-.16l1.42,2.82,1.25,3.14.79,3.29.78,3.61.47,3.46.47,7.37v6.91l-.15,3.13-.32,2.83-.16,2.67-.31,2.19-.32,1.88-.15,1.26h.31l.16-1.26.31-1.88.32-2.19.16-2.67.31-2.83.15-3.13v-6.91l-.46-7.37-.48-3.46-.78-3.61-.79-3.29-1.25-3.14-1.42-2.82v-.16l-1.72-2.51-.63-.63-.78-.31-1.73-.16-2,.32-2.36.94-4.39,2.19H282l-2,1.26-1.57.94-3.92,2.51L271,120.35l-3.14,2.51L265,125.37l-2.51,2.36-2.19,2.35-3.93,4.86-3.45,4.71-3.3,5-3.76,5-2,2.51-2.51,3,9.1-.63H255l4.24.16,4.39.47,4.24.78,4.08,1.26,3.92,1.56,3.45,1.89h-.16l3.14,2.19,2.51,2.2,2.2,2.35,3.45,5v-.16l3.14,6,2.19-5.18,1.57-5.33,1.26-5,.94-4.71Z"/><path class="cls-6" d="M218.73,119.73l-.94.78-1.1.94L214.34,124l-1,1.26-.94,1.57-.46,1.56-.16,1.57,2.83-2.51,3-2.51,3.3-2.35,3.45-2,3.61-1.73,3.92-1.1,3.93-.62,4.08.15.78,2.2.32,2v1.88l-.16,2-.94,4.24-.94,4.55,1.72-1.41.94-1.73.47-.94.32-.78.46-1.26,1,.79,2.67,2.66-.95,1.57-.78,1.73-.94,3.61-.79,3.76-.62,3.77-.94,3.76-1.57,3.3-1.1,1.41-1.25,1.41-1.73,1.26-2,.94.62.47,1,.31,2.2-.15,2.19-.47,1.88-.79-.78,2.51-.62,2.83-.64,3.61-.62,4.39-.79,1.25-.94,1.73-1.1,2.2-.94,2.51-1.1,2.82-.78,3-.63,3.29-.31,3.14-1.26-4.87-1.1-4.55-.79-4.23-.78-3.61-.79-3.45-.94-3-1.25-2.52-1.57-2.19-1.72-1.73-1.73-1.25-1.73-.79-1.88-.47-3.76-.16-2,.16h-2.2l-4.55-.47-4.24-.63-8-.94L185,155l-6.59-.94-6.12-1.1-5.65-1.1-5.49-1.41-5.49-1.57-5.18-1.73-4.71-1.88L141.69,143l-3.61-2.51-2.82-2.83-2.2-3-1.72-3.45-1-3.61,4.4-4.08,4.7-3.3,5-2.66,5.34-2,5.34-1.57,5.65-1.1,5.8-.47,5.81-.16,6,.16,6,.47,11.93,1.88,11.45,2.36,11,2.67Z"/><path class="cls-6" d="M218.73,119.88l-.15-.31-1,.78-1.09.94-2.36,2.51-.93,1.26-.95,1.73-.47,1.56-.16,1.89,3.14-2.67,3-2.51,3.3-2.36,3.45-2h-.16l3.61-1.73,3.92-1.1,3.93-.63,4.08.16-.16-.16.78,2.2.32,2v1.88l-.16,2-.94,4.24-.94,4.86,2-1.57.94-1.88.47-.94.32-.78.46-1.26-.31.16.94.78,2.67,2.67v-.31l-.94,1.56v.16l-.79,1.73-.94,3.61-.79,3.76-.62,3.77-.94,3.76-1.57,3.3v-.16l-1.1,1.41-1.25,1.42-1.73,1.25h.16l-2.2,1.1.78.63,1,.31,2.2-.16,2.19-.46,1.88-.79-.15-.16-.79,2.51-.62,2.83-.64,3.61-.62,4.39v-.16l-.79,1.26V172l-.94,1.73L236,175.9l-.94,2.51L234,181.23l-.78,3-.63,3.29-.31,3.14h.31l-1.25-4.87-1.1-4.55L229.4,177l-.78-3.61-.79-3.45-.94-3-1.25-2.52v-.15l-1.57-2.2-1.72-1.73-1.73-1.25-1.89-.78-1.88-.48-3.76-.15-2,.15h-2.2l-4.55-.47-4.24-.63-8-.94-7.06-.94-6.59-.94-6.12-1.1-5.65-1.1-5.49-1.41-5.49-1.57L150.48,147l-4.71-1.89h.16l-4.09-2.35-3.6-2.51-2.83-2.83-2.19-3v.16l-1.73-3.45-.94-3.61v.16l4.4-4.09,4.7-3.29h-.16l5-2.67,5.34-2,5.34-1.56,5.65-1.1,5.8-.47,5.81-.16,6,.16,6,.47,11.93,1.88,11.45,2.35,11,2.67.32-.15-11.3-2.83-11.45-2.36-11.93-1.88-6-.47-6-.16-5.81.16-5.8.47-5.65,1.1-5.34,1.57-5.34,2-5,2.67h-.16l-4.7,3.29-4.4,4.24,1,3.61,1.72,3.45v.16l2.2,3,2.82,2.82,3.61,2.51,4.08,2.36h.16l4.7,1.88,5.19,1.73,5.49,1.56,5.49,1.42,5.65,1.09,6.12,1.1,6.59.95,7.06.94,8,.94,4.24.63,4.55.47h2.2l2-.16,3.76.16,1.88.47,1.73.78h-.16l1.73,1.26,1.72,1.72,1.57,2.2v-.16l1.26,2.52.94,3,.79,3.45.78,3.61.78,4.23,1.1,4.55,1.42,5.65.46-3.92.64-3.29.77-3,1.1-2.82.95-2.51,1.1-2.2.94-1.73v.16l.78-1.41.63-4.39.63-3.61.63-2.83.78-2.66-2,.78-2.19.47-2.21.16-.94-.31h.16l-.63-.48-.16.32,2.21-.94,1.72-1.26,1.25-1.41,1.11-1.42,1.56-3.45,1-3.76.62-3.77.79-3.76.94-3.61.78-1.73v.16l.95-1.73L244,128.67l-1.11-.79-.62,1.42-.32.78-.46.94-1,1.73v-.16L238.82,134l.31.16,1-4.55.94-4.24.15-2v-1.88l-.31-2-.78-2.35-4.24-.16-3.93.63-3.92,1.1-3.61,1.72h-.16l-3.44,2-3.3,2.35-3,2.51-2.83,2.52.32.15.15-1.57.47-1.56v.15l.94-1.57.95-1.25,2.35-2.51,1.1-.94,1.1-.94-.32.15Z"/><path class="cls-4" d="M559.7,123v.47l-.15.63-.79,2.19-1.1,2.36-1.26,2.19-1.56-1.56-1.73-1.42-1.88-1.41-2.2-1.1-2.35-.94-2.35-.79-2.52-.46-2.35-.16,2-3.45L544,115.8l2.67-.16,2.35.16,2.2.32,2,.78,1.88,1.1,1.73,1.41,1.41,1.57,1.41,2Z"/><path class="cls-4" d="M559.55,123.18v.31l-.16.63-.79,2.19-1.1,2.36-1.25,2.19.31-.15L555,129.14l-1.72-1.41-1.89-1.42L549,125.22l-2.35-.94-2.35-.79-2.52-.47-2.35-.16.15.32,2-3.45,2.51-3.77H544l2.67-.16L549,116l2.2.31,2,.79h-.16l1.88,1.09,1.73,1.42,1.41,1.57,1.41,2,.31-.16-1.4-2.2L557,119.25l-1.73-1.41-1.89-1.1h-.15l-2-.78-2.2-.32-2.35-.15-2.67.15-2.67,3.77-2,3.61,2.51.31,2.52.47,2.35.79,2.35.94,2.2,1.1h-.16L553,128l1.73,1.41L556.4,131l1.42-2.35,1.09-2.36.79-2.19.16-.63V123l-.31.16Z"/><path class="cls-7" d="M632.82,130.24l1.73,4.39,1.1,4.87.62,4.86-.15,4.87L618.23,167l-18.05,17.72L582,202.1l-18.35,17.26-18.52,16.95L526.44,253.1l-18.83,16.63-18.83,16.32-19.14,16L450.49,317.9,431,333.28,411.58,348.5l-19.46,14.91L372.35,378l-19.93,14.28-19.92,13.8-.32-1.25-.47-.94-.63-.79-.31-.94,21-18,21-18.36,20.71-18.83,20.56-19.45L434,307.7l19.45-20.39,18.83-20.87,9.11-10.67,8.94-10.83,24.48-30.13,24.63-30,12.08-15.22,11.77-15.22,11.46-15.53,11-15.54,5.81-1.72L598,120l6.74-.94,6.75-.32,3.3.16,3.29.47,3,.78,2.82,1.1,2.67,1.57,2.35,2,2.2,2.36,1.72,3Z"/><path class="cls-7" d="M632.67,130.39v-.15l1.72,4.39,1.1,4.87.63,4.86-.16,4.87v-.16L618.07,166.8l-18,17.73L581.83,202l-18.36,17.26L545,236.15l-18.67,16.79-18.83,16.63-18.83,16.32-19.14,16-19.14,15.85-19.46,15.37-19.46,15.22L392,363.25,372.2,377.84l-19.94,14.28-19.92,13.81.32.15-.32-1.25-.47-1.1-.63-.78v.15l-.31-.94v.16l21-18.05,21-18.35,20.71-18.83,20.56-19.46,19.92-19.77,19.46-20.4,18.83-20.86,9.1-10.68,8.95-10.82L515,215l24.63-30,12.09-15.22,11.77-15.22L574.93,139l11-15.53h-.15l5.81-1.73,6.43-1.57,6.74-.94,6.75-.31,3.3.16,3.29.47,3,.78,2.82,1.1h-.16l2.67,1.57,2.35,2,2.2,2.35,1.73,3,.31-.31-1.73-3-2.19-2.36-2.36-2L624,121.14h-.15l-2.82-1.1-3-.79-3.29-.47-3.3-.15-6.75.31-6.74.94-6.43,1.57-6,1.73-11,15.53-11.46,15.53-11.77,15.22L539.3,184.68l-24.63,30-24.48,30.12-8.94,10.83-9.1,10.67-18.84,20.87-19.45,20.4-19.93,19.77-20.56,19.45L372.66,365.6l-21,18.36-21,18.2.32.94.62.95v-.16l.47.94.48,1.41,20.08-13.8,19.93-14.28,19.77-14.6,19.46-14.9,19.45-15.22,19.46-15.38,19.15-15.85,19.14-16,18.82-16.32,18.83-16.63,18.68-16.8,18.52-16.94,18.35-17.26,18.2-17.42,18-17.73,17.88-17.88.16-4.87-.63-4.86-1.1-4.87L633,130.24v-.16l-.31.31Zm-388.2-8,2,.16,2.35-.32,2.35-.94,1.1-.62,1.1-.94-.78.78-.79,1.1-1.41,2.67L249,127.1l-1.25,2.2-1.89-1.89-2-1.41.32-2,.31-1.57Z"/><path class="cls-7" d="M244.62,122.39l-.15.16,2,.15,2.35-.31,2.35-.94,1.26-.63,1.1-.94-.31-.31-.79.78-.78,1.1v.16l-1.41,2.67-1.42,2.82-1.25,2.2.31-.16L246,127.25l-2-1.41V126l.31-2,.31-1.57-.31-.16L244,124l-.32,2,2,1.57,2.05,1.88,1.41-2.35,1.41-2.82,1.4-2.67v.15l.8-1.09.78-.79-.31-.31-1.11.94h.16l-1.1.63-2.35.94-2.35.31-2.2-.16.31.16Z"/><path class="cls-1" d="M236.93,124.74l.32,1.42.16,1.25-.32.79-.63.63-.78.31-.94.31h-7.85l-2.51.63-1.09.63-.94.78.78-1.1.94-1.25,2.35-2.51,2.52-2.35,1.25-.79,1.26-.47,1.88-.32,1.73.32,1.25.62.62,1.1Z"/><path class="cls-8" d="M235.06,125.69l.31.62-.31.32-.64.16h-.93l-2.2.15-2.2.31,1.57-.78,1.41-.94,1.42-.47.77.16.8.47Z"/><path class="cls-7" d="M553.74,135.73l-13.49,23.85-6.91,11.77L526,183.27,518.6,195l-7.69,11.61-8,11.61-8.16,11.46-8.31,11.45-8.63,11.3-8.94,11.14-9.11,11-9.41,10.82-9.58,10.51-9.88,10.52-10.2,10.2-45.51,43-22.91,21L329.2,400.91h-1.57L344,385.53l15.85-15.69,15.37-16,14.91-16.32L404.52,321l14.12-16.63,13.49-17,13.34-17.1,12.71-17.42,12.4-17.42,11.92-17.73,11.61-17.88L505.41,182l10.83-18.2,10.51-18.2,10-18.37,2.35-.78h2.67l2.67.47,2.67.94,2.36,1.42,2,1.88,1.42,2.19.78,2.36Z"/><path class="cls-7" d="M553.58,135.73l-13.49,23.85v-.16l-6.91,11.77-7.37,11.93-7.37,11.77-7.69,11.61-8,11.61-8.16,11.45L486.27,241l-8.63,11.3-8.94,11.15-9.1,11-9.42,10.83-9.57,10.51-9.89,10.51-10.2,10.2-45.5,43-22.91,21L329,400.75h-1.41l.16.31,16.32-15.37L360,370l15.38-16,14.91-16.32,14.43-16.47,14.13-16.64,13.49-16.94,13.34-17.11,12.71-17.41,12.39-17.42L482.66,218l11.61-17.89,11.3-17.89L516.4,164l10.51-18.2v-.15l10-18.37-.16.16,2.35-.78h2.67l2.67.47,2.67.94H547l2.36,1.41,2,1.89,1.42,2.19v-.15l.78,2.35h.31l-.78-2.35L551.7,131l-2-1.88-2.51-1.41-2.67-.94-2.67-.48h-2.66l-2.51.79-10,18.52v-.16l-10.5,18.2-10.84,18.2L494,199.75l-11.61,17.89-11.93,17.73L458,252.78,445.32,270.2,432,287.31l-13.49,16.94-14.12,16.64-14.44,16.47L375,353.68l-15.38,16-15.85,15.69-16.47,15.69h1.88l23.22-20.23,22.91-21,45.51-43,10.2-10.2,9.88-10.52,9.57-10.51,9.41-10.83,9.1-11L478,252.63l8.63-11.3,8.32-11.45,8.16-11.46,8-11.61,7.68-11.61,7.39-11.77,7.37-11.92,6.91-11.77v-.16l13.48-23.85Z"/><path class="cls-4" d="M647.26,166.8l-.16.47-.31.63-1.1,1.41-1.88,1.88-2.36,2.2h-.15l.15-1.88-.31-1.89-.62-2-1.11-1.88L638,164l-1.58-1.41-1.88-1.26-2-.94,1.88-2,1.88-1.89,1.89-1.57,1.56-1.09,1.42.46,1.41.95,1.26,1.25,1.25,1.73,1.1,1.88.63,2,.47,2.35v2.36Z"/><path class="cls-4" d="M647.1,166.8l-.15.47-.32.63v-.16l-1.1,1.41L643.65,171l-2.35,2.2h0l.15.16.16-1.88-.31-1.89-.63-2-1.1-2-1.41-1.72-1.57-1.42-1.89-1.25h-.15l-2-.94.16.31,1.88-2,1.88-1.88,1.89-1.57,1.56-1.1h-.16l1.42.47H641l1.41.94,1.26,1.26,1.25,1.72,1.1,1.89v-.16l.63,2,.47,2.35v2.36h.31v-2.36l-.46-2.35-.63-2-1.1-2L644,156.28,642.71,155l-1.57-.94-1.42-.47-1.72,1.1-1.88,1.56-1.89,1.89-1.88,2.19,2.2,1.1h-.16l1.88,1.26,1.58,1.41,1.4,1.73,1.11,1.88v-.16l.62,2,.32,1.89-.16,2h.31l2.51-2.2,1.88-1.89,1.11-1.41.31-.78.15-.47Z"/><path class="cls-7" d="M638.79,176.06l-15.54,14.59L607.4,204.77l-16.16,14.12L574.77,232.7l-16.64,13.49-16.79,13.34-34,26.36-34.21,25.58-34.21,25.1-33.74,24.95-16.63,12.4L372,386.16l-10.36,7.22-10.2,7.05-10.2,6.91-10.51,6.59.62-1.1.48-1.09.31-1.73,19.46-13.34,19.46-13.81,19.14-14.12,19.14-14.28,19-14.75,18.82-14.9L466,309.59l18.51-15.38,18.52-15.85,18.35-16,18.36-16.16L558,229.88l36.09-33.43L630,162.25l2.19.78,1.73,1.26,1.57,1.72,1.25,2,1,2,.78,2,.32,2v1.89Z"/><path class="cls-7" d="M638.63,176.06v-.16l-15.54,14.59-15.85,14.12-16.16,14.12-16.47,13.82L558,246l-16.79,13.34-34.05,26.36-34.21,25.57-34.2,25.11L405,361.37l-16.64,12.39L371.88,386l-10.36,7.22-10.2,7.06-10.2,6.9-10.51,6.59.32.16.62-1.1.47-1.09.32-1.73v.16l19.45-13.34L371.25,383l19.14-14.12,19.15-14.28,19-14.75L447.35,325l18.84-15.22,18.51-15.38,18.51-15.84,18.36-16,18.36-16.16L558.13,230l36.1-33.42,35.93-34.21H630l2.19.79H632l1.72,1.25,1.58,1.73,1.25,2v-.16l.94,2,.78,2,.32,2v1.89h.31v-1.89l-.31-2-.78-2-1-2v-.15l-1.25-2-1.58-1.73-1.88-1.26-2.19-.78L593.91,196.3l-36.09,33.42L539.61,246,521.26,262.2l-18.36,16-18.52,15.85-18.51,15.38L447,324.65l-18.83,14.91-19,14.75-19.15,14.28L370.94,382.7l-19.46,13.82L332,409.85l-.31,1.89-.47,1.09-.94,1.57,11.14-6.9,10.2-6.91,10.2-7.06,10.36-7.21,16.47-12.24,16.63-12.4L439,336.73l34.2-25.1,34.21-25.58,34.05-26.36,16.79-13.34,16.64-13.49,16.47-13.81,16.16-14.12,15.85-14.13,15.53-14.74Z"/><path class="cls-8" d="M277.26,165.54l.16.79-.31.94-.94,1.57-1.42,1.41-.94.31-.79.16-1.09-.16-.79-.31-.63-.63-.31-.94-.16-.94.16-1.1.79-2.35.78-.94.94-.63,1-.16.94.31.93.32.64.63.62.78.47.94Z"/><path class="cls-4" d="M255.92,177l3.46.31h3.45l3.29-.47,3.3-.78,3-1.42,2.83-1.72,2.36-2,2.19-2.67,1.57.78,1.42,1.1,2.66,2.51,2.36,3,1.1,1.42,1.09,1.57-2.35,5.8-2.83,5.81-3.45,5.8-3.92,5.49-4.55,5-2.36,2.19-2.51,2-2.82,1.89-2.83,1.56-3,1.42-3.15.94-1.88-.63-1.72-.78-1.42-1.26L250,212.62l-2.19-3.14-1.42-3.61-1.1-3.77-.78-3.76-.31-3.14-.16-1.41-.16-1.1-.31-2.36-.32-2.66-.16-3.14-.31-3.45.15-6.91.32-3.45.63-3.14,1.1,1.73,1.25,1.57,3.3,2.82,1.72,1.26,1.73.94,1.57.62,1.41.48Z"/><path class="cls-4" d="M255.92,177.15l3.46.32h3.45l3.29-.47,3.3-.79,3-1.41h.16l2.83-1.73,2.35-2,2.2-2.66h-.16l1.57.78h-.16l1.42,1.1,2.67,2.51,2.35,3,1.1,1.41,1.09,1.57v-.15l-2.35,5.8-2.82,5.81V190l-3.46,5.81-3.92,5.49-4.55,5-2.35,2.2-2.51,2L265,212.46h.16L262.36,214l-3,1.41-3.15.94-1.88-.63-1.72-.78h.16l-1.42-1.25-1.25-1.26-2.2-3.14v.16l-1.41-3.61-1.1-3.77-.79-3.76-.31-3.14-.15-1.41-.16-1.1-.32-2.36-.31-2.66-.16-3.14-.32-3.45.16-6.91.32-3.45.63-3.14-.32.16,1.1,1.72L246,171l3.3,2.83,1.72,1.26h.15l1.73.94,1.57.62,1.41.48v-.32l-1.41-.47-1.57-.63-1.73-.94h.16l-1.73-1.25-3.29-2.83-1.25-1.57-1.26-1.88-.79,3.45-.31,3.45-.15,6.91.31,3.45.15,3.14.32,2.66.31,2.36.16,1.1.16,1.41.31,3.14.79,3.76,1.09,3.77,1.42,3.61,2.19,3.29,1.26,1.26,1.41,1.25,1.88.79,1.88.63,3.15-.95,3-1.41,2.82-1.57h.16l2.82-1.88,2.51-2,2.35-2.19,4.56-5,3.91-5.49,3.46-5.81v-.15l2.83-5.81,2.35-5.8-1.1-1.73-1.09-1.41-2.36-3-2.67-2.51-1.42-1.1-1.72-.79-2.35,2.67-2.36,2-2.82,1.73h.16l-3,1.41-3.3.78-3.29.48h-3.45l-3.45-.32v.32Z"/><path class="cls-7" d="M287.3,226.74,285,230l-2.51,3.14L277,239.45l-5.81,6.11-5.65,6.28.32-2,.78-2,1.73-4.08,1.57-4.07.78-2.05.32-2-2.67,3.3-2.67,3.61-2.35,4.08-2.2,4.39-2,4.55L257.33,260l-1.25,4.4-.78,4.08-1.58-4.87-1.57-4.55-1.56-4.24-1.41-3.6,5.17-2.51,4.39-3,4.09-3.45,3.44-3.61,3.15-4.08,2.67-4.23,2.35-4.4,2.19-4.71,3.77-9.57,3.45-9.72,3.77-9.58,2-4.7,2.19-4.4,2.67,2.51,2,3-.15-3.14-.48-2.36-.47-1.57-.31-1.09.31-.48.47-.78.95-2.2.94-2.19.62-1.89,1.57,7.85.79,7.53v7.38l-.31,3.45-.64,3.45-.78,3.45-.94,3.3-1.25,3.14-1.42,3-1.72,3-1.88,2.82-2.2,2.67-2.36,2.67Z"/><path class="cls-7" d="M287.15,226.58l-2.36,3.3L282.28,233l-5.49,6.28-5.8,6.12-5.65,6.28.31.15.31-2,.79-2,1.73-4.08,2.35-6.12.31-2.5-3,3.6-2.67,3.61-2.35,4.08v.16l-2.2,4.39-2,4.55L257.17,260l-1.25,4.4-.78,4.08h.31l-1.57-4.87-1.57-4.55-1.57-4.24-1.4-3.6-.16.15,5.17-2.51h.16l4.39-3,4.08-3.45,3.45-3.61,3.15-4.08,2.66-4.24v-.15l2.36-4.4,2.19-4.71,3.76-9.57L284,202l3.77-9.58,2-4.7,2.2-4.4-.31.16,2.67,2.51,2.35,3.3-.16-3.61-.47-2.36-.47-1.57-.31-1.09v.15l.31-.47.47-.78v-.16L298,175l.62-1.89h-.31l1.56,7.85.79,7.53v7.38l-.31,3.45-.63,3.45-.78,3.45-.94,3.3-1.26,3.14-1.41,3v-.16l-1.73,3-1.88,2.82-2.2,2.67-2.35,2.67.31.32,2.35-2.67,2.2-2.67,1.89-2.83,1.72-3v-.15l1.41-3,1.26-3.14.94-3.3.78-3.45.63-3.45.31-3.45v-7.38l-.78-7.53-1.73-8.32-.78,2.36-1.89,4.39v-.16l-.46.79-.32.63.32,1.09.46,1.57.48,2.36.16,3.14.31-.16-2-3-2.82-2.51-2.36,4.55-2,4.7L283.7,202l-3.46,9.72-3.76,9.57-2.2,4.71-2.35,4.4v-.16l-2.67,4.24-3.14,4.08-3.45,3.6-4.08,3.45-4.39,3h.15L249,251.22l1.41,3.6,1.57,4.24,1.57,4.55,1.73,5.5.93-4.71,1.26-4.4,1.73-4.55,2-4.55,2.2-4.39v.16l2.36-4.09,2.67-3.6,2.67-3.3-.32-.16-.32,2-2.35,6.12-1.73,4.08-.78,2-.31,2.51,6-6.59,5.81-6.11,5.49-6.28,2.51-3.14,2.35-3.29-.31-.32Z"/><path class="cls-8" d="M219.68,194.26l-3.62,6.59-3,6.9L210.58,215l-1.89,7.53L207.43,230l-.31,7.69.31,7.84,1.11,7.85-.63-.15-.79.15-.94.16-.62.31L204.45,244l-1.56-9.89-2-9.72-2.51-9.73-2.82-9.42L192.22,196l-3.93-9.1-4.24-8.63.95-.31,1.25-.32,3.14-.78,3.61-.78,4.08-.63,4.08-.47,4.08-.16,3.61.47,1.57.47,1.41.63,2.35,4.24,1.88,4.55,1.73,4.7,1.89,4.4Zm-38-15.69,3.77,8.62,3.61,8.95,3.14,9.1,2.82,9.42,2.35,9.57,1.89,9.73,1.41,9.88.94,10-3.92.63-3.61.94.31-10.2-.31-10-.95-9.88-1.56-9.58-2.2-9.57-3-9.1L183,188.14l-4.08-8.47.47-.32.78-.16,1-.31.47-.16.15-.15Z"/><path class="cls-5" d="M259.84,226.11l-1.25-1.41-1.73-1.42-1.56-1.72-1-1.73,3.46-.47,3.29-.78,3-1.26,3-1.57,2.82-1.88,2.66-2.2,5.34-4.86-1.1,2.67-1.1,3-2.67,6-2.82,6.28-3.29,6.12L263,236.31l-2,2.51-2.2,2.35-2.51,1.89-2.51,1.72L251.06,246l-3,.94-1.09-3.3-1.26-3.76-1.25-3.77-1.42-4.08-2.81-8.63-2.52-9.1-.95-4.71-.62-4.55-.47-4.55V196l.32-4.55.77-4.24L238,183l1.88-3.92.16,6.9.31,7.06.78,7.06.63,3.46.79,3.44,1.09,3.15,1.26,3,1.73,2.82,1.88,2.67,2.19,2.35,2.67,2,3,1.57,3.45,1.41v.16Z"/><path class="cls-5" d="M259.69,226.11,260,226l-1.26-1.41L257,223.13l-1.57-1.73v.16l-.94-1.73-.16.16,3.46-.47,3.29-.79,3-1.25,3-1.57h.15L270,214l2.67-2.2L278,207l-.31-.15-1.1,2.67-1.1,3-2.66,6L270,224.7l-3.29,6.12v-.16l-3.92,5.49-2,2.51-2.2,2.35-2.51,1.89-2.51,1.72h.15l-2.66,1.26-3,.94.16.16-3.61-10.83-1.41-4.08-2.82-8.63-2.51-9.1-.95-4.71-.62-4.55-.47-4.55V196l.31-4.55.78-4.24,1.26-4.23,1.89-3.92h-.32l.16,6.9.32,7.06.78,7.06.62,3.46.79,3.44,1.1,3.15,1.25,3v.15l1.73,2.83,1.88,2.66,2.2,2.36,2.66,2h.16l3,1.57,3.45,1.41-.15-.16v.16l.31.31v-.62l-3.61-1.41-3-1.57h.16l-2.67-2-2.2-2.35-1.88-2.67-1.72-2.82v.16l-1.26-3-1.1-3.15-.79-3.44-.62-3.46-.79-7.06-.3-7.06-.16-7.53-2.2,4.55-1.26,4.23-.78,4.24-.32,4.55v4.55l.48,4.55.62,4.55.95,4.71,2.51,9.1,2.81,8.63,1.42,4.08,3.76,11,3-.94,2.66-1.25h.16l2.51-1.73,2.51-1.88,2.2-2.35,2-2.52,3.93-5.49v-.15l3.29-6.12,2.82-6.28,2.67-6,1.1-3,1.25-3.14-5.81,5.17-2.66,2.21-2.82,1.88h.16l-3,1.57-3,1.25-3.29.79-3.61.62.94,1.89,1.57,1.72,1.73,1.41,1.56,1.57-.31-.31Z"/><path class="cls-8" d="M237.72,259.06l-12.4-3.61L218.89,254l-6.44-.94-.93-6.91-.32-6.9.32-7.06.93-6.75,1.42-6.9,1.88-6.59,2.36-6.28,2.51-6.12,2.35,6.75,2.51,7.38,4.86,15.69,2.36,8,2,7.69,1.72,7.37.63,3.3.63,3.29Z"/><path class="cls-2" d="M310.21,221.72l2.67,2.82,1.26,1.26,1.25.94-4.55-1.41-4.23-1.73-4.4-2.2-4.08-2.51,1.25-2,1.11-2.19,1.25-1.89.63-.78.94-.63,1.57,2.82,1.73,2.67,3.6,4.87Z"/><path class="cls-2" d="M310.05,221.87l2.67,2.83L314,226l1.25,1,.16-.32-4.55-1.41-4.23-1.73-4.4-2.2h.16l-4.08-2.51v.32l1.25-2v-.16l1.1-2.19v.15l1.26-1.88.62-.79,1-.63-.31-.15,1.56,2.82v.16l1.73,2.67,3.6,4.86.32-.31-3.61-4.87L305,214v.15l-1.72-3-1.1.63-.63.79-1.25,1.88v.16l-1.1,2.19v-.16l-1.25,2.2,4.07,2.67h.16l4.4,2.2,4.23,1.72,5.18,1.57-1.73-1.41L313,224.39l-2.67-2.83-.32.31Zm19.46-1.41h-2.35l-2.83-.16-1.25.16-1.26.31-.93.63-.79,1.1,6,.78,6,.95,2.83.62,2.51,1,2.51,1.25,2,1.57-3.77.79-3.76.47-3.77-.32-3.61-.62-3.6-1.26-3.3-1.88-3-2.2-2.67-2.83-.47-.31v-1.1l-.16-.47,2,.32h2l4.08-.32h2l1.89.16,1.88.47,1.72.94Z"/><path class="cls-2" d="M329.51,220.62v-.32h-2.35l-2.83-.15-1.25.15-1.26.32-1.09.62-.79,1.26,6.12.94,6,.95,2.83.62,2.51.94,2.51,1.26h-.16l2.05,1.57.15-.32-3.77.79-3.76.47-3.77-.31-3.61-.63-3.6-1.26-3.3-1.88h.15l-3-2.2-2.67-2.82-.47-.32v-.94l-.16-.47-.16.16,2,.31h2l4.08-.31h2l1.89.16,1.87.47,1.73.94h.63l-2.36-1.26-1.87-.47-1.89-.16h-2l-4.08.32h-2l-2.2-.32.16.63v1.1l.47.47,2.67,2.83,3,2.19h.16l3.3,1.89,3.6,1.25,3.61.63,3.77.31,3.76-.47,4.08-.94L340,226.9l-2.67-1.26-2.51-.94-2.83-.63-6-.94-6-.79.15.32.79-1.1.94-.63h-.16l1.26-.31,1.25-.16,2.83.16h2.35Z"/><path class="cls-8" d="M238.66,264.87l.63,5.18,1,5.33-5.82-.32-5.64-.94-5.49-1.41L218,271.3l-5.5-1.1-5.33-.47-2.82.16-2.82.47-2.83.63-2.83,1.1-5.64-.79-5.49-.94-5.5-1.1-5.64-.78,3.76-2.2,3.77-1.88,3.92-1.73,4.08-1.57,4.23-1.26,4.08-.94,4.4-.78,4.23-.47,4.24-.16h4.24l4.23.47,4.24.63,4.08,1.1L231,261.1l3.93,1.73,3.76,2Zm1.88,12.86.63,2.83.47,2.51v2.51l-.31,1.25-.47,1.57-9.57-4.23-9.73-3.77L211.83,277l-9.73-3.14,2.51-.47,2.67-.16,4.86.32,4.71.94,4.55,1.25,4.71,1.26,4.71,1.1,4.7.31,2.52-.16,2.5-.47Z"/><path class="cls-4" d="M227.21,301.58l-.94,5.34L226,312.1l.32,5.17.78,5.18,1.1,4.87,1.41,4.86,3.14,9.57-.63,1.26-.94,1.72-.94,1.89-1.1,2.35-5.49-1.73-5.81-.94L212,346l-6,.31-6.27,1.1-6.28,1.73-6.59,2.51-6.75,3.13-3-3-2.51-2.67-2.19-2.52-1.73-2.19,7.53-4.39,7.53-4.87,7.07-5.33,3.6-3,3.3-3.15-.16,1.58-.31,1.57-1.11,3.29-1.4,3.3-1.57,3.13,2.35-2.19,2-2.36,2-2.66,1.72-3,1.42-3.13,1.1-3.14.94-3.3.47-3.45,2.2,1.25,2.35.79,2.35.32,2.51-.16-3.6-2.2-3.77-2.51-1.73-1.41L206,307.86l-1.25-1.73-1.1-2,4.08,1.25,4.24,1.26,4.23.94,4.4.15-5.34-2.82-4.86-2.67-4.4-2.67L202,296.87l-3.62-2.82L195,290.91l-2.82-3.61-2.36-4.07,5.18,1.09,5,1.26,4.86,1.72,4.87,1.89,4.55,2.35,4.55,2.82,4.24,3.3,4.08,3.92Z"/><path class="cls-4" d="M227.05,301.74v-.16l-.94,5.34-.31,5.18.31,5.17.78,5.18,1.1,4.87,1.41,4.86,3.15,9.57-.64,1.26-.94,1.72-.94,1.89L228.94,349l.15-.15-5.49-1.73-5.81-.94-5.8-.32-6,.32-6.27,1.09L193.47,349l-6.59,2.51-6.75,3.14h.16l-3-3L174.8,349l-2.19-2.51-1.73-2.2v.32l7.53-4.4,7.53-4.86L193,330l3.61-3,3.29-3.14-.31-.16-.15,1.58-.32,1.57-1.1,3.29-1.41,3.3-1.88,3.76,3-2.66,2-2.36,2-2.67,1.72-3v-.16l1.41-3.13,1.1-3.14.94-3.29.47-3.46-.15.16,2.2,1.25,2.35.79,2.35.31,3-.15-3.92-2.51-3.77-2.52-1.73-1.4-1.57-1.58L204.92,306v.15l-1.09-2-.16.15,4.08,1.25,4.24,1.27,4.23.93,5,.16-6-3.14-4.86-2.67h.16l-4.4-2.67-4.08-2.66-3.61-2.82-3.29-3.14-2.83-3.61L190,283.07l-.16.31,5.18,1.1,5,1.26,4.86,1.72,4.87,1.88,4.55,2.36h-.16l4.55,2.82,4.24,3.3,4.08,3.92.31-.16-4.07-4.07-4.24-3.3-4.55-2.82h-.16L209.79,289l-4.87-1.88-4.86-1.73-5-1.25-5.49-1.1,2.51,4.39,2.82,3.61,3.29,3.14,3.62,2.82,4.08,2.67,4.39,2.67h.16l4.86,2.67,5.34,2.82v-.31l-4.4-.16-4.23-.94-4.24-1.26-4.4-1.25,1.26,2.19v.16l1.26,1.72,1.56,1.58,1.73,1.41,3.77,2.51,3.61,2.2.15-.32-2.51.16-2.35-.32-2.35-.78-2.2-1.25-.63,3.6-.94,3.3-1.1,3.14-1.41,3.13v-.16l-1.72,3-2,2.67-2.05,2.35-2.35,2.2.31.15,1.57-3.13,1.41-3.3,1.11-3.29.31-1.57.15-1.89-3.6,3.3-3.61,3L185.62,335l-7.53,4.87-7.53,4.55,1.73,2.35,2.2,2.51L177,352l3.13,3,6.75-3.13,6.59-2.52,6.28-1.72,6.27-1.1,6-.31,5.8.31,5.81.94,5.49,1.73,1.25-2.52.95-1.88.94-1.72.62-1.26-3.13-9.57-1.41-4.86-1.1-4.87-.79-5.18-.31-5.17.31-5.18.94-5.34-.31.16Z"/><path class="cls-7" d="M236.93,311.31l-.78,3.29-.47,3.3-.47,6.75.31,6.59.79,6.28-.63.78-.62.79-2.67-8.48-2.2-8.63-.79-4.39-.31-4.55.15-4.4.64-4.54,2,1.56,1.73,1.89,3.29,3.76Z"/><path class="cls-7" d="M236.77,311.47v-.16L236,314.6l-.48,3.3-.46,6.75.31,6.59.78,6.28v-.16l-1.25,1.57.31.16-2.67-8.48-2.2-8.63-.78-4.39-.32-4.55.16-4.4.63-4.54-.31.15,2,1.57,1.74,1.88,3.28,3.77.32-.16-3.29-3.92-1.73-1.89-2.19-1.56-.79,4.7-.15,4.4.3,4.55L230,322l2.2,8.63,2.83,8.79,1.4-1.88-.78-6.28-.31-6.59.47-6.75.47-3.3.78-3.29-.32.16Zm-42.2,11-2.83,2.67-3,2.67-6.59,4.7-7.07,4.24-7.06,4.08-3.76-4.39-3.45-4.71-1.73-2.2-1.57-1.88-1.42-1.57-1.09-.94,8.16-3.77,8.47-3.6,4.08-1.58,4.08-1.25,3.93-1.1,3.6-.78.94.16.94.62,1.11,1.1.94,1.25,1.72,3.15,1.57,3.13Z"/><path class="cls-7" d="M194.41,322.45v-.15L191.59,325l-3,2.67L182,332.34,175,336.58l-7,4.07h.31l-3.76-4.39L161,331.55l-1.72-2.19-1.57-1.88-1.42-1.58-1.09-.94-.16.32,8.16-3.77,8.47-3.61,4.08-1.57,4.08-1.25,3.93-1.1,3.6-.78.94.15h-.16l.94.63,1.11,1.1.94,1.25v-.16l1.73,3.15,1.56,3.13h.32l-1.58-3.13-1.72-3.15V316l-.94-1.26-1.1-1.1-1.1-.62-.94-.16-3.6.78-3.93,1.1L175.74,316l-4.08,1.57-8.47,3.61-8.32,3.92,1.1,1.09,1.41,1.58,1.57,1.88,1.73,2.2,3.45,4.7,3.92,4.4,7.22-4.08,7.06-4.24,6.59-4.71,3-2.66,2.83-2.83Zm13.5,66.06,2,4.4,1.89,4.55,3,9.1,2.2,9.1,1.72,8.79.47,2.35.48,2.51,1.1,6,2.82,12.55,1.41,5.81.79,2.51.62,2.2.79,1.88.62,1.41.63.94.63.48h1.1l1.1-.64,1.25-.93,1.41-1.42,1.26-1.88,1.41-2.2,1.26-2.51,1.25-2.67,1.11-3,1.09-3.29,1.56-6.75.48-3.61.16-3.61v-3.45l-.32-3.61,1.73,3.14,1.73,2.83,1.56,2.66,1.41,2.51,2.83,4.55,2.35,4.08,4.4,7.53,2,3.77,1.89,3.92-2,4.24L258.74,467l-2.82,4.23-3.13,3.92-3.3,3.78-3.61,3.76L242.11,486l-3.76,3.14-3.93,2.82-3.92,2.52-3.77,2L223,498l-3.61,1.27-3.3.62-3.13.16-2.67-.47,5-6.13,2.35-3.29,2.21-3.45,1.87-3.61,1.26-3.61.78-3.76.16-3.93-1.1,2.83-1.57,2.82-3.45,6-4.08,6-4.39,5.34-2.2,2.51-2.2,2.2-2,1.88-2,1.41-1.87,1.1-1.73.78-1.42.16-1.25-.31v.15l-.78-.78-.48-1.41-.16-1.73v-2l.64-4.54,1.09-4.24,1.73-4.4,1.88-5,1.89-5.64L202,469l1.25-6,.94-6,.16-5.8-.31-2.83-.32-2.67-3.45,14.12-1.73,6.91-1.88,6.91-2.35,6.58-2.83,6.44L188,492.86l-2,3-2.19,2.82-3-4.7-2.82-4.71-5-10.35-4.71-10.67-3.92-11.15-3.45-11.14L158,434.8,155.81,424l-1.56-10.35-.16,3.61v3.92l.31,4.39.47,4.55,1.25,9.73,1.58,9.42.93,4.55.79,4.24.31,1.87.32,1.89.63,3.29.47,2.83.15,2,.16,1.41-.16.31-.15.16-.31-.16-.48-.31-.63-.47-.62-.78-.63-.95-.78-1.25-.79-1.41-.94-1.73-1.88-3.92-2-4.71-2.2-5.49-2.2-6.28-2.19-7.22-2.2-7.68-1.88-8.63-1.89-9.26-1.72-9.88-1.41-10.52L135.26,380l-.63-11.77-.32.94-.3,1.42-.16,1.72-.32,2-.16,4.71-.15,5.33.15,11,.32,5,.16,2.2.16,1.88v.63l-.32.78-.47.79-.79.46h-.63l-.62-.31-.63-.79-.78-1.25-.79-1.57-.78-2.2-.79-2.66-.63-3.14-.78-3.77-.63-4.39-.78-5-.47-5.81-.63-6.27-.31-7.22-.48-7.85-.15-8.63-1.1,2.83-.63,2.67-.78,5.64-.47,6-.16,3.29-.47,3.45-1.88,3.93-.94,1.72-1,1.42-.78,1.09-.78.79-.79.47-.63.16-.63-.32-.47-.94-.31-1.57V370l.31-3.14.47-3.14,1.26-7.06,1.57-7.38,2.19-7.21,1.26-3.45,1.41-3.15-1.73,2.67-1.87,2.51-4.56,5-5,4.86-5.34,4.71L90.07,365l-4.71,5.34L83.16,373l-2,2.82-1.58-2.2-1.25-2.35-1.1-2.51-.63-2.66-.94-5.18-.16-5,2.2-2.67,1.1-1.4.94-1.89-1.41.78-1.57,1.11L75,353.2l-1.73,1.57-3.61,3.46L65.75,362l-.32-2.82-.31-2.35,1.41-1.26L68.26,354l2.19-1.88,2.67-2L76,348l3.13-2.35L86,341l7.53-4.71,7.69-4.55,7.69-3.92,3.6-1.57,3.62-1.41,5.17-1.73,5.18-1.1,5.18-.47,4.86.32,4.87.94,4.55,1.72,4.24,2.51,4.08,3.3,1.56,1.57.95,1.25,1.25,1.26,2.67,3.29,3.13,3.92,3.46,4.4,3.76,4.7,3.92,5,4.24,5,8.32,9.89,4.08,4.55,3.92,4.07,3.61,3.45,3.29,2.83,1.58,1.1,1.41.94,1.41.63,1.1.31Z"/><path class="cls-7" d="M207.91,388.67l-.16-.16,2,4.4,1.88,4.55,3,9.1,2.19,9.1,1.72,8.79.48,2.35.47,2.51,1.1,6,2.82,12.55,1.41,5.81.79,2.51.63,2.2.78,1.88.62,1.41v.16l.64.94.78.48h1.1l1.1-.64h.16l1.25-.94,1.41-1.41,1.26-1.88,1.4-2.2V456l1.26-2.51,1.26-2.67,1.1-3,1.1-3.29,1.56-6.75.48-3.61.15-3.61v-3.45l-.31-3.61h-.32l1.73,3.14v.16l1.73,2.82,1.56,2.67v-.16l1.42,2.51v.16l2.82,4.55,2.35,4.08,4.4,7.53v-.16l2,3.77,1.88,3.92-2,4.24L258.59,467v-.16l-2.82,4.24L252.63,475l-3.29,3.77-3.62,3.76L242,485.8l-3.76,3.13-3.93,2.83-3.92,2.51h.16l-3.77,2L223,497.88l-3.61,1.26-3.3.62-3.13.16-2.67-.47.16.31,5-6.12,2.35-3.29,2.2-3.46v-.15l1.88-3.61,1.26-3.61.78-3.76.16-4.87-1.42,3.77-1.56,2.82v-.16l-3.46,6-4.08,6-4.39,5.33-2.2,2.51-2.19,2.21-2,1.87-2,1.42-1.88,1.09H199l-1.73.79-1.42.15-1.41-.3v.3l.32-.15-.78-.79v.16l-.48-1.41-.16-1.73v-2l.64-4.54,1.09-4.24,1.73-4.4,1.88-5,1.88-5.64L202.1,469l1.25-6,1-6,.15-5.8-.31-2.83-.47-3.45-3.61,14.9-1.73,6.91-1.88,6.91-2.35,6.58-2.82,6.44-3.46,6.12v-.16l-2,3-2.19,2.82h.31l-3-4.7-2.83-4.71v.16l-5-10.35-4.71-10.67-3.91-11.15L161,445.94l-2.82-11.14L156,424l-1.88-11.92-.16,5.18v3.92l.32,4.39.46,4.55,1.26,9.73,1.57,9.42.94,4.55.79,4.24.62,3.76.63,3.29.47,2.83.16,2,.15,1.41-.15.31v-.15l-.16.15h.16l-.31-.15H161l-.47-.32-.63-.46-.62-.79-.64-.94-.78-1.26v.16l-.79-1.41-.94-1.73-1.87-3.92-2.05-4.71L150,450.65l-2.2-6.28-2.2-7.22-2.19-7.68-1.89-8.63-1.88-9.26-1.73-9.88-1.41-10.52L135.41,380l-.62-12.56-.63,1.73-.31,1.42-.16,1.72-.32,2-.15,4.71-.16,5.33.16,11,.31,5,.16,2.2.16,1.88v.63l-.32.78v-.16l-.47.79-.78.47h-.48l-.62-.31h.16l-.63-.79-.79-1.25v.15l-.78-1.57-.79-2.2-.79-2.66-.62-3.14-.78-3.77-.63-4.39-.78-5-.48-5.81-.62-6.27-.32-7.22-.47-7.85-.16-9.41-1.41,3.61-.62,2.67-.79,5.64-.47,6-.16,3.29-.47,3.45-1.88,3.93L116,375.8v-.15l-.95,1.41-.78,1.1-.78.78-.79.47h.16l-.63.16-.63-.32.16.16-.47-.94-.31-1.57V370l.31-3.14.47-3.14,1.26-7.06,1.57-7.38,2.19-7.21,1.26-3.45,1.41-3.15-.32-.15L117.37,338l-1.88,2.52-4.55,5-5,4.87-5.33,4.7-10.67,9.73-4.71,5.33L83,372.82l-2,2.83h.31l-1.57-2.2v.15l-1.25-2.35-1.1-2.51-.63-2.66-.94-5.18-.16-5V356l2.2-2.67,1.1-1.41L80,349.6l-1.72.94h-.16l-1.57,1.1-1.72,1.41-1.73,1.57-3.61,3.45-3.92,3.77,4.24-3.46,3.61-3.45,1.72-1.57L76.89,352l1.57-1.1H78.3l1.41-.78-.16-.16-.93,1.89v-.16l-1.1,1.41-2.2,2.82.15,5,.94,5.18.63,2.66,1.1,2.51,1.26,2.35v.16l1.73,2.2,2.19-2.82,2.19-2.67,4.72-5.34,10.66-9.72,5.34-4.72,5-4.86,4.55-5,1.88-2.51,1.73-2.67-.32-.16-1.41,3.15-1.25,3.45-2.2,7.22-1.57,7.37-1.25,7.06-.47,3.14-.31,3.14v6.9l.31,1.57.47,1.1.78.32.63-.16.94-.48.79-.78.78-1.09.94-1.42v-.16l.94-1.72,1.88-3.93.48-3.45.16-3.29.46-6,.79-5.64.63-2.67,1.09-2.83h-.31l.16,8.63.47,7.85.31,7.22.63,6.27.47,5.81.78,5,.63,4.39.79,3.77.63,3.14.78,2.66.79,2.2.78,1.57V405l.78,1.25.63.79.78.31h.63l.94-.47.48-.79v-.15l.31-.78v-.63l-.15-1.88-.16-2.2-.32-5-.16-11,.16-5.33.16-4.71.32-2,.15-1.72.31-1.42.32-.94h-.32L135.1,380l1.1,11.14,1.41,10.52,1.72,9.88,1.89,9.26,1.88,8.63,2.2,7.68,2.2,7.22,2.19,6.28,2.2,5.49,2,4.71,1.88,3.92.95,1.73.78,1.41v.16l.78,1.25.63.94.62.79.64.47.47.31h.16l.31.16.31-.16.16-.47-.16-1.41-.16-2-.46-2.83-.63-3.29-.64-3.76-.78-4.24-.94-4.55-1.57-9.42L155,430.09l-.47-4.55-.31-4.39v-3.92l.15-3.61h-.31L155.66,424l2.19,10.83,2.83,11.14,3.45,11.14,3.92,11.15,4.71,10.67,5,10.35v.15l2.82,4.72,3.15,4.7L186.1,496l2-3v-.16l3.46-6.12,2.82-6.44,2.36-6.58,1.88-6.91,1.73-6.91,3.45-14.12h-.32l.32,2.67.31,2.83-.15,5.8-1,6-1.25,6-1.57,5.81-1.89,5.64-1.88,5-1.72,4.4-1.1,4.24-.63,4.54v2l.15,1.73.48,1.57,1.1.94v-.47l-.16.15,1.25.32,1.42-.16L199,504h.15l1.88-1.1,2-1.41,2-1.88,2.2-2.2,2.2-2.51,4.39-5.34,4.08-6,3.45-6v-.15l1.57-2.82,1.1-2.83h-.32l-.15,3.93-.79,3.76-1.25,3.61-1.88,3.61v-.16l-2.2,3.46-2.36,3.29-5,6.28,2.83.62,3.13-.15,3.3-.63,3.61-1.26,3.76-1.56,3.77-2.05h.16l3.92-2.51,3.93-2.82,3.76-3.14,3.77-3.3,3.6-3.76,3.3-3.77,3.14-3.92,2.82-4.23V467l2.35-4.24,2-4.24-1.88-3.92-2-3.77v-.15l-4.4-7.53L252.63,439l-2.83-4.54v.15l-1.41-2.51V432l-1.57-2.67-1.72-2.83v.16l-2-3.77.32,4.24v3.45l-.16,3.62-.47,3.6-1.57,6.75-1.09,3.29-1.1,3-1.26,2.67L236.46,456v-.15l-1.4,2.2-1.26,1.87-1.41,1.42-1.26.94h.16l-1.1.63h-.95l-.62-.48-.63-.93v.15l-.63-1.41-.78-1.88-.63-2.2-.79-2.51-1.4-5.81-2.83-12.55-1.09-6-.48-2.51-.47-2.35-1.72-8.79-2.2-9.1-3-9.1-1.89-4.55-2-4.55-.16.31Z"/><path class="cls-7" d="M65.59,361.84l.32.15-.32-2.82-.32-2.35V357l1.42-1.27,1.73-1.56,2.19-1.89,2.67-2,2.82-2,3.14-2.36,6.91-4.7,7.53-4.71,7.68-4.55h-.15l7.69-3.93,3.6-1.57,3.62-1.41,5.17-1.72,5.18-1.1,5.18-.47,4.86.31,4.87.94,4.55,1.73h-.16l4.24,2.51,4.08,3.29,1.57,1.57.94,1.26,1.25,1.26,2.67,3.29,3.14,3.92,3.45,4.4,3.77,4.7,3.92,5,4.24,5,8.31,9.88,4.08,4.55,3.92,4.08,3.62,3.45,3.29,2.83,1.57,1.09,1.41,1h.16l1.41.63,1.1.31.16-.31-1.26-.32-1.41-.62h.16l-1.42-.94-1.57-1.11-3.29-2.82-3.62-3.45L191.74,375l-4.07-4.55-8.32-9.89-4.24-5-3.92-5-3.77-4.71L164,341.44l-3.13-3.92-2.67-3.3L156.91,333l-.94-1.25-1.57-1.56-4.08-3.3-4.24-2.51h-.15l-4.55-1.73-4.87-.94-4.86-.32-5.18.48-5.18,1.09-5.17,1.73-3.62,1.41-3.6,1.57-7.69,3.92h-.16l-7.69,4.56-7.53,4.7-6.91,4.71-3.13,2.36-2.83,2-2.67,2-2.19,1.89-1.73,1.57L65,356.82l.31,2.35.32,3.13,4.24-3.92-4.24,3.46Zm179.19-23.7,3.77,4.4,3.44,4.55,2.83,4.71,1.1,2.51.94,2.51-5.8-2.05-6.28-2L238.35,351l-6-1.41,2-3.93,2.83-3.45,1.73-1.57,1.72-1.25,2-.78,2-.48Z"/><path class="cls-7" d="M244.78,338.3h-.16l3.77,4.4,3.45,4.54,2.82,4.71v-.15l1.11,2.51.94,2.51.15-.16-5.8-2-6.28-2-6.43-1.73-6-1.41.16.16,2-3.93v.16l2.83-3.45,1.72-1.57,1.73-1.25h-.16l2-.79,2-.47V338l-2,.48-2,.78-1.88,1.25-1.73,1.58-2.83,3.45-2,4.08,6.12,1.57,6.43,1.72,6.28,2,6,2.05-.94-2.67L255,351.8v-.16l-2.83-4.71-3.45-4.55-3.92-4.4v.32Zm40.33,39.39-.95.31-1.25.63-2.51,1.56-2.51,1.89L277,383l-.78.94-3.78-3.61-4.07-3-4.4-2.52-2.19-.78-2.2-.63,6.28,6,3,3.14,3.14,3-1.26.32-1.25.63-3.15,1.4-2.82,1.89-1.1,1.1-.78.93-1.88-.93L258,389.45l-2.66-3.76-1.42-1.88-1.57-1.73-1.72-1.25-2.2-.8,1.57,3.15,1.88,3,1.88,3,1.58,3.3-4.09.15-4.08.79-3.92,1.25L239.92,396l-2-4.39-2-4.39-2.51-4.08-1.42-2-1.72-1.73.63,2,.47,2,1.1,3.77,2,7.05-1.87-.46-2.21-.16-2.51.31-2.67.47-5.48,1.42-2.36.94-2.2.79L214,395l-1.1-2.83-1.1-3-1.25-2.82-3-5.65L206,378.16l-1.72-2.36.31,1.89.47,2,.32,2.19.16,1.73-6.28-5.81-5.81-6.43-5.65-6.75-5-6.9,3.61-1.89,3.77-1.56,3.77-1.26,3.76-.94,3.92-.63,3.93-.47,8-.16,8,.63,8,1.41,7.69,1.88,7.53,2.36L252,360l6.75,2.83,6.28,3,5.49,3,5,2.83,2.2,1.25,1.89,1.26,1.72,1.09,1.57.95,1.25.94.95.63Z"/><path class="cls-7" d="M285,377.84l.16-.31-.95.31-1.25.63h-.15L280.24,380l-2.51,1.89-.94.94-.78.95h.31l-3.77-3.62-4.07-3h-.16l-4.4-2.51-2.19-.79-2.67-.78,6.59,6.43,3,3.13,3.14,3,.16-.32-1.26.32-1.25.63-3.15,1.41h-.15l-2.82,1.88-1.1,1.1-.79.94h.16l-1.88-.94h.15l-1.72-1.42-2.67-3.76L254,383.65l-1.57-1.73-1.88-1.25-2.36-.78,1.57,3.29v.16l3.77,6v-.15l1.57,3.3.16-.16-4.09.16-4.08.78-3.92,1.25-3.29,1.42.16.15L236,387.26v-.16L233.49,383l-1.42-2-2.19-2,.78,2.51.47,2,1.1,3.77,2,7.05.16-.15-1.87-.47-2.21-.16-2.51.32-2.67.46-5.48,1.42-2.35.94-2.21.79.16.16-1.1-2.67-1.09-2.83-1.1-3-1.26-2.82-3-5.65v-.16L206.18,378,204,375.18l.46,2.51.47,2,.32,2.19.16,1.73.31-.16-6.27-5.8-5.81-6.44L188,364.5l-5-6.9-.16.32,3.61-1.89,3.77-1.57L194,353.2l3.76-.94,3.92-.62,3.93-.47,8-.16,8,.63,8,1.41,7.69,1.88,7.53,2.36,7.21,2.82,6.75,2.83,6.28,3,5.49,3,5,2.82,2.2,1.26h-.15l1.88,1.25,1.72,1.1,1.58.94,1.25,1,.94.62.47-.15-1.1-.79-1.25-.94-1.58-.94-1.72-1.1-1.88-1.26h-.16l-2.2-1.25-5-2.82-5.49-3-6.28-3L252,359.79,244.78,357l-7.53-2.36-7.69-1.88-8-1.41-8-.64-8,.16-3.93.48-3.92.62-3.76.94-3.77,1.26-3.77,1.56-3.76,2.05,5,7.06,5.64,6.75,5.81,6.43,6.59,6-.15-2-.32-2.19-.47-2-.32-1.89-.31.16,1.73,2.35,1.56,2.52v-.16l3,5.65,1.25,2.82,1.1,3,1.1,2.83,1.25,2.82,2.21-.79,2.35-.94,5.48-1.41,2.67-.47,2.51-.31,2.21.15,2,.47-2-7.21-1.1-3.77-.48-2-.63-2-.31.16,1.72,1.73,1.42,2,2.51,4.08v-.16l4.24,8.94,3.29-1.41,3.93-1.26,4.07-.78,4.24-.16-1.57-3.45V389l-3.76-6v.16L248.55,380l-.16.16,2.2.79h-.16l1.72,1.26,1.57,1.72,1.42,1.89,2.67,3.76,1.72,1.41,2,.94,2-2,2.82-1.89h-.16l3.15-1.41,1.25-.63,1.57-.31-3.3-3.3-3-3.14-6.27-6-.16.31,2.2.63,2.19.79,4.4,2.51h-.16l4.08,3,3.93,3.61,1.87-1.88,2.51-1.89,2.52-1.57h-.16l1.25-.62,1.26-.47-.47.15Zm-175.11,7.69,1.25.16,1.41-.48,1.42-1.25,1.41-1.57,2.51-3.76.78-1.89.63-1.57.32,5.5.62,6,.79,6,1.26,5.81,1.56,5.33,1,2.35,1.09,2.05,1.26,1.72,1.41,1.25,1.57,1.1,1.72.48.94-.16.63-.47.64-.63.3-.63,1.58,8.48,1.88,8.47,2,8.16,2.35,8.16-6.27,9.57-6.6,9.58-3.45,4.54-3.92,4.4-4.08,3.92-4.7,3.61,3.13-11.3,2.82-11.61,1.1-6,.63-5.8.31-5.81-.15-5.64-2.2,11.13-2.66,10.83-1.42,5.18-1.56,5-1.58,4.54-1.57,4.4-1.57,4.08-1.4,3.61-1.42,3.13-1.25,2.67-1.11,2.2-.93,1.72-.79.95-.47.46-.78-.31-.63-.94-.94-1.57-.78-2.35-.79-2.83-.94-3.29-.78-3.77-.64-4.24L94,469.64l-.63-4.87-.47-5.18-.31-5.33-.32-11.15.32-11.45-1,3.14-.78,3.61-.62,3.76-.32,4.24-.47,8.47v8.48l.16,3.92V471l.15,3.46v5.33l-.15,1.88-.32,1.1-.31.48-.63-.16-.78-.79-.63-1.09-.78-1.57-.64-1.89-.78-2-1.25-5-1.26-5.65-.94-6-.79-5.65L80,448.29l-.47-5.49-.15-5.49.15-5.33L80,426.8l1-10.2.78-10.52-1.1,1.42-.78,1.57-1.25,3.45-.32,1.88-.47,2.2L77.36,419l-.47,2.83-3.45,3.76-3.15,4.08-3,4.24L65,437.93l-2,3.46-.79,1.41-.78,1.26-.47.78-.47.63-.16.15-.15-.3.15-6.45.79-6.43L62.29,426,64,419.58l2.35-6.43L69,406.87l3-6.28,3.45-6.12,3.61-6.11L83,382.54l4.24-5.8,4.39-5.49,4.56-5.33,4.7-5,4.71-4.7,4.87-4.55-1.42,4.55L108,361.37l-.79,5.33-.47,5.18.16,4.71.16,2.19.31,1.89.47,1.72.47,1.41.78,1.1.79.63Z"/><path class="cls-7" d="M109.84,385.69l1.25.16,1.57-.48,1.41-1.25,1.42-1.57,2.51-3.92.78-1.89.63-1.57h-.32l.32,5.5.63,6,.78,6,1.26,5.81,1.56,5.33,1,2.35,1.1,2.05v.15l1.25,1.73,1.41,1.25,1.73,1.1,1.72.47.94-.15.79-.48.63-.62.31-.78h-.31l1.57,8.47,1.88,8.47,2,8.16,2.35,8.16v-.16l-6.27,9.57-6.59,9.58-3.45,4.54-3.93,4.4-4.08,3.92-4.7,3.61.31.16,3.14-11.3,2.82-11.61,1.1-6L121,445l.31-5.81-.16-6.9-2.51,12.39L116,455.52l-1.41,5.18-1.57,5-1.57,4.54-1.57,4.4-1.57,4.08-1.41,3.61-1.41,3.13-1.26,2.67-1.1,2.2-.94,1.72v-.16l-.79.95-.47.47h.16l-.78-.31h.15l-.63-.95-.94-1.57v.16l-.79-2.35-.78-2.83-.94-3.29-.78-3.77-.63-4.24-.79-4.54-.62-4.87-.47-5.18-.31-5.33-.32-11.14.32-12.56-1.26,4.24-.79,3.61-.62,3.76-.32,4.24-.47,8.47v8.48l.16,3.92V471l.16,3.46v5.33l-.16,1.88-.32,1.1v-.15l-.31.47H89l-.63-.16h.16l-.79-.78v.16l-.62-1.1-.79-1.57-.63-1.89-.78-2-1.25-5-1.26-5.65-.94-6-.79-5.65-.47-5.18-.47-5.48-.16-5.5.16-5.33.47-5.18.95-10.2.78-11-1.42,1.73-.78,1.73-1.25,3.45-.32,1.88-.47,2.2L77.2,419l-.47,2.83v-.16l-3.45,3.76-3.14,4.09-3,4.24-2.36,4.07-2,3.45v.16L62,442.81v-.16l-.79,1.25-.46.78-.48.64-.15.15.31.15-.16-.3.16-6.44.78-6.44L62.45,426l1.73-6.43,2.35-6.43,2.67-6.28,3-6.28,3.45-6.12v.16l3.61-6.12,3.92-5.81,4.24-5.8,4.39-5.49,4.55-5.34,4.71-5,4.71-4.7,4.87-4.56-.32-.15-1.41,4.55-1.1,5.18L107,366.7l-.48,5.18.16,4.71.16,2.19.31,1.89.47,1.72.48,1.42.78,1.25.94.63.15-.32-.78-.62-.78-1.1v.16l-.47-1.42-.48-1.72-.31-1.89-.15-2.19-.16-4.71.47-5.18.79-5.33,1.09-5.18,1.57-5L105.45,356l-4.72,4.71-4.7,5-4.55,5.33-4.39,5.5-4.24,5.8-3.92,5.81-3.61,6.11v.16l-3.45,6.12-3,6.28-2.66,6.28-2.36,6.43L62.13,426l-1.25,6.43-.78,6.44-.16,6.44.31.46.32-.16L61,445l.47-.79.78-1.25v-.15l.79-1.42v.15l2-3.45L67.47,434l3-4.24,3.14-4.08L77,421.78l.48-2.83L78,416.6l.48-2.2.31-1.88L80,409.07l.79-1.57v.16l1.1-1.42-.32-.16-.78,10.52-.94,10.2L79.4,432l-.16,5.33.16,5.49.47,5.49.47,5.18.79,5.65.93,6,1.26,5.65,1.25,5,.79,2,.63,1.89.78,1.57.63,1.25.94.79.63.15.47-.63.31-1.1.16-1.88V474.5L89.75,471v-3.76l-.15-3.92v-8.48l.47-8.47.31-4.24.63-3.76.78-3.61.95-3.14h-.32l-.31,11.46.31,11.14.32,5.33.47,5.18.62,4.87.79,4.54.63,4.24.78,3.77.94,3.29.79,2.83.78,2.35.94,1.73.63.94.94.31.63-.47.78-.94.94-1.88,1.11-2.2,1.25-2.67,1.41-3.13,1.41-3.61,1.57-4.08,1.57-4.4,1.57-4.54,1.57-5,1.41-5.18,2.67-10.83,2.19-11.13h-.31l.16,5.64-.31,5.81-.63,5.8-1.1,6-2.82,11.61L112.82,480l5.18-3.76,4.08-3.92,3.92-4.4,3.45-4.55,6.59-9.57,6.28-9.73L140,435.9l-2-8.16L136,419.27l-1.73-8.95-.46,1.1v-.16l-.63.63-.63.47h.16l-.95.16-1.72-.48h.15L128.67,411l-1.41-1.26L126,408v.16l-1.09-2.05-1-2.35-1.56-5.33-1.27-5.81-.78-6-.62-6-.32-6.12-.94,2.19-.79,1.89v-.16l-2.51,3.76-1.41,1.58-1.41,1.25h.15l-1.41.47-1.25-.16H110l-.15.32Z"/><path class="cls-8" d="M79.4,378.31,77.83,381l-2,2.67-1.89-2-1.41-2.2-1.26-2.51-.94-2.51-.93-5.18L69,364.35l.94-1.73.94-1.41,1.57-2.51.32,3.45.47,3.14.78,3,.79,2.66,1.1,2.36,1.09,2,1.1,1.73,1.26,1.25Zm-16-13.65-.78.94-1.1,1.1-2,2.83-.79-1.1-.47-1.1-.62-3,2.66-3,2.51-2.67.32,3.14.16,1.57.15,1.25Z"/><path class="cls-2" d="M57.27,371.57l-3.45,5.65L50.68,383l-2.82,6-2.35,6.27-2,6.44-1.41,6.74-.94,6.75-.31,7.06-1.57,1.88-1.73,2-3.3,4.71-1.57,1.88-1.4,1.57-1.1.94-.31.15-.32-.15h-.16L29,434.8l-.16-.63-.16-.94v-1.1l.32-3,.63-3.61.94-4.24,1.25-4.7,1.41-5.18,1.88-5.34L37,400.43l2.2-5.64,2.5-5.65,2.52-5.33,2.82-5.18,2.83-4.71,3-4.39,3-3.61v1.56l.31,1.58.48,1.25.62,1.26Z"/><path class="cls-2" d="M57.12,371.57v-.16l-3.46,5.65v.16L50.52,383l-2.82,6-2.35,6.27-2,6.44-1.42,6.74L41,415.19l-.31,7.06v-.16L39.07,424l-1.72,2-3.3,4.7-1.57,1.88-1.41,1.57-1.1.94h.16l-.31.16-.32-.16h0l-.32-.47v.16l-.15-.63-.16-.94v-1.1l.31-3,.64-3.61.93-4.24L32,416.6l1.41-5.18,1.88-5.34,1.89-5.65,2.19-5.64,2.51-5.65,2.51-5.33,2.83-5.18v.15l2.83-4.7,3-4.4,3-3.6-.31-.16v1.56l.31,1.58.48,1.25.63,1.26h.31l-.62-1.26-.48-1.25L56,367.48V365.6l-3.29,3.77-3,4.39-2.83,4.71v.16l-2.82,5.18-2.51,5.33-2.51,5.65-2.2,5.64L35,406.08l-1.88,5.34-1.42,5.18-1.25,4.7-.94,4.24-.63,3.61-.31,3v1.1l.15.94.16.63.47.62h.16l.32.16.46-.16,1.1-.93,1.41-1.58L34.36,431l3.3-4.71,1.72-2,1.57-2,.32-7.06.94-6.75,1.41-6.74,2-6.44L48,389l2.82-6,3.14-5.8v.16l3.45-5.81ZM73.9,387.26l-1.41,3-1.72,3.29-1.89,3.61L67,401.06l-8.47,16.32-2,3.92-1.89,3.78-1.88,3.29L51,431.51,49.42,434l-1.25,1.88-.94,1.41-.78.63-.63-.16-.63-.78-.31-1.26-.32-1.88v-4.55l.48-5.18h.15L46,417.7l.94-6.9,1.42-7.23,1.88-7.21L52.72,389l3.45-7.38,2-3.77,2.36-3.45,2.51-3.61,3-3.45.94,5.33L68.42,378l.78,2.51,1.25,2.35L72,385.22l1.88,2Z"/><path class="cls-2" d="M73.74,387.42v-.16l-1.4,3-1.73,3.29-1.89,3.61-1.87,3.92-8.48,16.32-2,3.92-1.88,3.78-1.88,3.29-1.73,3.14v-.16l-1.57,2.51-2.2,3.29-.78.63h.16l-.63-.15H46l-.62-.79V437L45,435.74l-.32-1.88v-4.55l.47-5.18-.15.16h.31l.78-6.59.94-6.9,1.41-7.23,1.89-7.21L52.88,389l3.45-7.38,2-3.77V378l2.36-3.45,2.51-3.62,3-3.45-.31-.15.94,5.33L68.26,378l.78,2.51,1.25,2.35V383l1.58,2.35,1.87,2.05.32-.16-1.88-2.2-1.57-2.36v.16l-1.25-2.35L68.57,378l-1.41-5.34L66.22,367l-3.3,3.61-2.51,3.6-2.35,3.46v.15L56,381.61,52.57,389l-2.51,7.37-1.89,7.21-1.41,7.23-.94,6.9L45,424.13l.15-.16h-.31l-.48,5.34v4.55l.32,1.88L45,437l.62.94.79.15.94-.62,2.19-3.3,1.57-2.51v-.15l1.73-3.14,1.88-3.3,1.89-3.77,2-3.92,8.48-16.32L69,397.14l1.88-3.61,1.73-3.29,1.41-3-.32.16Z"/><path class="cls-8" d="M291.54,382.86l-1.1.16-1.25.63-2.67,1.88-2.2,2-.94,1.1-.62.78-1.11-.62-.78-.47-1.25-.79-.78-.63v-.78l1.4-1.73,2-1.73,2.2-1.4L287,380l.79.16,1.1.48,1.25.78,1.41,1.41Z"/><path class="cls-2" d="M293.9,385.53l2.66,3,2.82,3.14,5.81,7.22,5.8,7.53,5.5,7.53,2.35,3.45,2.36,3.3,1.88,3,1.73,2.67,1.25,2.35.94,1.72.48,1.26v.63H327l-.62-.31-1.11-.63-1.25-1L322.61,429l-1.72-1.41L317,424.13l-4.24-3.77-4.54-3.6-4.56-3.14-2.19-1.26-2.05-.94-1.4-2.51-1.73-2.51-3.77-4.55-3.92-4.71-3.45-4.7,1.56-2.36,2.05-2.2,2.35-1.56,1.41-.47,1.42-.32Z"/><path class="cls-2" d="M293.9,385.69h-.16l2.67,3,2.82,3.13L305,399l5.81,7.53,5.49,7.53,2.36,3.45,2.35,3.3,1.88,3,1.73,2.67v-.15l1.26,2.35.93,1.72.48,1.26v.63l.16-.16H327l-.62-.31-1.11-.62h.16l-1.25-.95-1.42-1.41L321,427.43,317.12,424l-4.24-3.76-4.55-3.61-4.55-3.14h-.16l-2.19-1.26-2.05-.94.16.16-1.41-2.51v-.16l-1.72-2.51-3.77-4.54L288.72,397l-3.45-4.7v.31l1.56-2.35,2.05-2.2,2.35-1.56h-.16l1.41-.48,1.42-.31v-.32l-1.42.32-1.41.47-2.51,1.57-2,2.2L285,392.44l3.45,4.86,3.92,4.71,3.77,4.55,1.73,2.51v-.16l1.41,2.67,2.2.94,2.19,1.25h-.15l4.55,3.15,4.55,3.6,4.23,3.77,3.93,3.45,1.72,1.41,1.42,1.41,1.25.95h.15l1.11.62.62.32h.63v-.79l-.47-1.26-.94-1.72L325,426.33v-.16l-1.72-2.67-1.89-3L319,417.23l-2.35-3.46-5.5-7.53-5.8-7.53-5.81-7.22-2.82-3.13-2.82-3v.32Z"/><path class="cls-8" d="M276.48,389.77l-1.26.47-1.56.94-3.46,2.35-3.45,2.67-1.41,1.26-.94,1.09-1.1-.78-.79-1.25-.31-1.26.31-1.26,1.89-1.72,2.67-1.73L270.2,389l3.77-1.42,1.41.94,1.1,1.26Z"/><path class="cls-2" d="M279.14,392.44l4.4,5,4.08,5.33,3.77,5.34,3.29,5.33L297.5,419l2.67,5.34,2.2,5.18,1.88,4.86,1.57,4.55,1.41,4.24.95,3.76.62,3.3.47,2.51.16,2-.16,1.1-.15.31H309l-1.42-.62-1.87-1.26-2.2-2-2.83-2.36-3-3-3.14-3.29L291.07,440l-3.45-3.92-6.91-8.48L277.42,423l-3-4.4-2.67-4.38-2.35-4.4-1.89-4.08-1.41-3.92,1.1-1.42,1.41-1.56,2.82-3.14,1.73-1.26,1.73-1.09,2-.63,2.19-.31Z"/><path class="cls-2" d="M279.14,392.59H279l4.39,5,4.08,5.33,3.77,5.33,3.29,5.34v-.16l2.82,5.49,2.67,5.34,2.2,5.18,1.89,4.86,1.57,4.55,1.4,4.24.95,3.76.62,3.3.48,2.51.15,2-.15,1.1-.16.31.16-.16H309l-1.42-.62h.16l-1.88-1.26-2.2-2-2.82-2.36-3-3-3.14-3.3-3.45-3.61-3.45-3.92-6.91-8.47-3.3-4.56-3-4.39-2.67-4.39v.16l-2.35-4.4-1.89-4.08-1.42-3.92V402l1.11-1.42,4.23-4.7,1.73-1.26,1.72-1.1h-.15l2-.62,2.19-.32v-.31l-2.19.31-2,.63L273,394.31l-1.72,1.27-4.23,4.7L266,401.85l1.42,3.92,1.88,4.08,2.35,4.4v.15l2.67,4.39,3,4.4,3.29,4.55,6.91,8.48,3.45,3.92,3.46,3.61L297.5,447l3,3,2.82,2.35,2.2,2.05,1.88,1.25h.15l1.42.63h.31l.16-.47.16-1.1-.16-2-.47-2.51-.63-3.3-.94-3.76L306,438.88l-1.57-4.55-1.89-4.86-2.19-5.18L297.66,419l-2.83-5.49v-.15L291.54,408l-3.76-5.33-4.08-5.34-4.56-5v.31Z"/><path class="cls-8" d="M258.9,399.34l-2.35-.31H254.2l-2.21.31-2,.47L246,401.38l-3.77,2.19-.94-3,1.56-1.1,1.89-1.09,4.24-1.57,4.55-.79,2-.15,2,.15.47.79.47.94.15.94Zm-22.28.94h-4.55l-4.71.47-2.35.63-2.36.78-2.35,1.1-2.19,1.26-.16-.79-.32-.78-.94-1.73,4.4-2.35,2.2-.94,2.35-.79,2.35-.31,2.35-.16,2.51.16,2.52.47.63,1.41.62,1.57Z"/><path class="cls-2" d="M261.25,402.16l3.93,7.53,3.3,7.38,2.66,7.06,2.2,6.75,1.88,6.43,1.26,6.12.94,5.65.62,5.18.48,4.71v8l-.16,3.13-.32,2.52-.46,2-.32,1.25-.31.47h-.78l-.79-.78-.78-1.26-.94-2-1.11-2.67-1.25-3.14-1.57-3.45L268.16,459l-2-4.4-2.2-4.87-2.51-5-2.82-5.17L255.3,434l-3.77-5.65-4.08-5.65-4.56-5.8.16-1.89.16-1.72v-3l-.16-2.51-.16-2,2.05-1.25,2.35-.95,2.51-.62,2.51-.47,4.86-.32,2.21-.15,1.87.15Z"/><path class="cls-2" d="M261.25,402.32l-.15-.16,3.92,7.53,3.3,7.38,2.67,7.06,2.19,6.75,1.88,6.43,1.26,6.12.94,5.65.63,5.18.47,4.71v8l-.16,3.13-.31,2.52-.47,2-.31,1.25v-.15l-.32.47h-.47l-.79-.79-.78-1.26v.16l-.94-2-1.1-2.67-1.26-3.14-1.56-3.45L268.32,459l-2.05-4.4-2.19-4.87-2.51-5-2.83-5.17v-.16l-3.29-5.49-3.76-5.65-4.08-5.65-4.56-5.8v.16l.16-1.89.16-1.72v-3l-.16-2.51-.16-2v.16l2-1.25h-.16l2.35-.95,2.51-.63,2.51-.46,4.86-.32,2.21-.16,1.87.16.16-.31-2-.16-2.21.16-4.86.31-2.51.47-2.51.63-2.35.94h-.16l-2,1.41.15,2,.16,2.51v3l-.16,1.72-.15,1.89,4.55,5.95,4.08,5.66,3.77,5.64,3.3,5.49v-.15l2.81,5.17,2.51,5,2.2,4.86,2,4.4,1.58,4.08,1.56,3.45,1.25,3.14,1.11,2.67.94,2v.16l.78,1.26.95.78H277l.47-.63.31-1.25.47-2,.32-2.51.16-3.14v-8l-.48-4.71-.63-5.18-.94-5.65-1.25-6.12-1.88-6.43-2.2-6.75-2.67-7.06-3.29-7.38L261.41,402l-.16.31ZM239,426.17l-.32,5.18-.47,5.33-.78,5.18-.95,5-1.25,4.24-.63,1.88-.63,1.57-.62,1.41-.78.94-.64.63-.78.32-.47-.48L230,456.3l-.63-1.73-.62-2.35-.79-2.83-.78-3.45-.79-3.61-.78-3.92-1.73-8.32-1.72-8.47-1.73-8.16-.94-3.61-.79-3.29v-.16l4.08-1.73,4.4-1.41,2.19-.31,2.35-.16,2.2.16,2.36.62,1.1,3.3.47,2,.47,2.35.47,2.83.16,3.45.15,3.92-.15,4.71Z"/><path class="cls-2" d="M238.82,426.17l-.31,5.18-.47,5.33-.79,5.18-.94,5-1.25,4.24-.64,1.88-.62,1.57-.63,1.41v-.15l-.78.94-.64.62h.16l-.78.32h.16l-.47-.47v.15l-.63-1.09-.63-1.73-.62-2.35-.79-2.83-.78-3.45-.79-3.61-.78-3.92-1.73-8.32-1.72-8.47-1.73-8.16-.94-3.61-.79-3.29v-.16l-.16.16,4.08-1.73,4.4-1.41,2.19-.32,2.35-.15,2.2.15,2.36.63-.16-.16,1.1,3.3.47,2,.47,2.35.47,2.83.16,3.45.16,3.92-.16,4.71h.31l.16-4.71-.16-3.92-.15-3.45-.47-2.83-.47-2.35-.47-2-1.11-3.45-2.51-.63-2.2-.15-2.35.15-2.19.31-4.4,1.42-4.23,1.72v.32l.78,3.29.94,3.61,1.73,8.16,1.73,8.47,1.72,8.32.79,3.92.78,3.61.78,3.45.79,2.83.62,2.35.64,1.73.62,1.25.63.48.94-.32.63-.63.79-.94.62-1.57.63-1.57.63-1.88,1.25-4.24.95-5,.78-5.18.47-5.33.31-5.18Z"/><path class="cls-7" d="M327.94,405.46l.79,2.2.15,1.25-.15,1.57-.31,1.57-.94,1.72-1.26,1.89-1.89,1.88-3.13-5.34-3.14-5,1.57-1.1,1.41-.78,1.57-.63,1.41-.31h1.41l1.1.16.79.31.62.63Z"/><path class="cls-7" d="M327.79,405.61v-.15l.78,2.2.16,1.25-.16,1.57-.31,1.57-.94,1.72v-.15l-1.26,1.88-1.88,1.88h.31l-3.14-5.33-3.13-5v.31l1.56-1.1h-.15l1.41-.78,1.57-.63,1.41-.31h1.41l1.1.15.79.32h-.16l.63.62.31-.31-.62-.63-1-.31-1.1-.15H324l-1.41.31-1.57.63-1.41.78h-.16l-1.57,1.25,3.14,5.18,3.29,5.34,2.05-1.88,1.25-1.89v-.16l.94-1.72.31-1.57.16-1.57-.16-1.25-.78-2.36-.32.31Zm-12.4,22.44-3,2.67-3.14,3.14-1.09-3.14-1.1-2.83-.95-2.51-.94-2.19-.78-1.89-.79-1.56-.62-1.26-.63-.94,1.25.31,1.41.94,1.73,1.42,1.88,1.57,3.77,3.45L314,426.8l1.41,1.25Z"/><path class="cls-7" d="M315.23,428.21v-.32l-3,2.67-3.14,3.15.31.15-1.1-3.14-1.1-2.83-.94-2.51-.94-2.19-.79-1.89-1.4-2.82v-.15l-.64-.95-.15.32,1.25.31h-.15l1.41.94,1.73,1.41,1.87,1.58,3.78,3.44,1.56,1.58,1.41,1.25.32-.16-1.41-1.41-1.57-1.57-3.77-3.45-1.88-1.57-1.73-1.42-1.57-.93-1.57-.32.79,1.25v-.15l1.41,2.82.78,1.89,1,2.19.94,2.51,1.1,2.83,1.25,3.3,3.3-3.14,3-2.83-.32.16Zm-22.59,17.57L289.81,447l-3.14,1.41-2.82,1.41-1.09.63-.63.47-.79-5.18-.94-5.64-1.1-5.5-1.1-5,3.14,3.45,2.67,3,1.1,1.41,1.1,1.1.94,1.09.79.94,1.56,1.73,1.1,1.26,2,2v.16Z"/><path class="cls-7" d="M292.48,445.78l.16-.16-2.83,1.26-3.14,1.41-2.82,1.41-1.09.63h-.16l-.63.47.31.16-.79-5.18-.94-5.64-1.09-5.5-1.1-5-.32.16,3.14,3.45,2.67,3,1.1,1.41,1.1,1.09.94,1.1.79.94,1.56,1.73,1.1,1.26,2,2v0l.32.16v-.32l-2.05-2.19-1.09-1.26-1.57-1.72-.79-.94-.94-1.1-1.09-1.1-1.11-1.41-2.67-3L278,429.15l1.1,5.49,1.1,5.5.94,5.64.95,5.34.78-.47h-.15l1.09-.63,2.82-1.41,3.14-1.42,3-1.25Z"/><path class="cls-8" d="M295.77,450l-2,1.89L292.48,453l-1.41,1.42-1.57,1.41-1.88,1.56-2,1.73-2.2,1.89.16-2-.16-1.73-.16-1.57-.46-1.41,2.19-1.41,2.51-1.57,3-1.73,3.46-1.88.78.78.47.79.31.46.31.32Z"/><path class="cls-4" d="M144.2,449.24l1.1,3.13,1.26,3.15,3,6.43,3.29,6,1.73,2.67,1.72,2.19-5.8,4.86L145,483l-5.5,5.34L134,493.8v-1.41l.46-1.42.48-1.41.62-1.41.47-1.26.32-1.25-.16-.94-.47-.78-.63,1.25-.63.94-1.73,1.57-2,1.41-1.89,1.73-.31-.94-.16-.95.32-1.72.47-1.73.31-1.26-3.29,3-3.46,3.61-3.13,3.45-2.83,3.45,2.35-5.81,2.36-6.43,2.35-6.59,2.36-6.43,5.18-5.49,4.55-5.81,4.23-6.12,4.08-5.8Z"/><path class="cls-4" d="M144.36,449.39l-.31-.15,1.09,3.13,1.26,3.15,3,6.43,3.3,6v.16l1.72,2.67,1.72,2.19v-.31l-5.8,4.86-11,10.67-5.48,5.49.31.16v-1.41l.94-2.83.63-1.41.47-1.26.31-1.25-.15-.94-.63-1.1-.78,1.57V485l-.64.93-1.72,1.58-2,1.4-1.88,1.73.31.16-.31-.94-.16-.95.31-1.72.47-1.73.48-1.72L126,487.05l-3.45,3.61-3.14,3.45-2.83,3.46.32.15,2.35-5.81,2.36-6.43,2.35-6.59,2.35-6.43v.16l5.18-5.49,4.55-5.81,4.24-6.12,4.07-5.81-.15-.46L140,454.88,135.73,461l-4.55,5.8-5.18,5.5-2.36,6.58-2.35,6.59-2.35,6.43-2.67,6.59,3.46-4.08,3.13-3.45,3.45-3.6,3.3-3-.32-.16-.31,1.26-.47,1.73-.31,1.72.15.95.47,1.09,2-1.72,2-1.41,1.73-1.57.63-.94v-.16l.63-1.25-.32.15.47.79v-.16l.16.94-.31,1.25-.48,1.26-.62,1.41-.94,2.83v1.72l5.8-5.65,11-10.67,5.81-5-1.73-2.35L153,467.75v.16l-3.3-6-3-6.43-1.25-3.15-1.26-3.44.15.46Zm128.19,31.23-.46.94-.64.94-1.72,2.36-2.35,2.67-2.51,2.82-2.82,2.51-2.67,2.35-2.52,1.73-1.09.63-1.11.46.79-2,.16-2.51-.16-2.82-.47-2.82-1.26,2-1.57,1.88L250.43,493l-2,.78v-1.73l-.31-1.56-.63-1.73-1.73,2.51-2,2.82-2.66,3-3,3.46.15-3-.47-2.51,3.92-3.15,3.92-3.45,3.93-3.76,3.77-4.24,3.6-4.39,3.3-4.4,2.82-4.54,2.51-4.4L266,464l1,1.73.94,2,1.25,2.36,2,5.17.95,2.67.46,2.67Z"/><path class="cls-4" d="M272.39,480.62l-.46.94v-.15l-.63.94-1.72,2.35-2.36,2.67-2.51,2.82-2.82,2.51-2.67,2.36-2.51,1.72h.15l-1.09.63-1.11.47.16.15.79-2,.16-2.51-.16-2.82-.63-3.13-1.41,2.19L252,491.6l-1.71,1.26h.15l-2,.78.16.16v-1.73l-.32-1.56-.78-2.05-1.89,2.67-2,2.83-2.67,3-3,3.45.31.16.16-3-.47-2.51v.15l3.92-3.14,3.92-3.45,3.92-3.76,3.77-4.24,3.61-4.39,3.3-4.4,2.82-4.55v-.15l2.51-4.4h-.31l.47,1.26.94,1.73.94,2,1.25,2.36,2.05,5.17.94,2.67.46,2.67h.32l-.47-2.67-.94-2.67-2-5.17L268,467.75l-.93-2-.95-1.73-.63-1.58-2.66,4.72V467L260,471.52l-3.29,4.39-3.61,4.39-3.76,4.24-3.93,3.77-3.92,3.45-3.92,3.3.47,2.51-.16,3.45,3.29-3.77,2.67-3,2-2.82,1.73-2.51-.32-.16.63,1.73.31,1.56V494l2.2-.79,1.88-1.26,1.57-1.87,1.26-2.05-.32-.15.48,2.82.15,2.82L255.3,496l-.79,2.2,1.26-.47,1.09-.63H257l2.51-1.72L262.2,493l2.82-2.51,2.52-2.83,2.35-2.66,1.72-2.36.63-.94v-.16l.47-.94Z"/><path class="cls-9" d="M127.88,495.37l.79-1.1,1.1-.79,2-1.72v.31l-.31.48L131,494l-.63,1.72-.31,1.41-.47.94-.63,1.11-.94,1.25-1.1,1.57-2.51,3.61-2.67,4.07-2.82,4.24-2.36,4.4-1.72,4.23-.47,2-.32,1.89,3.3-2.52,3.92-2.66,8.48-5.49,4.08-2.36,3.61-2,1.56-.78,1.26-.47,1.1-.48.78-.15,1.41.15,1.57.32,2,.47,2,.78,2.19.95,1.88,1.1,1.89,1.41,1.41,1.72-11.3,4.4-11.14,4.7L123,530.36,112.35,536l-5.18,3-5,3.14-4.87,3.45-4.86,3.77-4.55,3.76-4.39,4.24-4.24,4.55-4.08,4.71-.78.78-1.1.94-1.57.94L70,570.37l-4.39,2.19-5,2.05-5.49,2-5.66,1.57-5.49,1.09-2.66.32-2.35.16.62-4.08L41,571.63l1.73-4.08L45,563.62l2.66-3.76,2.82-3.45,3.14-3.14,3.15-2.67L61,552.33l4.08,2.51,3.6,2.82,2.83,3.14-.78-2.35-1.1-2-1.25-1.89L67,552.8l-1.57-1.57L64,550,62.76,549l-.94-.63,3-1.41,2.67-1.26L70,544.64l2-.94,1.88-.79,1.57-.47,1.42-.47,1.25-.47,1.57-.47,2.2-.78,2.66-1,2.67-1.25,2.67-1.42,2.35-1.56L94,533.18l1.1-1.88-3.46,2L88,535.23l-7.37,3-3.92,1.26-3.92,1.25L69,542.13l-3.92,1.41-3.77,1.73-3.76,1.88L54,549.35l-3.46,2.51L47.23,555l-3.14,3.61-2.82,4.24L38.6,567.7l-3.76,1.57-3.61,1.42-3.46,1.09-3,.94-2.83.79-2.2.47-2,.47-1.41.32-3,.62-3.46.32H8l-1.57-.32-1.57-.62-1.25-.94,2.82-4.56,3.45-4.7,3.77-4.87,4.4-4.55,4.39-4.24,4.71-3.61,2.35-1.57,2.19-1.25,2.36-.94,2.2-.78,1.1.94.93,1.09L40,547.46l1.41,3.14,1.41,3-.16-2.35-.15-2-.32-1.73-.32-1.41-.78-2.19-.94-1.73,5.34-1.1,5.8-1.1,11.93-2.82,5.8-1.57,5.49-1.73,5-1.72,4.4-2-9.89,2L63.86,534l-10,1.89-9.73,2-.94-2.51-.78-2.51-1.26-2.2-1.88-1.88,2.2-.47,2.51-.32,2.66-.15h3.14l3.14.15,3.45.32,7.22.47,7.68.16,8-.47,3.92-.48,3.93-.78L91,526.13l3.76-1.58-.47,1.1-.78,1.1-2,2,1.57-.15,1.57-.64,1.57-.94,1.41-1.25,2.51-2.51.94-1.1,1-.94.46-.63.79-.94.78-1.1,1.1-1.57,1.26-1.73,1.41-1.88,3.29-4.39,7.22-9.26,3.61-4.24,3.61-3.76.16,1.1.62.94,1.57,1.57Z"/><path class="cls-9" d="M127.88,495.52l1-1.1,1.09-.78,2-1.73-.31-.15v.15l-.31.64-.48,1.41-.63,1.72-.31,1.41-.47.94-.63,1.11V499l-.94,1.25-1.1,1.58-2.51,3.6-2.66,4.08-2.83,4.23v.16l-2.35,4.4-1.73,4.23-.47,2-.31,2.2,3.6-2.67,3.93-2.67,8.47-5.49,4.08-2.35h-.15l3.61-2,1.56-.78,1.26-.48,1.1-.47.78-.16,1.41.16,1.57.32,2,.47,2,.78,2.2.94h-.16l1.88,1.1,1.89,1.42,1.41,1.72.16-.32-11.3,4.4-11.14,4.71L123,530.2l-10.67,5.65-5.18,3H107L102,542l-4.86,3.45-4.87,3.77L87.71,553l-4.39,4.23-4.24,4.55L75,566.45l-.78.79-1.1.94-1.57.94-1.73,1.09H70l-4.39,2.2-5,2-5.49,2-5.66,1.57-5.49,1.1-2.66.31-2.35.16.15.16.63-4.08,1.41-4.08,1.73-4.08v.15l2.35-3.92L47.86,560l2.82-3.45,3.14-3.13L57,550.76h-.15L61,552.48h-.16L65,555l3.61,2.83,3.3,3.45-1-2.82-1.1-2v-.16l-1.25-1.88-1.41-1.73-1.57-1.57-1.41-1.25-1.26-.94-1-.64-.15.32,3-1.41,2.67-1.26,2.51-1.1,2-.93,1.88-.79,1.57-.47,1.42-.47,1.25-.47,1.57-.47,2.2-.78,2.66-.95,2.67-1.25,2.67-1.42h.16l2.35-1.56,1.72-1.89L95.41,531l-3.93,2.19h.15L88,535.07l-7.37,3-7.84,2.51L69,542l-3.92,1.41-3.77,1.73L57.59,547h-.16l-3.61,2.2-3.45,2.51-3.3,3.14-3.14,3.61-2.82,4.23v.16l-2.67,4.86.16-.15-3.77,1.57-3.6,1.41-3.46,1.1-3,.93-2.82.79-2.2.48-2,.46-1.41.32-3,.62-3.46.32H8l-1.57-.32-1.57-.62H5l-1.25-.94V574l2.82-4.55,3.45-4.7,3.77-4.87,4.39-4.55,4.39-4.24,4.72-3.61,2.35-1.57H29.5l2.19-1.25,2.36-.94,2.2-.79h-.16l1.1,1,.94,1.09,1.73,2.67v-.16l1.41,3.14L43,554.37l-.15-3.14-.16-2-.31-1.73-.32-1.41-.78-2.19-1-1.73-.15.15,5.33-1.09,5.81-1.1,11.93-2.83,5.8-1.57L74.53,534l5-1.72,5.65-2.51-11.14,2.2-10.2,1.88-10,1.88-9.73,2,.16.15-.94-2.51-.78-2.51-1.26-2.36-1.89-1.87-.15.31,2.2-.47,2.5-.32L46.6,528h3.14l3.14.16,3.45.32,7.22.47,7.68.16,8-.47,3.92-.48,3.93-.78,3.92-1.1,3.76-1.57-.15-.16-.48,1.1v-.16l-.78,1.1L91.17,529l1.88-.16,1.57-.63h.15l1.57-.94L97.76,526l2.51-2.51.94-1.1.94-1,.47-.62.78-.94.79-1.11,1.1-1.56,1.25-1.73,4.71-6.27,7.21-9.26,3.62-4.24,3.61-3.77-.32-.15.16,1.1.63,1.1,1.72,1.56.16-.31-1.57-1.57-.63-.94v.16l-.15-1.41-3.93,3.91-3.6,4.24-7.22,9.26-4.71,6.28L105,516.87l-1.09,1.56-.79,1.1-.78.94-.47.63-1,.94-.94,1.1-2.51,2.51L96,526.91l-1.57.94h.16l-1.57.63-1.57.16.15.31,2.05-2,.78-1.26.47-1.25L91,526l-3.92,1.09-3.93.79-3.92.47-8,.47-7.68-.15-7.22-.48-3.45-.31-3.14-.16H46.6l-2.67.16-2.5.31-2.51.48,2,2.19v-.16l1.26,2.2.78,2.51,1.1,2.67,9.73-2,10-1.89,10.2-1.88,9.89-2v-.31l-4.4,2-5,1.73L69,535.38,63.24,537l-11.93,2.82-5.8,1.1L40,542.13l.93,1.73.78,2.19.32,1.41.32,1.73.16,2,.15,2.35H43l-1.41-3-1.41-3.14v-.16l-1.73-2.66-.94-1.1-1.25-.94-2.2.78-2.36.94-2.19,1.26h-.16L27,547.15l-4.71,3.6L17.89,555l-4.4,4.55-3.76,4.87-3.45,4.71-2.83,4.7,1.41,1.1,1.57.63,1.57.31H9.88l3.46-.31,3-.63,1.41-.31,2-.47,2.2-.47,2.82-.79,3-.94,3.46-1.1,3.6-1.41,3.93-1.57,2.67-5V563l2.82-4.24,3.14-3.61L50.68,552l3.46-2.5,3.6-2.21h-.15l3.76-1.88,3.77-1.72L69,542.28l3.77-1.41,7.84-2.51,7.37-3,3.61-1.88h.16l3.46-2-.32-.31L93.83,533l-1.72,1.89-2.36,1.57h.16l-2.67,1.41-2.67,1.25-2.66,1-2.2.78-1.57.48-1.25.46-1.42.47-1.57.48-1.88.78-2,.94-2.51,1.1-2.67,1.26-3.29,1.56,1.1.79,1.25.94,1.41,1.26L66.85,553l1.41,1.72,1.25,1.88v-.15l1.1,2,.78,2.35.32-.15-2.83-3.15-3.61-2.82-4.08-2.51H61l-4.23-1.72-3.31,2.66-3.13,3.14-2.82,3.45-2.67,3.76-2.35,3.93v.16l-1.73,4.08-1.42,4.08L38.76,580l2.51-.16,2.66-.32,5.49-1.09,5.66-1.58,5.49-2,5-2L70,570.53h.16l1.73-1.1,1.56-.94,1.1-.94.79-.79,4.08-4.7,4.24-4.56L88,553.27l4.56-3.76,4.86-3.78,4.87-3.45,5-3.14h-.16l5.18-3L123,530.51l11.14-4.86L145.3,521l11.46-4.56-1.42-1.88-1.88-1.41-1.88-1.1h-.16l-2.2-.94-2-.79-2-.47-1.57-.31-1.41-.16-.78.16-1.1.47-1.26.47-1.56.78-3.61,2.05h-.16l-4.08,2.35-8.48,5.49-3.92,2.67-3.29,2.51.31.16.31-1.89.47-2,1.73-4.23,2.35-4.4V514l2.83-4.24,2.67-4.07,2.51-3.62,1.1-1.56.94-1.26v-.15l.62-1.11.47-.94.32-1.41.63-1.72.47-1.41v.15l.31-.63v-.62l-2.35,1.88-1.1.78-.79,1.1H128l-.16.31Zm120.51,8.94-1.88,4.24-.47,2.36-.48,2.2-.15,2.51.31,2.51.47,2.67.94,2.82.32-1.26.16-1.1.31-1.09.16-.47,7.53.94,7.37.62,7.38.16,7.22-.16L285,521l7.22-.79,14.75-2.2v1.57L303,520l-2.05.31-2.19.31-4.86.78-5.34.79-6,.78-6.43.32-7.23-.16-7.69-.63.16.79.48.62,1.25,1,1.73.62,1.56.32,7.54.32,7.21-.16,6.76-.63,6.11-.79,5.49-.78,2.51-.31,2.05-.16,2-.16h1.57l1.42.32,1.09.31-.78,1.88-.47,2.2-.16,2.2.16.94.31.94,1.42-2.83,1.41-2.19,1.25-1.57,1.42-1.26,2.19.47,2.35.79,2.51,1.1,2.51,1.25,5.34,3.46,5.18,3.92,5,4.39,4.55,4.86,3.77,4.71,1.56,2.36,1.26,2.19-2.67,1.26-2.82.79-3.14.62-3.14.47H336l-3.29-.16-3.15-.47-3-.62-1.57-3-1.72-2.66-2-2.67-2.36-2.51-5-4.55-5.18-3.77-2.51-1.57-2.51-1.41-2.19-1.25-2.2-.94-1.89-.79-1.57-.63-1.25-.31h-.94l-4.24.15h-4.7l-5-.15-5.18-.47-10.2-1.57-5-1.1-4.56-1.1,1,1.26,1.41,1.25,1.88.95,2.2.93,2.35.63,2.67.63,6,.94,6.11.63,6,.31,5.34.31,2.36.16,2,.16-2.36,1.1-1.1.79-.94.94-.94,1.25-.62,1.41-.48,1.73-.16,1.88,2.51-3,2.67-2.51,1.42-.94,1.41-.63,1.72-.31,1.73.16,3.76,2,3.61,2.36,3.46,2.51L313,545l3.13,3,3,3.14,2.51,3.45,2.35,3.62-2,1.09-2.2.78-4.55,1.1-4.7.47-4.71-.15-4.71-.63-4.7-1.1-4.56-1.1-4.23-1.41-9.73-5.49-9.41-5.65-9.1-5.8-9.58-5.5-5-2.66-5.18-2.52-5.49-2.35-5.8-2.2L222,523.14l-6.59-1.73-7.06-1.4-7.69-1.11v-.62l.31-.63,1.1-1.57,1.89-1.57,2.35-1.57,2.67-1.41,3-1.26,2.82-.78,2.51-.31,2.2.15,1.72.16,3.14,1.1,3,1.57,1.73,1.1,2,1.1.16.46-.16.63-.63,1.1-.62,1.41,2-1.41,1.73-1.57,1.26-1.88,1.1-1.89,1.25-3.76.78-3.61,1.26-.63,1.1-.94,2.2-2.51,2-2.82.79-1.26.78-.94.16.62.16.95v2l1.88-.78,1.73-1.1,1.72-1.41,1.57-1.58.16,1.88-.16,1.42L253.1,498l-.63,1.26-1.73,2.2-1.1,1.41-1.25,1.56Z"/><path class="cls-9" d="M248.23,504.32l-1.88,4.38-.47,2.36-.47,2.2-.16,2.51.31,2.51L246,521l1.09,3.29.48-1.73.16-1.1.31-1.09.15-.47-.15.16,7.53.94,7.37.62,7.38.16,7.22-.16,7.37-.47,7.22-.78,14.75-2.2-.16-.16v1.57l.16-.15-3.92.47-2.05.31-2.19.31-4.86.79-5.34.78-6,.79-6.43.31-7.23-.16-7.84-.62.15.94.48.78,1.41.94,1.73.63,1.56.32,7.54.31,7.22-.15,6.75-.64,6.11-.78,5.49-.79,2.51-.31,4.08-.31h1.57l1.42.31,1.09.31-.16-.15-.78,1.88-.47,2.2-.16,2.2.16.94.47,1.25,1.57-3.13v.15l1.42-2.2,1.25-1.57,1.42-1.25h-.16l2.19.47,2.35.78,2.51,1.1,2.51,1.26h-.15l5.33,3.45,5.18,3.93,5,4.39,4.56,4.86,3.76,4.71,1.56,2.35v-.15l1.27,2.19.15-.16-2.67,1.26-2.82.79-3.14.62-3.14.47H336l-3.29-.15-3.15-.47-3-.63.16.16-1.57-3v-.15l-1.72-2.67-2-2.67L319,544.48l-5-4.55-5.18-3.76-2.51-1.58h-.16l-2.51-1.41-2.19-1.25-2.2-.94-1.89-.79-1.57-.63-1.25-.31h-.94l-4.24.16h-4.7l-5-.16-5.18-.47-10.2-1.57-5-1.09L254.35,525l1.1,1.57,1.42,1.26,2,.94,2.2.94,2.35.63,2.67.63,6,.94,6.11.63,6,.31,5.34.31,2.36.16,2,.16v-.32l-2.51,1.1-1.11.79-.94.94-.94,1.25-.62,1.58-.48,1.72-.15,2.35,2.82-3.29,2.67-2.51,1.41-.94h-.15l1.41-.63,1.72-.31,1.73.15,3.76,2h-.15l3.61,2.35,3.45,2.51,3.45,2.83,3.14,3,3,3.14,2.51,3.45,2.36,3.61L324,558l-2,1.09-2.2.79L315.23,561l-4.7.48-4.7-.16-4.72-.62-4.7-1.1-4.55-1.1L287.62,557l-9.73-5.49H278l-9.41-5.65-9.1-5.8h-.15l-9.58-5.5-5-2.66-5.18-2.51-5.49-2.36-5.8-2.2L222,523l-6.59-1.72-7.06-1.41-7.69-1.11.15.16v-.62l.32-.63v.16l1.1-1.58,1.88-1.56,2.36-1.57h-.16l2.67-1.41,3-1.26,2.82-.79,2.52-.31,2.19.16,1.72.15,3.14,1.11,3,1.56h-.15l1.73,1.1h.15l2,1.1-.16-.15.16.47-.16.62-.63,1.1-.78,1.73,2.51-1.57,1.73-1.57,1.26-1.88,1.09-2.05,1.26-3.76.78-3.61L238,504l1.4-.63,1.1-.94,2.2-2.51,2-2.83.78-1.25.79-.94-.31-.16.15.63.16.94v2.19l2-.78h.16l1.73-1.09,1.71-1.42,1.58-1.57-.31-.16.15,1.88-.15,1.42-.32,1.25-.63,1.27v-.16l-1.72,2.19-1.1,1.41-1.26,1.58.32.3,1.25-1.56,1.1-1.41,1.73-2.2.63-1.42.31-1.25.15-1.42-.15-2.19-1.88,1.73L250,496.31l-1.73,1.1h.16l-1.88.78.16.16v-2l-.16-.95-.32-.94-.94,1.1-.78,1.26-2,2.82-2.19,2.51-1.11.95h.16l-1.41.62-.79,3.77-1.25,3.76v-.15l-1.1,1.88-1.25,1.88-1.74,1.57-2,1.42.31.15.63-1.41.63-1.1.16-.63-.16-.62-2.2-1.1h.15l-1.72-1.1h-.16l-3-1.57-3.14-1.1-1.72-.15-2.19-.16-2.52.31-2.82.79-3,1.25-2.67,1.41h-.16l-2.35,1.58L202,515.92l-1.11,1.57v.16l-.31.63v.78l7.85,1.1,7.06,1.41L222,523.3l6.28,1.88,5.8,2.2,5.49,2.35,5.18,2.51,5,2.67,9.58,5.5h-.16l9.1,5.8,9.41,5.65h.16l9.73,5.49,4.24,1.41,4.55,1.1,4.7,1.09,4.72.63,4.7.16,4.7-.47,4.55-1.1,2.2-.78,2.2-1.25-2.36-3.78-2.51-3.45-3-3.13-3.13-3L309.74,542l-3.45-2.51-3.61-2.35h-.16l-3.76-2-1.73-.16-1.72.32-1.41.62h-.16l-1.42.94-2.66,2.51-2.51,3,.31.16.16-1.88.47-1.73.63-1.41v.16l.94-1.26.94-.94,1.1-.79h-.16l2.83-1.41-2.52-.16-2.35-.15-5.34-.31-6-.32-6.11-.63-6-.94-2.67-.62-2.35-.63-2.2-.94-1.88-1h.15l-1.4-1.25-1-1.26-.16.32,4.56,1.1,5,1.09,10.2,1.57,5.18.47,5,.16h4.7l4.24-.16h.94l1.25.32,1.57.62,1.89.79,2.2.94,2.19,1.26,2.51,1.41H306l2.5,1.57,5.18,3.77,5,4.54L321,547.3l2,2.67,1.73,2.67v-.16l1.57,3.15,3.13.62,3.15.47,3.29.16h3.29l3.14-.47,3.14-.63,2.82-.79,2.83-1.41-1.26-2.19v-.16l-1.57-2.35-3.77-4.71L340,539.3l-5-4.39L329.83,531l-5.34-3.46h-.16l-2.51-1.25-2.51-1.1L317,524.4l-2.19-.48-1.57,1.26-1.26,1.57-1.41,2.2v.16l-1.41,2.82h.31l-.31-.94-.16-.94.16-2.2.47-2.2.78-1.88-1.25-.47L307.7,523h-1.57l-4.08.32-2.51.31-5.49.79-6.11.78-6.76.63L274,526l-7.54-.32-1.56-.31-1.73-.63h.16l-1.25-.94-.48-.63v.16l-.16-.79-.16.16,7.69.63,7.23.16,6.43-.32,6-.78,5.34-.79,4.86-.78,2.19-.32,2.05-.31,4.07-.47v-1.88l-14.9,2.2-7.22.78-7.37.47-7.22.15-7.38-.15-7.37-.63-7.69-.94-.15.63-.32,1.09-.16,1.1-.31,1.26h.31l-.94-2.82-.47-2.67-.32-2.51.16-2.51.47-2.2.48-2.36,1.88-4.24v.16l-.32-.3Z"/><path class="cls-9" d="M338,531.93l-6.27-4.08L325,524.24l-3.45-1.41-3.77-1.26-3.92-.94-4.23-.47.15-1.57-.15-.94h2.19l2.36.16,4.7,1.09,4.87,1.57,4.55,2,3.92,2.36,1.73,1.26,1.41,1.09,1.1,1.26.94,1.25.47,1.1.15,1.1Z"/><path class="cls-9" d="M337.83,531.93l.31-.16-6.27-4.08h-.16L325,524.08l-3.45-1.41-3.77-1.26-3.92-.94-4.23-.46.15.15.16-1.57-.16-.94-.15.16h2.19l2.36.15,4.7,1.1,4.87,1.57,4.55,2h-.16L332,525l1.73,1.26,1.42,1.1,1.09,1.26.94,1.25v-.16l.48,1.1.15,1.1.31.31-.16-1.41-.46-1.26-.95-1.25-1.09-1.26L334.06,526l-1.72-1.26-3.92-2.35h-.16l-4.55-2-4.87-1.58-4.7-1.09-2.36-.16h-2.35l.16,1.1-.16,1.73,4.39.47,3.92.94,3.77,1.25L325,524.4l6.75,3.6h-.16l6.59,4.24-.32-.31ZM40.48,538.2l-3.45.48-3.45.78-3.14,1.1-3,1.41-2.82,1.57L22,545.42l-2.67,2L17,550l-2.83-.62H12.71l-1.57.31,2.2-3.93,2.82-3.6,3.3-3.29,3.45-3,3.61-2.35,3.61-2,3.45-1.41,3-.94,1.41,2,1.26,2.19.94,2.35.31,2.51Z"/><path class="cls-9" d="M40.33,538.2l.15-.15-3.45.47-3.45.78-3.14,1.11-3,1.4-2.82,1.57h-.16l-2.67,1.89-2.67,2-2.35,2.52H17l-2.83-.63H12.71l-1.57.32.16.15,2.19-3.93v.16l2.83-3.61,3.3-3.29,3.45-3,3.6-2.35h-.15l3.61-2,3.45-1.41,3-.94h-.15l1.4,2v-.15l1.26,2.19,1,2.35.31,2.51.31.16-.31-2.67-.95-2.35-1.25-2.19V531l-1.57-2-3,.94-3.45,1.41-3.61,2h-.16l-3.61,2.35-3.45,3L16,542l-2.83,3.61v.15l-2.35,4.09,1.88-.31h1.41l2.83.62,2.51-2.51,2.67-2,2.67-1.88h-.16l2.82-1.57,3-1.42,3.14-1.09,3.45-.78,3.61-.48Z"/><path class="cls-8" d="M227.21,301.58l-.94,5.34L226,312.1l.32,5.17.78,5.18,1.1,4.87,1.41,4.86,3.14,9.57-5.49-40.16Z"/></g></g></svg>