<svg xmlns="http://www.w3.org/2000/svg" viewBox="0 0 678.87 651.49"><defs><style>.cls-1,.cls-10,.cls-11,.cls-12,.cls-2,.cls-3,.cls-4,.cls-5,.cls-6,.cls-7,.cls-8,.cls-9{fill-rule:evenodd;}.cls-2{fill:#33358d;}.cls-3{fill:#fff;}.cls-4{fill:#42a3df;}.cls-5{fill:#b0d5ea;}.cls-6{fill:#d14f2e;}.cls-7{fill:#f3d239;}.cls-8{fill:#ca272d;}.cls-9{fill:#c565a2;}.cls-10{fill:#972d33;}.cls-11{fill:#cadbe3;}.cls-12{fill:#e1a03b;}</style></defs><title>Fichier 5</title><g id="Calque_2" data-name="Calque 2"><g id="Calque_1-2" data-name="Calque 1"><path class="cls-1" d="M38.24,16.81l8.17,6.7,8,7.14,7.74,7.58,7.59,7.89,7.14,8.18,7,8.19L90.61,71l6.24,8.33h.6l-1.64-6.4-1.34-6.69-.3-3.42.3-3.13.89-3,.75-1.34,1-1.33,1.78.14,1.64.6,1.49.74,1.49,1,2.83,2.39,2.52,2.38v.14L121.25,76,133,90.75l11.31,14.88,10.86,15.18L165.44,136l10,15.47,9.68,15.63,9.37,15.77,46.72,86.73v.15l3.27,5.95,1.48,3,1.5,3.12,3.12,5.81,1.79,3,1.93,2.68,1.64,4,1.93,3.86,4.31,7.59,4.47,7.59,1.93,3.87,1.79,4,14.43,28,14.58,28L314.07,408l15.17,27.82,2.23,4.16,2.53,3.72,3,3.28,3.27,2.82,3.42,2.38,3.87,1.94,3.87,1.64,4.17,1.33,4.31.9,4.47.74,4.61.44,4.61.3h9.52l9.38-.44,15.77-.89,15.77-.75,7.88-.59,7.59-.9,7.44-1.33,7.29-1.94,2.52-1.49,2.39-1.78,1.93-2.38.74-1.34.45-1.49-.29-5.65-.9-5.51-1.64-5.21-2.08-5.06-2.53-4.91-3-4.75-3.28-4.62-3.42-4.46-.89-1-1-.9-2.38-1-2.38-.44-2.54-.15h-2.67l-2.53-.3-2.38-.74-1-.74-1.05-.9-2.08-2.08-1.48-2.23-.75-2.68-.15-1.34.15-1.34-3.12-1.49L416,384.59l-2.82-2.23-2.53-2.68-2.09-2.83-1.93-3-1.34-3.28-1-3.27-5.65,3-6,2.54-6.1,2.23-6.09,1.63-6.4,1.19-6.55.89-6.55.3h-6.55l-3-.74-2.82-1.19-2.53-1.79-1-1.19-.9-1.33.3-1.49.6-1.49.74-1.19,1-1,2.38-1.94,2.38-1.48,4.91-1.34,5.06-.89.74-2.38,1-2.09,1.64-1.93,2.08-1.34,1.64-.15,1.49.15,2.68,1,2.52,1.19,1.34.45,1.49.14,6.7.15,3.27-.15,3.13-.29,3.27-.75,3-.89,2.83-1.19,2.68-1.49.29-1.78.3-2.09.15-2.08.15-1.78L402,341.29l-1.33-3.57L399.61,334l-.59-3.86-.3-3.87V322.4l.6-8v-.14l-.6-.15-.59.15-1.49.59-.75.15h-.59l-.6-.3-.29-.74-.3-2.68.14-2.53.6-2.38.75-2.38,1.19-2.08,1.19-2.08,3.13-4v-.15l-6.7-2.38,3.12-3,3.58-2.38,3.71-1.78,4.17-1.49,4.17-1,4.31-.6,8.77-.59,2.83-2.38,2.83-2.09,6.1-3.56,6.25-3,6.25-3.27,2.53-2.53,2.23-2.68,2.08-2.68,1.79-2.83,3.27-5.95,3-6,.29-2.53-.14-2.53-.9-4.91-.29-2.38v-2.38l.29-2.38,1-2.38h.9l.74.45.74.45h.75l1.93-6,1.34-3,1.63-2.83,1.19.3.75.74.6.75.44.89.45,2.23.3,2.23,3,2.08,2.23,2.54,1.93,2.67,1.5,2.83,2.08,6.1,1.93,6.1,1.94.75,2.08.29,2.23.15,2.24-.15L503,245l4.16-.75-1,1.94-.74.89-.9.89-1.34,1.79-.44.74-.15.89,3,1.34,2.69,1.79,2.22,2.23,2.24,2.38,1.78,2.68,1.79,2.83,3,5.65,8-1,8.18-1.05,16.82-1.78,8.62-.75,8.63-.29,8.63-.15,8.63.3,8.48.74,8.33,1.19,8.18,1.64,7.88,2.23,7.6,3,7.28,3.56,3.58,2.24,3.42,2.23,3.27,2.53,3.13,2.68,6.39,5.65,5.8,6.1,5.06,6.54,2.39,3.43,2.08,3.42,1.78,3.57,1.78,3.72,1.5,3.72,1.19,3.87,1,3.86.89,4,.6,4,.44,4.16-.3,1.79-.89,1.49-1.19,1-1.64.74L668,351.26l-7.14,2.08L653.58,355l-7.29,1.19-7.59.89-7.59.6-15.17.59-11.9-.74-12.35-1-6.1-.15-6.1.15-6,.59-5.66,1.19.9,1.05h.14l6.7,1.19,6.7,1.63,6.54,1.94,6.4,2.38,6.25,2.67,6,3.28,5.8,3.72,5.51,4.16.29,1.19-.29.9-.6.59-.9.45-2.08.6-2.07.29-13.4-.15-13.09.6-13,1.19L561,388l-12.35,2.68-12.05,3.42-11.76,4-11.45,4.76-3.27,4-2.68,4.17-2.38,4.32-1.94,4.46-1.48,4.76-1,4.76-.9,5.06-.59,5.06.3,1,.29,1.34.3,3,3.12,8.34,4.77,3.42,4.76,3.72,4.46,3.87,4.31,4.31,4,4.46,3.72,4.61,3.28,4.91,2.82,5.06.15,2.53-.15,2.38-.44,2.38-.75,2.24-1,2.22-1.19,2.09-3,3.87-3.42,3.57-3.72,3.27-3.86,2.83L514,517.59l-2.38,4.17-2.67,4-3,4-3,3.86-3.43,3.58L496,540.51l-3.86,3L488,546.16l-1.64,9.07-.89,9.08-.74,9.23-.45,9.22-.3.89-.74.75-1.05.59-1,.45,1.93,2.68,1.93,2.82,2.09,3,2.08,2.83,2.23,2.53,2.68,1.93,1.64.59,1.48.6,1.79.15h1.93L513,603.88l11.9,1.35,6.11.44,6,.3H543l6.26-.3,1.64-.15,1.48.15,3.12.89,2.83,1.34,2.68,1.79,4.91,3.12,4.61,3.28,4.46,3.56,4,4,.15.9-.15.74-.89,1.34-1.34,1-1.49.6-1.34.14-.59.3-.45.75,1,2.08,1.34,2.08,1.34,1.94,1.49,2.08,1.19,2.08,1,2.23.45,2.24.14,2.37-3.57,1.2-3.72.74-3.86.3-3.87-.15-3.87-.45-3.72-.59L550.93,646l-.16.59v.9l.16.89V650l-.3.74-.6.45-1,.29-5.21-.15-5.06-.44-4.91-.74L529.05,649l-4.76-1.49-4.61-1.79-4.47-2.08-4.46-2.23-8.48-5.06-8.48-5.65-8.18-6.1-8.18-6.25-5.06-2.68L467,613.41l-5.5-1.94-5.65-1.78-5.36-2.23-5.06-2.53-2.53-1.64-2.23-1.79-2.23-2.08L436.51,597v-.15l-.3-.89v-.89l.3-1.34.75-1,1.19-.74,2.82-1.19,1.49-.6,1.19-.59v-.16l3.13-.59h3l3,.3,3,.59,5.81,1.49,5.65,1.64.14-.75-.14-.59-.89-1.34-1-1.49-1.19-1.34-1.64-.15-1.49-.59-1.49-1-1.34-1.05-2.52-2.67-2.69-2.53-4.61-5.06-4.46-5.36-4.46-5.5-4-5.8-3.57-1-3.72-.74-3.72-.45-3.57-.89-4.31-1.34-4.17-1.33L408.39,550l-4.16-2.38h-1.48l-3.43,3.27-3.43,3.42-6.69,6.85-3.12,3.57-2.83,3.72-2.38,3.57-2.08,3.87.29,3,.16,3.13.29,2.82.9,2.53,5.05-2.08,5.21-1.94,2.68-.74,2.67-.3,2.83.15,3,.6,1.48.29,1.35.45,2.82.9,1.19.74,1,.89.9.89.74,1.34.3,1,.15,1.34v1l-.45.89-3.12,1.63L405,596l-6.55,2.53-6.69,2.38-6.39,2.53L381,605.37l-4.32,2.24L372.53,610l-4,2.83-7.88,5.66-8,5.95-8,5.35-4.17,2.38-4.31,2.09-4.47,1.63L327,637.21l-4.76.75-5.05.3h-3.43l-3.12-.45-3.28-.75-3-1-.3-2.53,1.34-3.72,1.64-3.57,1.93-3.57,2.23-3.27v-.15l-1.63-.15-1.94.3-2.08.59-2.08.3-5.21.75-5.21.44-5.35.15h-5.36l-5.36-.45-5.21-.74-5.2-1L261.7,618l-.89-.45-.89-.59-.6-.89-.45-.9.45-2.38.89-1.93,1.49-1.79,1.63-1.63,3.87-3,3.72-2.82,4.61-2.83,4.17-3.13-2.08-.89-2.09-.89-1.78-1.19-.59-.89-.3-1,.74-1.35,1.19-1.33,2.68-1.94,3-1.64,3-1.48,2.08-.75,2.24-.74,4.31-1.64,4.46-1.63L301,577l4.61-.75,4.61-.29,2.24.29,2.22.45,2.39.59,2.23,1v.15l5.5,1.93,5.5,1.64,5.81,1.48,6,1,5.95.9,6.1.59,6.1.15h6.25l.59-3.27.45-3.27.15-3.28-.6-3.27-1.79-2.83-1.48-3-2.53-6.1-1.78-6.4-1.19-6.55-.9-6.69-.44-6.85L356.47,521l-.15-.75-.59-.59-.75-.3-.89-.15-5.36-1.49L343.52,516l-5.2-1.93-5.21-2.24-5.05-2.38-4.92-2.67-4.76-3-4.75-3.12L309,497.21l-4.31-3.57-4.17-3.86-4-4-3.86-4.32L289.07,477l-3.42-4.76-3.12-5.06.89-.89,1-.6,2.23-.74,2.53-.45,2.53-.15,2.68-.14,2.53-.45,2.38-.9,1-.74,1-.89,4.76-1.34,5.21-.75,5.21-.59,5.2-.74-22-22.91L224.51,359.3l-54.61-58L157.26,287l-13.09-14-13.25-13.83-13.39-13.69L49.69,176.3l-5.21-5.51-4.91-5.65L35,159.49l-4.31-5.65-8.34-11.61-8-11.75-1-2.09-1-2.08-1.94-4.61-.59-2.38-.15-2.38.29-2.38.75-2.38.89-.45,1.05-.3,1.93.15,1.93.75,1.64.74,7.44,3.87,7.44,4.16L40,125.57l6.84,5.21L46.57,129,36.9,115.15l-4.77-7-4.31-7L23.5,93.88l-3.86-7.29-3.72-7.44L12.5,71.56,9.52,64,6.85,56.09,4.61,48.2,2.68,40,1.33,31.69.45,23.35,0,14.73.14,6l.6-1.64.75-1.78,1-1.34L4.16,0,8.92.59l4.62,1.19L18,3.57,22.17,5.8l4.16,2.53,4,2.68,7.89,5.65v.15Z"/><path class="cls-2" d="M58.91,40.32l8.48,8.77L75.28,58l7.59,9.08,7.29,9.22,13.69,18.75,13.39,18.74-3.28-.89-3.57-.59-3.72-.3H103l-3.72.59-3.57.9-3.27,1.34-3,1.93-2.24,1.48-2.08,1.64-3.57,3.72-2.83,4L76.32,132l-1.78,4.61-1.35,4.76-.89,4.91-.59,5.06H70.52l-4.61-4.62-4.32-4.76-8.18-9.82L45.82,122l-7-10.27L32.43,101,26.48,90.31l-5.65-11L15.62,68.14,12.94,61l-2.53-7.29L8.18,46.42,6.4,38.83,4.9,31.24,3.71,23.35l-.59-7.88v-8l.59-1,.45-1.19.45-1,.45-.3.6-.15,3.86.89L13.38,6l3.73,1.49,3.56,1.64L24.1,11l3.42,2.23L34.22,18l6.39,5.21,6.11,5.65Zm85,72.15-2.38-.44-2.53-.15h-2.68l-2.68.45-2.53.74-2.38,1-2.23,1.64-1.79,2.08-4.31-6.25-4.76-6.25L111,99.09l-4.31-6.4-3.27-8.33-3-8.63-1.19-4.32L98.34,67l-.44-4.61L98,57.73v-.15l1.34.15,1.19.29,1.19.75,1,.89,2.07,2.08,1.79,2.08,10.12,11.91,9.52,12,9.08,12.35,8.48,12.34Z"/><path class="cls-3" d="M148.18,117.83,151,121.7l2.23,3.87-2.83-.9-2.83-.44-3-.3-3.12.3-3,.44-2.83.75-2.67.89-2.39,1.34-.44-1.34-.75-1.49-.89-1.34-.89-1.34-.6-1.33-.14-1.35.59-1.19.6-.59.89-.59,1.49-1,1.63-.6,1.79-.59,1.94-.15h3.71l3.42.59,5.21,2.53Z"/><path class="cls-2" d="M36,127.65l10.86,7.89L57.43,144l10.11,9.07,10,10-3,1.34-3,1.93-2.68,2.53-2.23,2.83-2.09,6.55L64,181.8l-.15,1.94.15,1.93-1.34-.3L48.05,169.46l-7-8.19-6.84-8.18-6.4-8.48-6-8.63-5.34-8.92-4.62-9.23.6-3.12,3.12,1.19,3.12,1.34,6,3.12L36,127.65Z"/><path class="cls-3" d="M122.44,122.14l-5.2.15L112,123l-5.06,1-4.76,1.64L97.59,128l-4.16,3-1.93,1.64-1.94,1.93-1.63,2.09-1.64,2.23-2.53,4.76-2.23,4.76-1.94,4.91L79,155.77l-.45,2.68-2.38-1.93-.89-1.2L74.54,154l-.45-1.34-.15-1.48v-1.49l.6-1.49,1-4.91,1.48-5.06,2.24-4.91L82,128.69l3.43-4.16,1.78-1.79,2.08-1.64,2.09-1.48,2.38-1.35,2.38-1,2.53-.75,5.21-1,2.67-.3h2.83l2.68.15,2.53.45,2.52.89,2.38,1.19.9.89.89,1,.75,1,.44,1.33Z"/><path class="cls-4" d="M130,132.41l73.64,119,39.13,65.32,54.9,85.84L305,413.45l7.14,10.86L319.42,435l8,10.42-.59,1.63-.3,1.79-.15,4-20.08-24.1-20.1-24.25L266,380.42l-20.38-23.65-46-56.39-57.58-72.9-6.84-8.78-7.14-8.48-7.45-8.33-7.58-8.18L97.3,177.34,81.68,161.12h-.15l.3-4.31.89-4.17,1.49-4,1.93-3.72,2.53-3.57,2.68-3.42,3-3.28,3.13-3,3.57-1.94,4.31-1.93,4.62-1.49,4.76-1,2.37-.15h2.24l2.23.45,2.08.59,1.94,1,1.63,1.33,1.64,1.64,1.19,2.23Z"/><path class="cls-4" d="M160.68,134.79l3.27,6.1,3.57,6L175,158.3l7.59,11.46,7.29,11.9L266,324.19l40.62,77.21L312.28,412l6,10.57,6.1,10.41,6.1,10.56-.44.15-.6.3h-.59l-.45-.15L264.23,345l-11-17.4-10.56-17.56L222,274.64l-20.68-35.11-10.71-17.26-11-17.11-46.86-75,2.68-1.64,3-1,3-.44h3.12l3.12.44,3,.6,5.81,1.48,4.31,5.21Z"/><path class="cls-3" d="M83.46,169.31l-1.78.89-1.49.89-2.68,2.38-2.09,2.68-1.63,3.12-1.19,3.28-.89,3.57-.6,3.57-.29,3.72-1.64-1L68,191l-.74-1.64-.45-1.64-.15-3.57.45-3.42.74-3.72L69,173.47l.89-1.63,1-1.64,1.33-1.49,1.49-1.33,1.49-.75,1.64-.45,1.63-.29,1.49-.3.9.89,1,.9.9.89.59.89v.15Z"/><path class="cls-4" d="M87.78,173.32l8.48,8.48,8.62,8.78,8.64,8.93,8.33,9.07-.3.9,1.93.59,22.32,27.38,65.61,82.72,53.41,63.53,53.86,63.23,8.78,10.56-.59.45h-1.5l-.74-.15-16.81-18.9-67.25-67.84-61.89-65.17-14-15.47-50-52.37L74.23,197.13h-.14l-.15-3.42.15-3.57.3-3.42.74-3.43,1-3.12,1.64-2.83L79.89,175,82.57,173v-.15l2.68-.3,1.34.15,1.19.59Z"/><path class="cls-1" d="M475.94,228.08l.45-.16.29-.44.15-.45.3-.59.15-.45.3-.3.44.15.59.45,1.94,1.79,1.49,2.08,1.19,2.23.89,2.38,1.63,4.91,1.64,4.91L479.21,247l-.45-.89-.29-1v-2.38l-.15-2.09-.3-.74-.59-.6-.6,3.72-.15,3.87.15,3.72.45,3.72,1.33,7.29,1.94,6.84-1.63-.15-1.34-.74-.9-1-.74-1.49-1.19-3.42-.45-1.64-.6-1.48-2.52-6.85-1.79-7.14L467.9,237l-1-7.59h.6l.59.9.3,1,.45,2.08.44,2.08.6.89.74.75.45-4.76.15-4.91,2.83-8.93.59,1,.29,1.19-.44,2.68-.15,1.19V226l.45,1,1,1.05Z"/><path class="cls-5" d="M501.23,247.71l-2.53,2.68-2.53,2.68-2.08,3-1.93,3-1.64,3.12-1.19,3.28-.89,3.42-.45,3.57-.45.59-.59.15-.6-.15-.44-.29-1-1-.31-.6-.29-.44-1.94-4.92-1.34-5.2-1-5.36-.74-5.65,2.38-1.19,2.68-.45,2.83-.15,2.82.15,5.81.45,2.82-.15,2.68-.45Z"/><path class="cls-4" d="M474.89,267.5l-1,.45-1.35.15-1.48.29-.6.3-.44.6,3.42.74,1.79.15,1.93.3,1.79.59,1.63.6,1.49,1.19,1.19,1.49L480,276.58l-3,2.52-2.68,2.83-2.23,3.13-1.94,3.42-1.48,3.42-1.19,3.57-.89,3.57-4.32-3.57-4.31-3.12-4.77-2.83-4.9-2.53,1.48-.89,1.79-.75,4-1.19,4-1.19,1.79-.74,1.79-1-.9-2.53-1.34-2.38-1.49-2.53-1.48-2.53,3.86-.59,4.17-.3-.89-.9-1.19-.74-1.34-.45-1.49-.14-3-.15-3,.15,3.42-4.77,3.12-4.76,2.83-5,2.38-5.21,1.79,4.76,1.63,4.91,2.09,4.91,1.19,2.38,1.33,2.23Z"/><path class="cls-3" d="M515.52,270.33l-5.36.89-5.81.3-.45-1.64-.88-1.49-2.24-2.82L498,262.89l-2.54-2.53.9-1.93,1.19-1.64.75-.89.74-.75,1.33-1.63,2.69,1,2.52,1.63,2.24,1.79,1.93,2.23,1.79,2.38,1.63,2.53,1.34,2.68,1,2.53Zm-16.07-2.83-.75.15-.89-.15-1.79-.89L494.68,265l-.44-.74-.15-.74.89.14.75.3,1.34,1.19,2.38,2.38Z"/><path class="cls-6" d="M653.73,298.15l4.76,4.91,4.17,5.21,3.71,5.65,3,5.65,2.38,6.1,1.79,6.25,1.19,6.4.44,6.69-7.29,2.68-7.58,2.38-7.74,1.79-7.89,1.48-8.18,1.05-8.18.74-8.48.15-8.48-.15-8-.74-8-.6-8.19-.15-8,.3-7.88.74L563.42,356l-7.59,2.09-3.56,1.19-3.58,1.49-9.67,4-9.82,4.31-9.82,4.17-9.82,3.87-10.27,3.27-5.05,1.34-5.36,1-5.35.75-5.36.45h-5.66l-5.65-.3-1.33-.6-1.5-.3,1.64-1.34,1.79-1.19,4.17-1.78,4.46-1.34,4.46-1.19v-.3l-.44-.15-.16-.14.16-.16.44-.14-1.49-.3-1.63-.15-3.13.45-3.12.74-3.13.75-5.8,2.52-2.83,1.49-2.82,1.64-2.53,1.93-2.38,2.23-1.78,2.68-1.35,3,1.35.29,1.19-.29,1-.75.9-1,.89-1,.89-1.19.9-1,.89-.74,1.63-.3,3.87,2.68,4.17,2.23,4.46,1.78,4.61,1.19,4.77.9,4.9.44h5.06l5.06-.15,5.06-.44,5.06-.75,10-1.78,9.67-2.39,8.93-2.52,7.74-2.08,7.59-2.09,15.32-4,7.59-1.79,7.88-1.49,7.89-1.19,8-.74-1.33-.75-1.64-.14-1.79-.15-1.78-.45-4.17-1.78L581,369l-8.77-2.38-8.93-1.79L554.34,363l1.19-.89,1.64-.59,1.64-.3h1.78l3.72.15,3.57.3,6.4,1.19,6.25,1.48,6.25,1.64,6,2.09,5.95,2.52,5.65,2.83,5.51,3.27,5.21,3.87-.15.6-.15.29-1,.6-2.38.15-8-.75-8-.44-7.74.15-7.74.44-7.58.75-7.59,1.19-7.44,1.33-7.29,1.79-7.29,1.79-7.14,2.23-14.14,4.76L507.48,401l-13.69,5.66-5.5.89-5.36.15-5.35-.45-5.21-1-5.06-1.49-5.06-1.78-9.67-4,.15-.59-.15-.45-.74-.15h-.9l-.74-.3-5.51.3-5.8.15-2.82-.3-2.83-.44-2.68-.75-2.38-1.19L427,393.81l-.75-1.63-.14-1.79.44-1.78,3.58-3,3.71-2.53,3.87-2.23,4.17-1.93,8.33-3.43,8.63-2.67,7.74-1.49,8-1.19,16.51-1.94-.89-.44-.89-.3H487.1l-2.23-.15H484l-.74-.3,10-4.31,10.11-4,10.12-3.87,10.41-3.42,10.27-3.27,10.56-3,10.72-2.68,10.7-2.52,7.45-2.83,3.72-1.64,3.57-1.78,3.42-2.09,3.27-2.38,3.12-2.68,2.69-3.27.29-1.48v-1.49l-.44-3-1.2-2.68-1.78-2.53-3-2.38-3.12-2.08L577.55,304l-6.69-3-7.15-2.53-7.29-1.94L549,295.17l-7.59-.89-7.74-.59-7.88-.16H517.9l-15.78.9-15.77,1.19L471.18,297l-1.19-.3,1-3.13,1.48-3.12,1.64-3.12,1.94-3,2.23-2.82L480.7,279l2.82-1.94,3.13-1.48,9.67-.3,10-.75,20.08-1.78,20.24-2.08,10.26-.9,10-.44,10-.15,9.82.29,9.82.9,9.37,1.64,4.76,1,4.47,1.35,4.6,1.48,4.47,1.79,4.32,2.08,4.31,2.23,4.16,2.53,4.17,2.83,12.65,10.86Z"/><path class="cls-4" d="M460,279.55l-3.87,1.64-3.86,1.19-4,1.34-4,1.78-12.65-2.82,2.23-2.09,2.38-1.78,2.53-1.64,2.68-1.19,5.51-2.23,5.65-2.23,1.49.3,1.19.74.89.89.89,1.19,1.49,2.68,1.49,2.23Z"/><path class="cls-1" d="M466.27,302.17l-7.59-1.05-8-.89-8.19-.59-8.32.15-4,.29-4,.6-3.72.89-3.72,1.34-3.43,1.64-3.12,2.08-3,2.53-2.68,3-1,2.53L404.23,317h1.33l1.64-1.63,1.64-1.79,1.79-1.49,2.08-1.19h-.15l-1.34,8.93-1,9.23-.3,9.37.15,4.61.44,4.61-1.63-1.93-1.49-2.23-2.53-4.62L403,334l-1.19-5.2-.6-5.36.15-5.2.75-5.07,1.48-4.75v-1.34l.3-1.05.44-.89-.14-1-1.19.74-.89.9L401,308l-1.35,2.23-.89,1-1.34.6.3-3.57.89-3.43,1.49-3.12,1.93-3,2.38-2.82,2.68-2.39,3-2.22,3-1.79-.3-.45-.3-.3-.75.16-.88.29-.9.3-2.68,1.34-2.83,1.19-1.33.45-1.34.14-1.49-.14-1.49-.6,3.27-1.78,3.43-1.49,3.42-1.19,3.72-.75,3.72-.59,3.72-.3h3.87l3.72.3,7.58,1,7.45,1.93,7.13,2.24,6.55,2.82,2.68,1.94,2.53,1.78,2.52,1.94,2.24,2.38Z"/><path class="cls-7" d="M586.78,312.73l.89,1.19,1,1.19,1.64,2.53.59,1.34.3,1.34-.3,1.49-.74,1.48-2.83,2.83-3.12,2.53-3.13,2.23-3.42,1.79-3.42,1.78-3.57,1.34-7.44,2.53-7.74,1.78-3.86.9-3.87.89-7.89,1.78-7.59,1.94-6.69,2.08-6.7,2.23-13.24,4.47-6.54,2.53-6.4,2.82-6.4,3.13-6.1,3.42,2.24-2.83,2.07-3.42,1.64-3.57,1.34-4,.9-4.16.44-4.17-.15-4.16-.74-4-1-1.34-.89-1.49L485,331.92l-1-.89-2.38-5.21-2.83-5.21-3.27-4.91-1.93-2.38-2.09-2.08,1.64-.59.59-.75.6-.89-.29-.59-.45-.15-1.05-.15-.59.15-.6.15h-1L466.86,305l.89-.15.9-.29.74-.3.6-.75-.6-1-.45-.89-.29-1.19.44-1.34,15-.44,15.47-.75,15.62-.74L523,297h7.74l7.58.3,7.45.74,7.43,1,7.15,1.49,7,2.08,6.69,2.68,6.55,3.42,6.25,4Z"/><path class="cls-5" d="M461.36,304.4l1.79.89,1.78,1,1.64,1.34.59.89.3,1-4,1.64-3.87,1.93-3.86,2.24L452,317.94l-3.57,2.67L445,323.44l-3.28,3.12-3.13,3.28-5.95,6.84L427.43,344l-4.6,7.59-3.72,7.74-1.94-2.68-1.34-2.83-.89-3.12-.75-3.28-.59-6.69-.15-3.27-.15-3.28V327l.6-6.84.59-3.28.89-3.12.9-3.12,1.34-3.13,2.38-1,2.53-.89,5.35-1.34,5.51-.59,5.65-.3,11.46.44,5.5.3,5.36.3Z"/><path class="cls-1" d="M517.15,306.93l-2.83.3-3,.74-3,.74-3,.75-3.13.59-3.12.3-3.13-.3-3.12-1,.89-1,1.19-.6,1.49-.44h1.64l3.57-.15h1.63l1.64-.3,12.2.3Z"/><path class="cls-3" d="M475.94,321.06l2.38,4.91,1.79,5.06.44,2.68.3,2.82v2.83l-.3,2.83-3.42,5.5-3.87,5.36-2.08,2.53-2.38,2.53-2.53,2.23-2.83,1.93-4.76-.59-4.61-.3-4.76-.15-4.76.45-1.05-5.51-.88-2.68L441.57,351l-1.49-2.52-1.63-2.24-2.09-1.93L434,342.48l7.44-8.62,3.87-4.17,4.17-4,4.31-3.72,4.46-3.42,4.61-3.12,4.62-2.68,1.48.59,1.19.9,2.09,2.08.89,1.19.9,1.34,1.78,2.23Z"/><path class="cls-5" d="M476.24,367.33l-7.89.89-7.74,1.34L453,371.35l-7.29,2.08-1.79.15-1.64-.15-1.63-.45-1.49-.74-3.12-1.94-2.68-2.37,1.34-1,1.48-.75,3.28-.89,3.57-.6,3.42-.44,6.1.29,5.95.3,5.66.45,5.8.74.59-.3-.59-.89-1.05-.74-1-.6-1-.45,3.27-2.67,3.13-3,2.83-3.27,2.67-3.42L481,347l1.79-3.72,1.19-4,.59-4.16,1.05,4.31.3,4.31-.45,4.32-1,4.16L482.93,356,481,360l-2.38,3.72-2.37,3.57Z"/><path class="cls-3" d="M436.51,349.33v.59l-.3.45-.89.45-1.34-.45-1.19-.89-.89-1.19-.3-1.49.3-.3.15-.3-.15-.59V345l.15-.15.45-.14,1.33.59,1.19,1,.89,1.49Z"/><path class="cls-4" d="M417.62,363v1.64l-.3,1.64-.59,3.42h1.19l5.5-10.86.74,1.34,1.19,1.34,2.53,2.53,2.38,2.68.9,1.48.44,1.49,1.94,2.08,2.23,1.49,2.23,1.19,1.19.6,1,.59-3.72,1.94-3.87,2.08-3.86,2.23L427,383.25l-1.64,1.63-2.08-.74-2.08-.89-2.08-1-1.79-1.34-3.42-3.12L412.41,376l-1.34-1.79-1.79-5.8L407.8,362l-.9-6.55v-3.28l.16-3.42,1.19.3,1,.6,1.79,1.33,1.19,1.79.9,2.08.74,2.09.89,2.23,1.19,2.08,1.64,1.78Z"/><path class="cls-2" d="M403.63,356.77,402,359.3l-2.07,2.23-2.39,2.08-2.38,1.79-5.35,3.12L387.12,370l-2.68,1.34-4,1.63-4.17,1.49-4.47,1.19-4.61.75-4.76.44h-4.61l-4.62-.59-4.46-1.19-.74-.6-.45-.59-.3-.6.16-.59.44-1.49.3-.74.3-.75,1.63-1.34,1.64-1,3.87-1.49,3.87-.89,4.31-.45h8.48l4.17.15,4,.15.3-.89L364.65,362l-.29-.9v-.74l.14-.6.45-.59,1.34-1.19,1.34-.9,4.31,1.35,4.47.89,4.61.59h4.76l4.61-.29,4.46-.75,4.32-1.19,4.16-1.79.3.9Zm.6,7.44-11.75,6.25v-.75l11.15-8,.6.3.29.74v.89Z"/><path class="cls-8" d="M585,372.24l-4.16.74-4.32.6-4.31.59-4.32.9-21.72,5.2L542.44,378l-4-1.93-4.17-1.64-4.16-1.34,3.71-1.78,4.17-1.94,8.18-3.72,5.21-.14,5,.29,4.92.6,4.75.89,9.53,2.38,9.37,2.53Z"/><path class="cls-9" d="M542.44,381.61,534,383.84l-8.48,2.23L517,388.16l-8.77,1.93-8.78,1.34-8.79.6h-4.6l-4.47-.3-4.46-.6-4.62-.89,1.64-1.63,1.79-.9,2.08-.59,2.23-.15h4.62l2.23-.15,2.08-.59,8.93-2.09,8.62-2.53,8.63-3,8.48-3.27,2.54.14,2.52.3,4.91,1.34,4.62,1.93,4,2.53Z"/><path class="cls-10" d="M469.39,386.82v.3h3.12l-.44.89-.6.6-1.19.74h-1.34l-1.48-.3-3.28-1.63-1.48-.9-1.34-.59-.45-.6-.59-.45-.45-.29L460,384l2.38.59,2.53.74,2.38.74,2.08.75Z"/><path class="cls-4" d="M471.77,410l1.49,5.65,1.19,5.66,1,5.8.6,5.95.15,5.8-.3,5.8-.89,5.66L473.41,456l-.3.3-.15-1.64.15-1.63.15-1.79-.15-1.49h-.6l-1.93,5.51-2.08,5.35-1.34,2.68-1.63,2.53-1.94,2.23-2.23,2.08-8.19-6.39-.88.3-.9.59,3.12,3,3.12,3.27,2.83,3.42,2.69,3.57,2.23,3.87,1.78,3.87,1.49,4,.74,4.16-.74,2.38-1.19,2.23-1.64,1.79L464,502l-4.16,2.83-4.17,2.53L449,510.6l-7,2.68-7.29,2.38-7.59,1.79-7.74,1.34-7.88,1-7.89.59h-8l-8.19-.15-7.88-.74-8-1-7.73-1.34-7.59-1.79-7.44-2.08-7-2.53-6.84-2.68-.74-1.49-.75-1.48-1.34-3-.6-1.63-.14-1.64v-1.64l.44-1.63,1.2-1.79,7.43,1.34,7.44.75v-.3l-2.23-1.34-2.53-.9-2.83-.59-2.68-.6-2.38-.89-1.93-1.48-.74-1-.45-1.19-.3-1.34v-1.78l.89-4.17.6-1.93,1-1.94,1.05-1.78,1.48-1.49,1.64-1.34,1.93-.89,9.23,1.49,9.22,1.93,9.22,2.08,9.23,1.94.3-.75-8.63-3L360,471.92l-9.23-2.23-9.22-1.93,1.19-1.94,1.49-1.34,1.78-1,1.79-.74h3.72l3.72.59,3.72.6h1.93l1.79-.15V463L355,460.76l-8-1.63-8.33-1-8.48-.3-1.05-2.38-.59-2.53-.15-2.68.3-1.19.59-1.19.45-.59.45-.3,1.33-.15,1.34.29,1.35.75,3.71,3.42,3.87,2.83,4.16,2.38,4.47,1.93,4.61,1.49,4.91,1,4.91.74,5.21.45,10.26.3,10.57-.3,10.27-.3,5.05-.29h4.91l6.4-.9,6.55-.44,6.69-.45,6.55-.45,6.55-.74,6.24-1.34,3.12-.89,2.83-1,3-1.34,2.67-1.64,1.79-2.68,1.34-2.82.75-2.83.44-2.83V438.3l-.3-2.83-.74-2.83-.9-2.82-2.23-5.66L459,418.51l-1.49-2.68L456,413.3l-1.33-2.53-1.19-2.53-1.64-2.08-1.64-2.23-1.93-2.08L446,400.21l.73-.44,1.19-.16,1.2.16,1,.44L471.77,410Z"/><path class="cls-3" d="M507.18,405.71,503.61,412l-3,6.55-2.24,7-1.63,7.29-.45,3.72-.3,3.72v3.57l.15,3.72.6,3.72.74,3.57,1.19,3.57L500,461.8h.29v-2.23l-.29-2.38-.45-2.38-.14-2.23,1.63,3.42,1.79,3.42,2.08,3.72,2.23,3.72,2.53,3.72,2.83,3.57,3.12,3.42,3.27,3.13-1-.15-1-.45-2.09-1.34-1.93-1.63-1.93-1.34-.59.3,3.42,4.31,2.67,4.46,1.05,2.38.89,2.54.59,2.52.31,2.68-.9.45-.44-.15-.31-.45v-.74l-.14-1.79-.3-.89-.44-.45h.14l-.89-1.33-.6-1.34-.74-1.34-.45-.45-.74-.45.59,2.24.6,2.38.3,2.53.15,2.52-.15,2.68-.45,2.53-.74,2.38-1,2.24-2.09,1.78-1.18.3H509l-.6-.3v-.59l.3-.45.3.15h.29l.16.14.59.16,2.68-3.73-.6-.59-3.57,3-3.27,3.28-3.58,3.12-1.78,1.34-2.08,1,1.48.3,1.49-.3,1.34-.74,1.34-.75.89-1.33,1.19-.75,1.34-.44,1.49-.15,1.34-.3,1.34-.3,1-.74.89-1.34-.74,3.42-.89,3.42L510,517.45l-1.49,3.27-1.93,3.12-2.09,3-2.23,3-2.38,2.68-5.5,5L488.44,542l-6.11,3.72-3.27,1.49-3.12,1.34-.15.15-8,2.08-4.16.9-4.17,1v.3l3,.29h3l3-.29,3-.45,5.81-1.49,2.82-.74,3-.75.75.89-.9,7.89-.45,8.18-.29,8.19-.3,7.73h-1.49l-1-2.53-.6-2.67-.59-2.68-.89-2.68-.45,1.64v1.63l.45,3.57.59,3.42v1.64l-.29,1.64-2.68-1.64-2.68-1.93L467,577.4,464.48,575,462,572.79l-2.54-2.08-2.53-1.93L457,570l.45,1.19,1.64,1.93.88,1,1.05.9.74,1.18.45,1.19,1.19,3.57v1.94l-.29,1.63-3.43-3-3.27-3-5.8-6.39-5.36-6.7-5.06-7.29v-.59h2.53L445,557l2.22-.74,2.24-.6-11.31-1.19-5.51-.89-5.35-1-5.36-1.34-5.36-1.49-5.05-1.93-5.06-2.24,3.42-3.71-.6-.3-3,1.49-3.13,1.63-2.82,2.08-3,2.24-5.5,4.91-5.21,5.5h-.15l-2.68,3-2.22,3.12-4,6.4-.9-1-.44-1.34-.3-2.83-.15-3.12-.15-1.49-.6-1.34-.89,1.64-.44,1.93-.15,2.08-.3,2.09-.75-.75-.44-1-.6-2.23-.44-1-.59-.9-.75-.44-1.34-.15-.15,1.19.3,1.19.6,1.19.59,1,.3,1v.9l-.6.89-.59.3-.89.3-2.09-4.17-1.48-4.31L363,557l-.89-4.61-1.19-9.52-.74-9.82-.15-3.13v-2.82l.45-2.83.74-3.27,14,1.78,7.13.6,7.15.44,7.14.15,7.14-.15,7-.3,7-.74,7-1,6.69-1.49,6.7-1.78,6.4-2.38,6.24-2.68,5.95-3.12,5.81-3.73,5.5-4.16,1.64-1.93,1.49-1.64.89-1.94.3-1,.14-1.19-.14-3.28-.6-3-.89-3-1.19-2.68-3.12-5.35-3.42-5.36,2.38-2.68,2.52-2.82,1.94-3,.74-1.64.45-1.93,1.78-1.19,1.49-1.34,1.19-1.49,1-1.78.75-1.64.59-1.93.74-3.87.16-4.17v-4.16l-.16-4-.15-3.87-.29-5.21-.74-4.91-1.19-4.76-1.19-5.05,4.31.89,4.17.29,4-.29,4-.6,4-1.19,3.86-1.19,3.87-1.34,3.72-1.49Z"/><path class="cls-11" d="M532,485l.59,1.49.3,1.49.15,2.83-.6,2.82-1.19,2.68-1.63,2.53-1.94,2.53-3.87,4.76L520,509.71l-2.24,1.64-2.22,1.33.29-3.86.59-3.72.75-3.72.89-3.87.89.15,1.05-.3.89-.74.59-1-.15-3.28-.59-3.27-1-3.12-1.34-3,.9-.15.89-.3.74-.59.59-.9-2.22-2.23L517,476.24,513.13,471l-3.42-5.65-2.83-5.66,6.7,5.8,6.7,6.25,6.24,6.4,2.83,3.42L532,485Z"/><path class="cls-2" d="M339.21,461.21l-3,2.08L335,464.48l-.88,1.34-30.65-2.38,8.62-1.49,8.78-.89,9.08-.3,9.22.45Z"/><path class="cls-3" d="M345,462.1l-1.35.3-1,1-.9,1.19L341,466l-.9,1-1,.45h-.44l-.75-.15-.74-.45-.75-.74,1.79-1.79,2.23-1.19,2.24-.74,2.38-.3Z"/><path class="cls-2" d="M328.06,469l-1.64,1.48-1.49,1.79-1.34,1.93-1.19,2.09-.74,2.23-.6,2.23-.15,2.53.3,2.53-9.37-3.28-9.52-4-4.77-2.23-4.46-2.53-4.32-2.83-4.16-3.12,5.35-.6,5.51-.3,10.87.15,10.86.75L328.06,469Z"/><path class="cls-3" d="M336.09,470.13l-1.79,1.94-1.49,2.08-1.34,2.23-.89,2.24-.75,2.37-.44,2.54v2.52l.15,2.68-1.78-.44-1.94-.45-.74-.45-.75-.74-.44-.74-.15-1.19.15-2.24.44-2.38.75-2.23,1-2.08,1.49-1.93,1.48-1.79,1.93-1.34,2-1.19,1.63.15h.89l.6.44Z"/><path class="cls-2" d="M321.51,490.07l-.9,2.53-.74,2.83-.15,2.67.3,2.54-7.59-4.92-7.44-5.5-3.57-3L298,484l-3.28-3.42-3-3.57L299,480.7l7.44,3.57,7.44,3.12,7.59,2.68Z"/><path class="cls-3" d="M329.24,492.45l-.44,3.43v3.42l.44,3.42,1.19,3.12-1-.74-1.19-.6-2.68-1-1.19-.59-1-.75-.6-1-.3-1.49V498l.14-1.79.45-1.78.6-1.64,1-1.19,1.19-.6h.75l.74.3.89.45,1,.74Z"/><path class="cls-1" d="M499.15,509.26l-.3,1.05-.59.89-1.64,1.64L494.39,514l-1,.59-1.05.45-1.49.29-1.34.45-1.18.15-.6-.15-.59-.3,3.12-1,3.13-1.49,5.8-3.72Z"/><path class="cls-12" d="M375.36,575.62l1.05,4.16.89,4.62.74,4.31.6,2.09.89,1.78H380l.29-.3.16-.44V590.5l6.39-2.38,6.24-2.68,4.62.15,4.62.3,2.22.44,1.94.89,1.63,1.34,1.19,1.94-1,1.49-8.64,2.52-8.18,3.13-8.18,3.57-7.74,4-7.73,4.46-7.59,4.76-7.44,5.06-7.44,5.35L341,627.4l-4.32,2.37-4.61,2.09-4.76,1.63-4.76,1-5.06.6-5.06-.15-5.21-.89.45-1.94.75-1.93,1.93-3.57,2.23-3.42,2.08-3.58,1.79-1.93,1.78-2.23,1.64-2.23L321.8,611l1.94-1.79,2.23-1,1.19-.3h1.34l1.49.3,1.48.59,8.63,8,.45-.74.15-.75-.15-.74-.45-.9-1.33-1.93-.75-.89-.74-.9-1.79-1.48,8.18-1.79,8-2.38,7.59-3.12,7.14-3.87-4.32.89-4.31,1.19-4.17,1.34-4.16,1.34-8.34,2.53-4.31.89-4.46.45-2.09-.74-2.22-.6-2.09-.15-2.23.6-8.48,9.22-6.1,1.64-6.55,1.19-6.84.74-7,.3-7-.15-6.85-.45-6.85-1.19-6.39-1.48.6-2.09,3.71-3.27,3.87-3.12,4-3,4-2.68,4.17-2.68,4.31-2.23,4.32-2.23,4.46-1.93,2.23-.6,2.23-.29,1.05.14.89.3.89.6.74,1,1.35,1.49,1,1.48,1.49,3.43,1.19,3.41.59,1.79.6,1.79.74-.3.29-.6.16-1.33-.3-2.83-.6-2.68-2.23-4.91,5.66.89,5.65.45,5.66.3,5.79.15,11.46-.3,11.76-.6.88-.44,1.2-.15.74-.3v-.45l-.15-.59-12.65.3-12.79-.15-6.4-.3-6.25-.44-6.24-.9-6.1-1.19L304.4,589l-1.34-.75-2.68-.74-2.68.15-2.67.59-2.83,1-2.68,1.33L287,592.13l-2.38,1.49-2.38-.3-2.08-.44-1.94-.89-1.64-1.19,1.05-1.19,1.33-1.05,3.13-1.63,1.64-.6,1.64-.59,3-1.49,5.06-1.34,4.91-1.34,4.9-1.34,4.91-.89.45.89.15.9v4.16l.15,1,.6.74.89-1.63.59-1.94.3-2.23V579l9.82,3.12,9.82,3.13,4.91,1.34,5.21,1.19,5.21.74,5.35.3,14-.3.29.75.3.59.3.6,1.19-2.54.74-2.52,1.2-5.21.59-5.2.6-5.66,1.18.15.75.45.59.89.45.89.59,2.23.45.89.59.75Zm91.5,5.8,3,2.38,3,2.38,1.48,1,1.64.6,1.64.3,1.93-.16h.15l3.87,5.51,4.46,5.36,4.61,5.06,4.91,4.61h1.64l.14-1-.29-.9-.6-.74-.59-.74-.6-.3,12.21,1.49,12,1.63,12.35,1,6.1.15h6.25l.59.3.3.3.15.74v.75l.15.44.45.3v-.15l.45-.3.29-.59.15-.6.15-.74.15-.75.45-.44.59-.15.89.3,3.42,1,3.43,1.19,3.27,1.64,3.12,1.93,6,4.46,5.81,4.91-.3,1-.75.75-1.93.89-3.42-.3-4.17-4-4.16-3.57-4.47-3.13L554.34,614l-2.52-1.19-13.39-.15-6.55-.44-6.7-.6-6.54-.89-6.4-1.19-6.1-1.49-6.1-1.78.29.74.45.6,1.34,1,.75.44.74.45,1.34.74,4.91,1.49,4.91,1.19,5.21,1,5.21.9,5.2.59,5.35.15H541l5.2-.45.15,1.49-.15,1.79-.6,3.57v2.38l.3,2.23.45,2.08,1.19,2.08.45-.89.3-1-.15-2.38L548,624v-1.19l.15-1,.44-1.79.45-1.78.45-.74.44-.6.89-.3h1.05l3.12,1.34,3,1.64,2.83,2.08,2.82,2.38,4.92,5.21,4.46,5.35,2.68,5.06,2.53,5.06-3.72,1-3.87.3h-3.72l-3.86-.45-3.73-.74-3.57-.89-7-2.24v-.14l-2.23-2.24-2.09-2.38-4-4.91-4.17-4.9L533.81,625l-2.53-1.93v-.15H529.8l-1.34.3-1.19.59-1.19.45-8.49-2.83-8.33-3.12-8-3.72-4-2.23L493.49,610l1.05,1.94,1.33,1.64,1.64,1.63,1.78,1.34,4,2.38,3.87,2.53,7.58,2.83,3.88,1.34,4,1v.15l-.44,1.19-.6,1.19-.44,1.33-.3,1.49h.59l.45-.14.59-.9.45-1.19.3-.59.59-.3,1.49-1.19,1.79-1,1.93-.6H531l2.82,2.38,2.68,2.38,2.23,2.68,2.24,2.83,3.71,5.8,3.13,6-.89.6-5.66-.45-5.36-1-5.35-1.34-5.06-1.63-4.91-2.09-4.91-2.38-4.76-2.68-4.61-2.67-9.22-6-9.08-6.1-9.23-6.09-9.37-5.36-8-2.68-8-2.83-3.86-1.78-3.72-2.09L442.17,599,439,596l.15-1,.45-.75,1.78-1.33,2.08-.75,1.94-.44,4-.45,3.86.45,3.87.89,3.87,1.34,3.72,1.49L468.5,597l3.57,1.49h.15l3.42,4.46,1.94,2.09,1.93,1.78h.15l.59-.3-3.12-5.8-3.72-5.5-1.94-2.68-1.78-2.68L466,584.54v-3.12Z"/></g></g></svg>