<svg xmlns="http://www.w3.org/2000/svg" viewBox="0 0 804.01 528.8"><defs><style>.cls-1,.cls-10,.cls-2,.cls-3,.cls-4,.cls-5,.cls-6,.cls-7,.cls-8,.cls-9{fill-rule:evenodd;}.cls-2{fill:#d14f2e;}.cls-3{fill:#f3d239;}.cls-4{fill:#b0d5ea;}.cls-5{fill:#fff;}.cls-6{fill:#42a3df;}.cls-7{fill:#f1f0f0;}.cls-8{fill:#33358d;}.cls-9{fill:#cadbe3;}.cls-10{fill:#e1a03b;}</style></defs><title>Fichier 3</title><g id="Calque_2" data-name="Calque 2"><g id="Calque_1-2" data-name="Calque 1"><path class="cls-1" d="M205.59.15l-.44,1.62-.59,1.64L204.41,5l.15.74.29.59,3.71.44L211.81,8l3.12,1.63,3,2.22,4.44-2.22,4.59-1.78,4.74-1.63,5-1.33,5-.89,5.18-.74,5.33-.3h5.19l5.33.3,5.18.59,5,1,5,1.33L282.77,8l4.59,2.07,4.44,2.37L296,15.26,301.43,20l5.18,5,4.89,5.33,4.3,5.49L320,41.47l3.7,5.78,3.26,5.92,2.81,6.22,2.52,6.38,2.22,6.37,1.63,6.66,1.33,6.81,1,6.82.59,7,.15,7.11-.3,7.26-.88,7.7-.74,3.56-.89,3.7-1,3.4L334,135.53l-1.48,3.41-1.78,3.26-1.63.59-1.93.29-3.85.45-4-.15h-3.7l-8.74-1-8.74-1.63-8.44-1.92-8.3-2.52-.74,3-.59,3.11-.89,3-.74,1.48-1,1.18-2.37,2.52-2.81,1.78-3,1-3.26.6-7.11-1.48-3.41-.74-3.11-1.19-4.29,1.78-4,2.07-3.56,2.52-3.26,3-3,3.11-2.67,3.26-2.37,3.7-2.07,3.71-1.93,4-1.77,4-3,8.29-2.66,8.3-2.52,8.14-1.78,9.19-1.48,9.33-.3,4.74v4.59l.6,4.59,1.18,4.59,3.12,1.93,2.66,2.37,2.22,2.81,1.93,3,1.77,3.1,1.63,3.11,1.78,3,2.08,3L244,291.65l7,12.89,7,12.74L265.14,330l7.55,12.74,7.85,12.45,8,12.44v.14L300.84,381l5.48,1.78,5.33,1.92L322,389.26l10.22,4.89,10.22,5.19,10.07,5L362.9,409l5.33,2.08,5.48,1.77,5.48,1.49,5.63,1.18,16.44,3.11L418,421.7l16.74,2.67,8.44,1.18,8.6.74,11,1.34,11.11,1.18,11.11.74,11.41.6,11.26.29,11.55.15,11.41-.15,11.55-.45,17.33-.44,16.89-.74,16.73-1.18,16.45-1.49L626,424.52l16.29-1.93,32.88-4.29,12.59-1,12.59-.44h12.3l6.22.29,6.07.59.6.6.44.59.29,1.48L726,421.7l-.44,1.19-1.34,1.48-1.48,1.33-3,2.22-1.48,1-1.49,1-3,2.22,8.44-.15,8.45-.74,8.44-.89,8.59-.44,13.34-1.19,13.47-1.48,6.67-.44,6.66-.3,6.52.15,6.37.59,1.33.59,1.19.75.6,1,.14.74-.14.89-1.19,3.41L801.05,438l-2.37,3L796,443.77l-3,2.52-3.11,2.37-3.26,2.22-3.11,1.93V453l-4.15,2.38-4.14,2.07-4.3,1.92-4.45,1.93,2.23.74,2.51.74,2.52.89,2.37,1,.45,1.18-.15,1.19-.59,1-1,.89-1.19.89-1.18.89-1,.74-.89.89-6.81,3.55L756.61,479l-7.26,2.37-7.4,2.21-7.41,1.79-7.7,1.48-7.56,1.47-7.7,1.49-14.66,1.78-14.67,1-14.51.44-14.37-.29-14.22-.89-14.22-1.33-14.07-1.78-13.93-2.37L583,483.77l-13.77-3.11-13.63-3.26-13.48-3.56-26.81-7.7-26.22-8-23.25-6.08-23.26-5.62-23.25-5.93-11.41-3.25-11.4-3.56-17.93-4-17.92-4.44-8.89-2.52-8.59-2.81-8.59-3-8.44-3.26-.74.3-.15.74v.89l.29.89.3,1.78.74,1.48.74,1.48,1,1.33,2.52,2.52,2.81,2.22,2.67,2.37,2.37,2.52.89,1.33.88,1.63.45,1.63.3,1.93-2.08.88-2.07.6-2.22.29-2.37.15-4.6-.29-4.59-.15L318,439l-5-1.48-4.88-1.78-5-2.07-.74.6-.3.59-.29,1.47-.3,1.19-.59.3L300,438l-4.3-.44-4.14-.74-4.15-.89-4.15-1-7.85-2.67-7.7-3.26-7.56-3.7-7.4-4-14.52-8.45-1.63.89L235.22,415l-.89,1.48-.74,1.93-1,4-1,3.85-.59,4.9-.3,4.88-.15,5,.15,5,.44,5,.74,4.89,1,4.74,1.33,4.44,6.52,2.07L248,469.1l7.4,1.34,7.41.88,7.41.74,7.4.3,7.56-.15,7.55-.45,7.55-.73,2.52.44,2.37.74,4.6,1.93,4.14,2.52,4,3,3.85,3.26,3.56,3.4,7.4,7,.45,1.18.29,1.33-.29,1.34-.45,1.18-1.92,1.19-1.78.89-4,1.33v1.18l1,1.93,1.33,1.93,1.33,1.77,1.49,1.78,1.18,1.78,1,1.92.44,2.08.15,2.22-2.22,1.63-2.37,1-2.52.45-2.52.14-5.48-.29-5.63-.15L306,520.2,299.65,519l-6.37-1.48-6.22-1.34-.44,2.52-.45,2.81-.74,2.83-.59,1.18-.89,1.33V527L282,528.8l-5.49-1-5-1.78-5-2.22-4.74-2.67L257.14,518l-4.59-3.41-8.74-7.25-8.59-7.71-8.74-7.25-4.59-3.26-4.59-3-4.89-2.52-5-2.06-8.29-3.71-8.15-4-3.85-2.37-3.71-2.66-3.4-3.12-3.11-3.55-.59-3,.15-1.34.44-1.18v-.15l2.66-1.34,3-1.18,3-.89,3-.59,3.11-.29,3.11-.16,3.12.3,3.1.45V453l15.41,12.6.74-.3.59-.29-4-16.45L209,432.22l-5-16.15-5.18-16-6.22-.6-6.07-1L180.86,397l-5.34-2.08-.59,1-.29,1.18-.3,2.82-.15,2.82-.3,1.47-.44,1.19-1,3-1,3.11-.59,1.33L170,414l-1,1-1.19.74-1,.29h-1l-.89-.15-.74-.44-1.33-1.33-1-1.34-.59-1.33-.3-1.33-.74-1-.44-.45-.75-.14-4.73,4-4.3,4.15-4,4.29-3.85,4.45-7.26,8.88-7.41,9.34-2.81,4.44-2.52,4.44L119.83,457l-1.93,4.58.74.6,1,.15,1-.15.89-.6,3.85-2.22,3.85-2.22,4.15-2.22,4.15-1.63,4.29-1.19,2.07-.29h2.23l2.22.15,2.07.59,2.23.74,2.22,1.19,2.51,1.33,2.38,1.63,1,.89.74,1.18.6,1.19.14,1.48L161,463.77l-1.63,1.33L156,467.32l-3.7,1.78-4,1.48-4.15,1.18L140,473l-4,1.48-3.86,1.63-6.22,2.82L120,482.14l-5.78,3.7-5.62,4-11.11,8.59L86.65,507,81,511.17,75.4,515l-5.78,3.4-6.08,3-6.22,2.37-6.66,1.63-3.41.59-3.55.29-3.56.16-3.7-.16-7.11-1.77.15-3,.89-2.66,1.33-2.67,1.63-2.51h-4l-4.3.44-8.59,1.18-4.29.3-4.3-.3-1.92-.44-2.08-.59-1.92-.89L0,512.21V508.8l.74-3.11,1.33-3,1.63-2.81L8,494.43l4.29-5.18-.59-.6-.89-.3L9,487.91l-.74-.44L7.7,487l-.29-.75v-1l1.92-3.1,2.22-2.82,2.52-2.66,2.82-2.52,5.77-4.74,3-2.37,2.81-2.37L34.51,463l8.15,1,8.44.74,8.45.44H68l8.44-.44,8.29-.74,8-1.19,7.85-1.63,1.77-2.82,1.63-3,2.82-6.06,2.81-6.08L113,437.4l-.74-.89,2.07-5.92,1-3,.59-2.82-.74-.59-.89-.15-1,.15h-1v-11.7l-.6-11.41L110.35,390l-.89-5.33-1.18-5.48L107,372.67l-1.63-6.21-1.93-6.38L101.31,354l-2.21-6.07L96.57,342l-2.66-5.92-3-5.78-3.11-5.62-3.26-5.64L81,313.42,77.32,308l-4-5.34-4.15-5.33-8.74-10.37L47,272.25,33.18,257.73l-6.52-7.55-6.07-7.56L15,234.77l-5-8.14-.44-1.49-.15-1.48V222l.3-1.48,1-3,1.62-2.67,2.53-1.63,2.51-1.48,2.81-1,2.67-.88,3-.59,2.82-.3,6.07-.3,5.93.3,6.22.74,5.92.89,5.92.88,8.6,2.53,8.29,3,8.15,3.41,8,3.85,7.85,4.29,7.7,4.59L114.8,238l7.4,5,5.63-1.48,5.48-2.07,5.33-2.52,5-3,5-3.4,4.89-3.56,9.33-7.85,6.82-8V197.74l-2.37-3.7-1.93-3.7-3.55-7.71-1.78-3.7-2.07-3.85-2.23-3.56-2.81-3.4-5.77-2.23-5.49-2.81-2.52-1.48-2.66-1.93-2.37-1.92-2.37-2.37L127.24,160l-4.74,4.3-5,3.7-5.33,3.26-5.63,2.52-2.82.88-3.1.75-3.11.59-3.12.29H91.1l-3.41-.14-3.11-.89-3-1.19-2.52-1.78-1-1-.89-1.34-.44-2.52-.15-2.66,1.48-1.78,1.63-1.33,2.07-1,2.08-.74,2.37-.44,2.22-.3H90.8l2.37.3,1.63.44,1.48.44-.59-6.07,5.33-.14,2.81-.15,2.67-.45,2.67-.74,2.51-1.18,2.37-1.48L116,148l1.92-4.74,1.49-5,1-5.19.59-5.33.3-5.33-.14-5.48-.45-5.48-.74-5.34-.89-8.59v-.15l-3.26-3.4-2.67-3.71-2.07-4.14-1.48-4.3-1.18-4.44-.89-4.74-1-9.48-1,1.18-.59,1.34-.74,1.18-1,.89-.74-1.33L101.76,65l-.29-1.33-.16-1.48.3-3.11.89-2.82L104.58,53l2.66-3,3-2.38,1.63-.74,1.78-.74-3.7-2.81,1.33-1.34,1.48-1,1.48-.74,1.63-.74,3.41-.75,3.55-.29L128,39.69l5,1.78,5,2.08,5,2.07L148,47.54,153.16,49l2.66.44,2.67.3h2.81l2.82-.15.45-.89v-1l-.45-1.92-.74-1.93-.44-1.92v-.15l.14-2.37.75-2.08L165,35.55l1.63-1.78,2.07-.59,2.08-.15,1.92.29,1.93.45,3.55,1.48,3.56,1.63.88-1.33,1.19-1,2.37-1.93,2.67-1.77,2.51-2.22.15-2.52-.15-2.52-.14-5.19V16l.59-2.37.89-2.22,1.77-1.92.3.44.15.6.3.73.44.6.3-3.26.29-1.78.59-1.48.9-1.48,1-1.33,1.34-1,1.77-.74,1.63-.59.89-.15,1.18.15Z"/><path class="cls-1" d="M202.78,11.85l.74-.6.59-.73.59-.75,1.19-.29,2.07.44,2.08.89,1.77,1.34,1.78,1.33-8.74,6.07-4.59,3.11-4.59,3.11h-.89l.3-1.63-.15-1.63-.59-2.81-.74-2.82-.15-1.33.29-1.48,3.11,4,.9-1.19.59-1.33.59-3,.15-3.26.14-1.48.45-1.48,1.78-2.82.29.89V9.92l.45,1,.59.89Z"/><path class="cls-2" d="M302.47,26.36l5,5.34,4.6,5.77,4.29,5.93,4,6.22L323.8,56l3.11,6.67,2.51,6.81,2.23,7,1.77,7.11,1.19,7.11.74,7.41.15,7.25-.3,7.41-.89,7.4-1.48,7.41-2.07,7.26-.45,1.63-.59,1.33-.74,1-.89.74-1,.59-1.19.3-2.67.15-5.77-.6-2.82-.29H312l-4.15-.74-4.15-.89-8-1.78-4-1-3.7-1.18-3.85-1.63-3.56-1.78-4.88-1.18-4.74-1.34-9.48-3.4L252,121.16l-9.63-3.11h-.15l-4.59-1.63-4.74-1.33-4.89-1-5-.74-5.18-.44h-5l-4.88.29-4.74.6-1.34.29-1.33.45-1.33.89-1.19.88L196,118.64l-.74,1.19-.45,1.33-3.7,5-3.41,5-3.11,5.34-2.81,5.33-2.52,5.48L176.86,153l-4.3,11.4L172,160l-1,1.78-.6,2.07-.3,2.07v2.38l.6,4.44.89,4.3,1.33,3.55,1.18,3.7,1.63,3.41,1,1.63,1.34,1.63.59-.59.44-.74-.15-1.49-.59-1.77-.59-1.63-1.48-2.37-.89-2.37-.74-2.37-.3-2.37-.15-2.52.15-2.37,1-4.89,1.63-5,1.78-4.75,2.07-4.74,1.77-4.44,4.15-7.7,4.15-7.41,4.45-7.26,2.66-3.55,2.81-3.41,2.82-.74,2.81-.44,5.63-.44,5.63.29,5.48.89,5.48,1.33,5.48,1.33,10.81,3,15.11,5.92-5.77.3-5.78.29-5.78.45-5.77.89-5.78,1.18L225.89,133l-2.67,1.19-2.52,1.33L218.33,137,216,138.79v.59h1.34l1.18-.3,2.37-1.18,2.37-1,1.19-.45,1.18-.15-8.15,6.52-8.14,6.81-8,7.26-7.56,7.55.3-2.81.3-2.67,1.48-5.18,1.77-5.19,2.08-4.88-.89-.6-1.63,2.52-1.48,2.52-2.37,5.34-1.78,5.77L190.34,165l-1.19,6.07-.44,3-.45,3-1.18,5.92-1.33,5.78-.89,2.37-1.63,2.37-1.93,2.22-2.37,1.63-1.33.15-1.33-.15-1.19-.3-1.19-.74-2.21-1.78-1.93-2.07-2.08-3.56L165.9,185l-1.63-3.86L163.08,177l-.74-4.3-.29-4.29.29-4.3.89-4.45,3.26-2.81,3-3.11,2.82-3.11,2.52-3.26,4.44-6.67,4-7.11,3.55-7.4,3.41-7.26,3.7-7.4,3.86-7.11h.14l4.3-3.11,4.44-2.82,4.74-2.37,4.74-2.37,4.74-2.37,4.59-2.67L230,85.61l4.15-3.7,4.89-4.74,4.89-5,4.3-5.34L250.33,64l1.77-2.82,1.63-3,1.34-3.11,1-3.11.6-3.11.44-3.26V42.36L256.7,39l-.89-3.56-1.63-1.63-1.78-1.48-1.78-1.19-1.92-.88-4-1.48-4.29-.89L236,27.4l-4.44-.15-8.74.45-5,.59-4.89.89-4.74,1-4.74,1.33L198.78,33l-4.59,1.78-4.45,2.07-4.29,2.22-.59-.14-.89-.45,7.7-6.07,8-5.63,8.15-5.18,8.59-4.75L225.15,13l4.59-1.77,4.59-1.49,4.74-1.18,4.74-1,4.89-.74,5-.44,6.82.14,6.81.74,6.52,1.49L280.25,11l6.07,2.81,5.78,3.56,5.33,4.15,5,4.88Z"/><path class="cls-3" d="M250.62,35.1,252,37,253,39l.45,2.07.29,2.22v2.07l-.29,2.22-1,4.45-1.63,4.29-2.07,4-2.52,4L243.51,68l-3,3.55L237.29,75l-3.4,3.26-3.56,3.11L222.63,87l-7.85,5-8.15,4.45-7.85,3.7-6.22,6.52-1.63-7L189,93l-2.37-6.67L184,79.84l4.59-.89V78.8l-3.41-2.52-3.7-2.22L177.6,72,174,69.61l-9.92-7.4,1-.89.88-1.18.9-1.19,1-1.18.89-1.19,1-.74,1.33-.45h1.33l.89.75,1,.74,1,.14.6-.14.44-.3v.15h.3v-.15l-4.15-3.7-1.92-2.07-1.63-2.23-1.49-2.37-.88-2.51L166.34,41l.3-2.82v-.15l.59-.88.89-.59L170,36l2.23-.14,2.37.14,2.66.89,2.52,1.33,2.37,1.63,2.22,1.78,2.37,1.93L189,45.47l2.37,1.78,2.37,1.63.6-.44.14-.6-.44-1-.74-1-.74-.89-2.22-1.78-2.08-1.93,7-3.4,7.55-3,8-2.37,4-.89,4.15-.74,4-.45,4.15-.15h4.15l4,.3,4,.59,3.85,1,3.85,1.34,3.7,1.62Z"/><path class="cls-1" d="M166.64,51.69l.59.75.74.88.3.89-.15.44-.3.45-2.52,2.67L162.64,60l-3,1.77-3.11,1.34-3.26,1-3.26.6-3.41.15-3.4-.15-5.63-1.19-5.49-1.63-2.51-1-2.52-1.34-2.52-1.48-2.37-1.78H121l.3,1.19.6,1,.73.88,1,.9,2.22,1.33,2.22,1.18-3.25,6.81-2.67,7-1,3.7-.9,3.56-.73,3.85-.45,3.85h-.89L115.68,88l-2.07-3.7-1.63-4-1.19-4.15-.73-4.29-.3-4.44V63l.44-4.44.89-1.19,1-.89.89-.74.59-.89h-1.78l-1.48.45-1.18.74L108,57.17,105.91,60,104,62.8l-.3-1.92.3-2.08.74-1.92.89-1.78,2.52-3,1.48-1.33,1.63-1,1.63-.89,1.78-.59,1.78-.45,1.77-.15.6-.89-1-1.33-1.19-.89-1.33-.74-1.33-.14.74-.9,1-.74,1.19-.29,1.33-.3,2.81.15,2.67.59L129,43.55l5.18,1.77,5.18,2.08,5.19,2.22,5.33,1.78,5.33,1,2.82.29h2.81l2.81-.29,3-.75Zm23.7.3-2.52.15-2.82.15-2.81.44-1.19.59-1,.89-1.92-1-1.78-1.33-1.49-1.48-1-1.78v-1l.44-.88.89-.59.89-.15,2.08.15,1.92.29,3.7,1.48,3.56,1.93L190.34,52Z"/><path class="cls-1" d="M184.56,50.21,180,52.58l-2.37-2.07-2.37-1.93,1.19-.59,1.18-.3,1.19.15,1.18.45,1,.59,1.19.44,2.37.89Z"/><path class="cls-4" d="M159.53,65l4.59.59L181.45,77l-1,.74-1.18.3h-1.34l-1.33.44-3.85,1.63-3.85,1.93-3.7,2.22-3.56,2.37-3.41,2.67-3.4,2.81-3.11,3.11-3,3.11-2.81,3.41-2.66,3.4-2.52,3.71-2.22,3.7-1.93,3.7-1.93,3.85L133.16,124l-1.33,4-2.22-3.41L127.68,121l-1.63-3.85-1.33-3.85-1-4.15-.89-4.14-.44-4.3-.15-4.29v-4.3l.3-4.3.59-4.29.89-4.15,1-4,1.48-4,1.62-3.7,1.78-3.56,3.26,1.49,3.7,1.18,3.86.89,3.85.45h4l3.85-.45,3.7-1L159.53,65Z"/><path class="cls-5" d="M181.45,121.75l-2.52,4.89-2.81,4.89-1.78,2.22-2.07,1.93-2.37,1.48-2.67.89-4.44,1.18-4.3.45-4.29-.3-4.3-.89-4-1.63-3.85-1.92-3.55-2.52-3.27-3,3.56-8.59,2.08-4.3,2.22-4.15,2.52-4,3-3.85,3.11-3.85,3.55-3.7,1.49.29,1.33.75,1.18,1,.89.74,3.11.59,3.11.45,3.11.15,3.11-.3,3-.74,2.67-1.18,2.37-1.93,1-1.19,1-1.33,1.93-3.7,1,4,.59,4-.15,4-.29,4-.89,4L184,114.5l-2.52,7.25Z"/><path class="cls-5" d="M164.12,95.24V97l-.45.59-.74.45-2.66-.75-1.48-.74-1.34-1,1.34-1.78.89-.59,1-.45,1.19.3.89.59.74.74.59.89Z"/><path class="cls-4" d="M189.45,114.05l-4.59,9.48-4.45,9.63-2.52,4.74-2.51,4.59-3,4.59-3.25,4.3-1.63,1.78-1.78,1-1.92.74-2.08.45-3.26-.74-3.26-1-3-1.63-2.82-1.92-2.66-2.37L144.71,145l-1.62-3-1.19-3.26,6.08,1.63,3.25.74,3.26.44,3.41.3,3.4-.15,3.27-.59,3.25-1.19-.88,1.19-1,.89-2.37,1.18-1.19.6-1.18.59-2.23,1.48.6.44.74.3,1.48-.15,1.63-.59,1.48-.45,2.81-1.62,2.52-1.78,2.37-2.08,2.22-2.07,2.08-2.22,1.78-2.37,3.25-5,2.52-5.48,1.93-5.78,1.48-5.92,1-5.93.59,1.93.29,2.37v2.37l-.29,2.22Z"/><path class="cls-6" d="M130.2,135.38l.15.74.29.59.6.15.88-.29,2.37-3.11,1.19,1.18.89,1.33,1.33,2.82.6,1.48.59,1.48.74,1.48.89,1.34,1.92,2.66,2.22,2.52,2.38,2.37,2.51,2.22,2.82,1.63,3,1.33,3,.75,3.26.14-1.19,3.11-.73,3.11-.3,3.26v3.41h-.89l-3.85-5.33-1.93-2.82-1.92-2.66-2.08-2.67-2.37-2.52L144,152.86l-3-1.78-.59.3,2.67,3.11,2.81,3.11,2.52,3.41,2.22,3.4-4.59-2.22-4.45-2.81-4.14-3.26-3.85-3.7-3.26-4.3L129,145.9l-1.19-2.37-1-2.52-.74-2.52-.44-2.66-.3-2.67-1.18-9.78.59,1.63,1,1.48,1.34,1.34,1.48,1.33,1.18,1.48.89,1.33.15,1.63-.15.89-.44.89Z"/><path class="cls-7" d="M261.44,136l3.4,8.3-5.77,1.48-5.78,1.63-5.48,2.07-2.67,1.34-2.52,1.48-.14-.45.29-.44.89-.74.74-1v-.44l-.29-.6-5.48,5-5.19,5.19-5,5.33-4.74,5.48-4.44,5.48-4.29,5.78-4,5.92-3.71,5.93-3.55,6.21L200.26,205l-3.11,6.37-3,6.37-2.67,6.52L189,230.77,184.56,244l-.3,2.07-.14,1,.44.89,1.19-1.19,3.11-8.44,3.55-8.45,3.85-8.14,4.3-8,.59.3.15,8.44.74,8,1,7.85,1.48,7.55-3,3.11-2.66,3.41-2.37,3.26-2.37,3.55-3.85,7.26-3.26,7.4-2.52,7.86-2.22,7.85-1.78,8-1.63,8.14-1,8.3-.44,8.29.6,8.45.44,4,.89,4.15.88,4,1.19,4,1.48,3.85,1.63,3.7,1.78,3.71,2.07,3.55,2.22,3.41,2.52,3.25,4.15,5.78,4.59,5.78,5,5.48,5.33,5.33,5.33,5,5.63,5,5.63,4.74,5.63,4.44-1.78,2.81-1.48,3.11L230,419l-.74,3.11L228,428.81l-.89,6.82-.59-.6-.89.89-1.48-3.1-.59.44-.45.44-.59,1.33-.59,1-.6.29-.59.15-1-1.62-.89-1.63-.89-1.19-.59-.29-.59.14-.45-.29-.45,1.63V437l-.14,1.49-.89-1-.15.3-.15.29-.14.45.14.59-4.74-15.85-5.48-15.55-5.92-15.4L192,377l-1-1.33-.74-1.63-.89-1.63-1.33-1,1,3.7,1.34,3.55,2.81,7.27,3.7,10.81H194l-2.81-.15-2.82-.44-2.81-.74-2.67-.75-2.67-1-2.37-1.19-2.37-1.48-.59-7.4-.89-7.26-1.18-7.11L171.23,362l-1.78-6.81-2.22-6.82-2.52-6.66-2.66-6.52-3.12-6.37-3.4-6.37L152,316.39l-3.86-6.08-4.29-5.92-4.3-5.93-4.74-5.63-4.89-5.62-.59-2.67-.59-2.67-.45-2.66.15-2.81-.74.44-.44.59-.45,1.63v1.78l-.29,1.33.29.3v1.33l-.89.59-1.33-1.33-1.63-1.33-1.77-1.19-1.63-1.33-1.49-1.48-.88-1.63-.3-1.93L117,273l.29-1.19,1.78-5h-.74l-.59.15-1.19,1.18-.89,1.63-.88,1.33v1.78l-.6,1.33-1.33-.44-.44-.45-.15-.59.29-2.22.89-2.08,1.34-1.92,1.48-1.92,3.55-3.27,3.26-3.1-1.48.29-1.48.59L117.31,261l-7.7.89.89-1.33,1-1,2.38-1.78,1.33-.74,1.33-.89,2.52-1.63,5.63-2.67,5.48-3-1.78-.14-1.92.29-1.78.44-1.93.6-1.78.44-1.92.15-1.78-.59-1.92-1.19,5.48-1.48,5.48-1.77,5.33-1.93,5.33-1.93,1-.88,1-.74,2.37-1,2.22-1,2.22-1.48,3.11-1.78,2.81-2.07,5.48-4.6,5.19-4.88,5.33-4.59.74.89-.44,5-.89,4.89-1.33,4.74-1,4.89.3.3.14.29.3.15.44-.15,2.23-4.44,1.77-4.59,1.49-4.75,1-5,.74-5,.45-5,.14-5-.14-5,2.22.3,2.52-.15,2.37-.59,2.07-1,1.48-1.33,1.34-1.48,2.07-3,1.33-3.41,1-3.56,1.33-7.4,1-7.26,4.29-5.78,4.74-5.62,5-5.19,5.63-5,5.63-4.74,5.92-4.29,6.08-4,5.92-3.7,5.33-.89,5.34-.6,5.48-.29h5.48l4,4.29Z"/><path class="cls-2" d="M276,134.34l.3,2.08v2.22l-.15,2.22-.44,2.22-.74,2.23-1,1.92L272.25,149l-1.93,1.48-1.63.44-1.77.15-3.56-.15-3.55-.59-3.41-.74,1.78-1,2.37-.59,2.37-.44,2.52-.45.74.6h1l.15-2.23-.3-2.22-.44-2.07-.59-1.93-1.93-3.55-2.37-3.41,3.41-.3H269l1.93.3,1.77.45,1.78.59,1.48,1Z"/><path class="cls-8" d="M129.61,153l-2.67,3-2.81,2.67-2.82,2.52-3.11,2.36-3.26,2.23-3.26,1.92-3.4,1.78-3.41,1.63,3.26-3.85,2.81-4,2.52-4.3,2.22-4.29,1.93-4.45,1.63-4.59,3-9.33,1.48,4.44,1.63,4.3,1.78,4,2.52,3.85V153Zm-17.33,2.07-1,2.52-1.18,2.52-1.48,2.52L106.8,165l-2.08,2.22-2.22,2.07-2.37,1.78-2.66,1.33-3.41,1-3.7.59-1.93-.15-1.78-.29L85,173.15l-1.63-.74-1.33-.89-1-.89L79,168.41l-.3-1.18.15-1,.59-.89.59-.89,1.78-1.18.89-.59.74-.45,2.52-.44,2.52-.15,5,.44,5,.6,4.89.44.59-.59-.89-.59-.88-.3-1-.15-.89-.44-1.34-2.08-.59-1.33-.14-1.33,3.7.29h3.7L109,156l3.26-.89Z"/><path class="cls-6" d="M219.67,181.89,217.15,189l-2.22,7.41L212.85,204l-1.78,7.55-1.33,7.86-.89,7.85-.15,7.85.6,8-.45.3-.44.3-.45.15-.59-.15-1-4.44-.74-4.74-.74-4.89-.44-4.89-.3-5v-4.88l.3-4.89.44-4.74L212,193.3l3.71-5.93,4-5.48Zm-165.31,33-3.11.3-2.81.74-2.67,1-2.52,1.63-.74-.74-.29-.89-.45-.89-.44-.45-.6-.14.3,2.22.59,2.07.89,1.93.89,1.78,2.52,3.55,3,3.26,6.81,6.07,6.67,5.78,11.26,8.44,11.7,8.15,11.85,8.29,11.7,8.44L114.5,280l5.48,4.59,5.33,4.89,5,5,4.88,5.34,4.6,5.48L144,311.2l3.86,6.23-1.49,3-1.63,3.11-2.07,3-2.22,2.81-2.66,2.38-3,1.92-1.48.59-1.63.59-1.78.3h-1.78l-3.25-4.29-3.11-4.59-3-4.6-3.12-4.44-3.25-4.44L109,308.54l-3.85-4-4.3-3.56v1.34l20.14,29-.59,1.33-.88,1.33-2.23,1.93-2.66,1.48-2.67,1-2.52.15-2.07-.59-1.78-1.34-1.33-1.93-3.56-7L97,321.13l-4.15-6.82-4.59-6.51L88,309.28l.44,1.48.74,1.48.89,1.48,3.85,6.52,3.7,6.67,7,13.62-.45.89-.89.74-1.18.44-1.19.15-2.52-6.07-2.81-5.92L92.43,325,89,319.2l-3.55-5.63-3.71-5.48-8.14-11L65,286.47,56,276.1,37.33,256l-3.26-3.86-3.56-3.85L23.4,240.4l-3.26-4L17,232.11l-2.37-4.45-1.92-4.74h-.15l.15-1.92.89-1.78L15,217.59l1.78-1.33,2.07-1,2.22-.89,4.6-1.18,4.88-.6H35.4l5,.3,4.89.59,4.74.74,4.29.74Z"/><path class="cls-9" d="M118.5,244l-1,.88-1,.6-2.38.59-2.52.44-2.51.3.44,1,.74.89,2.08,1.48,2.52,1.18,2.51.59-3.55,2.67-3.85,2.82-1.78,1.62L106.5,261l-1.18,2.07-.74,2.52,1,.44,1,.15,1.78-.29,1-.45.89-.29,1.93-.45-.45,1.33-.59,1.34-1.92,2.52-2.67-1.49L104,266.77l-4.88-3.71-4.89-3.7L88.87,256,79,249.29l-9.78-7.11-9.62-7.41-4.6-4-4.59-4.14L48.73,225l-1.48-1.62-.89-1.78-.14-.89.14-1v-.14l2.52-1.34,2.81-.89,3-.44h3l6.22.74,3.11.59,2.82.45,6.51,2.22,6.37,2.67,6.08,3,6.07,3.25,12,7,5.77,3.55,5.93,3.7Z"/><path class="cls-6" d="M227.81,269.58l21.48,40.14,11.11,20.14,11.55,20h-.15l-2.22-1.19L267.06,347l-2.36-1.77-2.38-1,22.52,24.45v3.7l-.59,3.55-1.48,3.26-1,1.48-1.19,1.48-3.4-2.66-3.41-2.82-6.37-5.92-6.52-6.08-3.4-2.81L254,359.34l-.3.3,2.37,3.26,2.67,3.11,5.78,6.07,6.07,5.92,5.92,5.78-.29,2.81-.74,2.67-.89,2.67-1.33,2.37-1.49,2.37L270,398.6l-2.22,1.77-2.37,1.34-3.86-3.11L258,395.34l-7-6.82-6.82-7-7-6.81h-.59l1.78,3.84,2.37,3.56,2.81,3.56,3.11,3.4,6.67,6.67,6.37,6.81-.74,1.79-1.19,1.92-1.33,1.77-1.48,1.63L253.29,411l-1.78,1.18-1.92.89-2.08.59-5-3.11-5-3.26-4.74-3.55-4.74-3.7-4.74-3.86-4.44-4.15-4.3-4.28-4.15-4.3-4-4.59-3.84-4.75-3.56-4.88-3.41-5-3.11-5-3-5.18-2.52-5.33-2.37-5.34-1-3.85-.75-4-.89-8-.14-8.3.44-8.29,1-8.3,1.48-8.15,1.92-8,2.23-7.56,3-7.7,3.41-7.4,4-7.12,2.23-3.25,2.51-3.26,2.37-1.48,2.52-1.34,1.34-.44,1.33-.15,1.33.15,1.33.74,2.53,2.37,2.07,2.52,1.77,2.66,1.63,2.82,2.67,5.78,3,5.77Z"/><path class="cls-7" d="M153.75,327.35l-1.48,3-1.92,3-2.08,3-2.37,2.67-2.66,2.23-3.11,1.62-1.63.59-1.64.45-1.77.15h-1.78l-.89-1.64-.89-1.47-1-1.63-.59-1.78,3.26-.59,3.11-1.19,2.82-1.63,2.66-2.07,2.22-2.52,2.08-2.67,1.63-3,1.33-3,.89.44.74.75,1.18,1.63.45,1,.45.88,1,1.78Z"/><path class="cls-8" d="M155.53,331.05l4,8.74,3.55,9.18,3.26,9.33,2.52,9.48,1.93,9.63.59,5,.3,4.89.14,5v5l-.44,5-.74,5L170,409l-.73,1.63-.89,1.49-1.19,1.32-1.48-.59-1-.88-.88-1.19-.6-1.48-1-3.11-1-2.66-2.37-7.41-2.67-7.26-2.81-7.26-3.11-7-3.26-7-3.56-7-7.55-13.33h1.63l1.63-.31,3-1.18,2.81-1.77,2.52-2.22,2.22-2.52,2.08-2.82,1.77-2.81,1.49-2.67Z"/><path class="cls-7" d="M126.5,342.46,124,344.82l-2.81,1.93-3.12,1.19-3.25.89-1.64-.15-1.33-.6-1-1-.59-1.18-.59-1.33-.44-1.48-.59-1.33-.6-1.19,1.63-.44h3.55l1.93-.44,3.85-2.67,1.78-1.63,1.48-1.93,1.63,2.08,1.78,2.22.59,1.18.45,1,.14,1.33-.29,1.19Zm-17.92,6.37-.89.74-1.19.59-1.18.44-.6-.14-.74-.3-1.18-2.81-.89-3.12,3.7-1.18,3,5.78Z"/><path class="cls-8" d="M129,343.94l4.44,7.11,4,7.11L145,372.67l.6,5.92.59,6.23.14,6.22v6.22l-.44,6.23-.89,6.06-1.33,5.78-1.78,5.48-.89,1.78-1.18,1.93-.74.89-.89.59-1,.29h-1.33l-1.63-1.48L132.87,415l-1.78-9.78-2.22-9.48-2.67-9.33-3-9-3.26-9-7-17.62,2.81.3,3-.15,2.81-.59,1.33-.6,1.19-.88,2.22-2.67,1.33-1.19,1.34-1Zm-3.71,50.36L124,400.23l-1.78,6.07L120,412.08l-3,5.62-1.63.3-.3-8.45-.74-8.44-.89-8.29-1-8.3-1.49-8-1.77-8-1.93-7.85L104.87,353v-.15l4.45-1.48,2.66,5,2.22,5.33,4,10.67,3.56,11,3.55,11Z"/><path class="cls-7" d="M292.25,377l-.15,3.41-.59,3.11-1,3-.89,1.34-1,1.18-1.77-1-1.63-1.33L282,383.78l2.07-2.36,1.48-2.67,1-2.82,1-3,1.49.59,1.18,1,1,1.33.89,1Z"/><path class="cls-8" d="M321.28,414.89l-.3.89-1.92-.3-7.26-6.07-7.26-6.22L297.28,397l-7.55-6.08.89-1,.89-1.18,1.18-2.51.89-2.82.89-2.67,7.26,8.15,7.11,8.44,6.51,8.74,3.11,4.45,2.82,4.44Z"/><path class="cls-7" d="M158.34,404.81,156.27,407l-2.22,2.08-4.74,4.29-1.19-.29,1.19-6.81.74-6.82.15-7-.15-7,1.48,2.07,1.19,2.37,1.92,4.89,1.63,5,2.07,4.74v.14ZM284,390.89l-1.48,4.89-2.07,4.74-1.34,2.23L277.43,405l-1.77,1.93-2.23,1.93-1-.16-1-.44-1.78-1.48L268.1,405l-1.48-1.47,2.22-1.34,2.08-1.63,1.77-1.78,1.63-2.07,1.48-2.22,1-2.38.89-2.51.59-2.37.89-.3h.89l.74.45.59.74,1.34,1.63Z"/><path class="cls-6" d="M330.17,396.08l-.6.14h-.74l-1.48-.44-1.63-.74-1.63-.15,3.71,2.22,3.85,1.63,4.14,1.49,4,1.48-2.81.59-2.81.29-5.63-.29-5.78-.74L317,401l-5.18-7.1-5.33-7.26,12.14,4.29,5.93,2.37,5.63,2.82Z"/><path class="cls-8" d="M338.46,435.92l-.15.74-.44.44-1.19.3h-1.33l-1.18.3-4.3-.15-4.3-.45-4.14-.59-4.15-.88-4-1.19-3.85-1.33-3.85-1.48-3.85-1.78-7.26-4-7-4.59-6.82-5.19-6.37-5.48,2.37-1.33,2.08-1.63,1.77-1.93,1.49-2.21,1.33-2.23,1.18-2.37L286,394l1-.29,13,10.51,12.74,10.52,12.73,10.51,13,10.67Z"/><path class="cls-6" d="M346.31,404.38l10.37,5,10.66,4.89,21.18,9,21.63,8.45,21.92,8.14-1.33.59L418.6,437.4l-12-3.55-12-3.7-11.85-3.86L359.2,418l-23.41-8.59-.29.59,7.11,3.85,7.4,3.41,15.41,6.36-5.48-1.33-5.48-1.48-11.11-3.55-11-4.15-10.82-4.29-.74-1.19-.74-1.19-.44-1.18v-.59l.3-.59h.14l6.52.73,6.67.15,6.66-.15,6.37-.43Z"/><path class="cls-7" d="M127.38,405.11l1.34,6.07,1.18,6.23,1.34,6.07L133,429.4l1.47.59-8,9.93h-.89l-.44-.15-.3-.59v-1.33l.15-.75v-3l.29-1.92,1.19-3.41.59-1.77.29-1.79v-1.63l-.59-1.63-1.33.45-1.18.59-1.93,1.78-1.93,2.08-1.92,1.63V426l.59-2.67.74-2.66.59-2.67,5.78-13.19,1.18.3Zm138.94,3.71-.74,1.48-1,1.47-1.34,1.34-1.48,1.19-3.4,2.07-1.78,1-1.63.89-1.48-.3-1.48-.59-1-.89-.59-1,3.26-1.92,3-2.52,2.52-3,2.07-3,1.63.45,1.33.88,1.19,1.19.44.59.59.6Z"/><path class="cls-8" d="M269.14,411.48l7.7,6.37,7.85,5.93,7.85,5.77,7.7,5.78-4-.3-3.86-.59-4-.74-3.85-1.19L277,430,269.73,427l-12.29-6.53L260,418.3l1.49-.89,1.33-1,2.67-2.22,1.18-1.19.89-1.48Z"/><path class="cls-1" d="M166.64,417.41h.59v-.3h-.59Z"/><path class="cls-6" d="M448.37,428.81l86.35,8,74.81,2.52,20-.3,9.78-.15,9.63.15,4.88-.29,5,.14,4.89.45,4.74,1.18,4.59,1.63,4.3,2.22,4,3,1.78,1.77,1.63,1.93,1.48,2.37.89,2.52.3,2.67-.15,2.66-.44,1.48-.74,1.19-.75,1-1,.73-1.19.59-1.19.31h-1.48l-1.63-.15-10.36.15H658.26l-20.45-.75-20.14-1.33-20-1.93-20-2.36-19.85-2.53L538,454.88l-19.85-2.66L509.84,451l-8.3-1.33-16.29-3.12L477,445l-8-1.62-8.15-1.63-8.15-1.49,4.15,1.63,4.3,1.49L470,445.7l4.45,1,4.59,1,8.88,2.08,32.74,5.77,85.47,10.52,9.33,1.18,9.48.89,9.63.74,9.48.45,19.4.44,19.4.29H683l1.19.75,1,1,1.78,2.22,1.19,2.52.88,2.81.15,2.52-.44,2.51-.89,2.23L686.7,489h-.15l-14.66.74H657.51l-14.36-.59-14.08-1.19-13.92-1.63-13.77-2.07-13.63-2.52-13.63-3-13.33-3.26-13.33-3.41L521,464.51l-26.07-8-26.07-8-11.26-2.81-11.26-3.26-11-3.7-11-3.85-10.81-4.15-10.82-4.3-21.33-9L397.86,421l16.73,3.26,16.74,2.67,8.44,1,8.6.89Z"/><path class="cls-8" d="M722.69,420.81l-2.07,2.37-2.22,2.07L716,427.18l-2.52,1.63-2.82,1.48L708,431.48l-5.92,1.93-11.26.73-11.25.45-11.41.3-11.85.14-.89-2.81L654,429.7,652,427.33,650,425.11l8.59-1.33,8.89-1.19,8.89-1,9.18-.74,9-.44,9.33-.3,9.18.15,9.33.29.3.3Z"/><path class="cls-7" d="M654,434.44l-1.33.59-1.48.15-2.82-.44-.44-1.33-.74-1.19L645.07,430l-1.18-1-1.19-.89-2.37-1.78,3-.74,1.49-.14,1.48.29,2.37,1.63,2.07,2.07,1.78,2.23,1.48,2.66v.15Z"/><path class="cls-6" d="M644.63,435l-13.78.6-13.62.14-27.41-.14-27.4-.89-27.55-1.33,12.3-.75,12.44-.59,12.59-.44,12.59-.6,12.59-.59,12.44-1,12.3-1.33,12-1.78,1.78.45,1.78.74,1.63,1,1.48,1,1.33,1.19,1.18,1.33.9,1.48.44,1.48Z"/><path class="cls-10" d="M123.09,430l-.59,4.15-.3,3.85.3,3.71.59,3.7v.15l-3.26,5L117,456.07l-1.34,2.81-.88,3-.75,3-.44,3.25h.59l.6-.29,1.18-.89.74-1.33.3-.45.29-.44,2.37-.15,2.23-.59,4.29-1.63,4.15-2.07,4.14-2.08,4.15-1.93,2.23-.59,2.22-.45h2.22l2.22.3,2.37.6,2.52,1.18,1.63.74,1.63.89,1.48,1,1.48,1.33-3.7,2.67v.15l-8.89,2.81-8.74,3.4L128.72,474l-8.3,4.3L112.13,483l-7.85,5.33L96.43,494l-7.56,6.07-5.77,5.18L77,510l-6.51,4-6.82,3.41-3.4,1.48-3.71,1.18-3.55,1-3.71.89-3.85.59-3.7.3-4,.15-3.85-.15-.44-1.18.14-1,.45-1.19.44-1.18,1.78-3.56,2.22-3.41,2.37-3.25,2.52-3.26,5.77-6.08,6.08-5.47L57,493l1.62.14,1.64.6,1.63.89,3,2.22L66.36,498l1.48,1.18.74-.89-3.41-4.59v-.15l4.89-1.63L75,490.14l4.74-2.08,4.59-2.22,4.59-2.52,4.45-2.81,4.29-3,4.3-3.11-.74-.29h-.74l-1.33.44-1.34.74-1.48.45L92,478.13l-4.3,2.23L79,484.8l-4.44,1.93-4.6,1.78-4.59,1.33-4.89,1-1.62-.73-1.93-.45-1.78.15-.89.3-.89.44-2.51,1.92-2.52,2.22-4.45,4.6-4.15,5-3.84,5-8,1.19-8.3,1.18-4.29.3h-4l-4.15-.45-4-.74V508.5l.59-2.37.89-2.37,1.34-2.22,3.4-4.29,3.71-4,2.37-2.52,2.66-2.38,2.82-2.07,3-1.92,6.22-3.26,6.37-3,1.18.6,1,.89,1.78,2.22,1.48,2.22.89,1,1,.74.3-.74v-.74l-.44-1.48-.89-1.48-.89-1.34,1.33-.89,6.37-.14,6.22-.3,6.22-.6,6.07-.88L80,475.18l11.41-2.82-.15-.74-.59-.45L89.17,471,75.1,473.1l-14.37,1.48-14.51.89-14.37.3L27.25,478,23,480.8l-8.44,6.37-1.34-.74-.74-.3-.59-.29-.59-.44L11,485l.15-.59.59-.89,1.93-2.37,2.22-2.22,4.74-4.3,5-3.7,4.88-3.56,1.34-.73,1.63-.15,1.63.15,1.33.44.89.74,1,.88,1,.89,1,.59.29-.44-.29-.44-.45-.6-.14-.59,15,.15H69.62l7.26-.29,7.25-.6,7.11-.88,7-1.19-.74,2.07,1-.14,1-.45L101,465.1l1.19-1.93.59-.88.59-.75,2.52-3.85,2.22-4.15,4-8.28,2.07-4.16,2.23-4,2.51-4,3-3.71.44-.14.29.14.15.3.3.29Z"/><path class="cls-8" d="M799.86,431.33l-1.33,3.11-1.63,2.82-2.07,2.66-2.37,2.37-5.19,4.29-5.33,3.86L775.57,454l-6.67,3-6.81,2.51-7,2.07-13.93,1-13.62,1.34L714,465.1l-7,.45-7.11.29.74-1.33.74-1.34,1.48-2.51.89-2.82.3-1.48-.15-1.63-.44-2.37-.74-2.51-1-2.23-1.19-2.22L699,443.33l-1.78-1.78-1.78-1.63-2.07-1.48,9.34-1.93,44.58-3.25L792.16,430l1.93.45,2.07-.15,1.92.15.9.3Z"/><path class="cls-7" d="M700.47,451.33l.45,1.77.15,1.63-.15,1.63-.3,1.63-1,3-1.48,2.67-1,.89-1.19.74-2.52.75-2.67.14h-2.81l.89-2.52L690,461l.44-1.48.29-1.33-.14-1.48L690,455l-1.49-2.81-1.62-2.52-2.08-2.37-2.22-2.22-2.37-1.93-2.52-1.63L675,440.07l-2.81-1.34,3.11-.59,3.26-.29h3.26l3.11.44,3.11.89,3,1.19,2.67,1.63,2.51,2.22,4.3,7.11Z"/><path class="cls-10" d="M223.66,439.92l.89.74.89,1,1.19,2.37.89,2.81.88,2.67.89,4.89,1,5.18,1.33,5.34,1.64,5.17.73,1.19.45,1.34.74,1,.44.3.74.15v-.89l-.29-.89-.6-1-.29-1.19.74-.29.59.15.89.74.44.44.45.59.59.3.59.3,5.34,2.37,5.33,1.93,5.63,1.47,5.77,1.19,5.93.89,5.92.75,12,1.18-.89,1.63-1.18,1.47-1.49,1.34-1.33,1.48.3.29.3.16.29.74h1.19l2.81-2.67,2.82-2.37,1.48-1,1.63-.59,1.77-.44h1.93l3,.74,2.82,1.18,2.81,1.34L306,487l2.52,1.92,2.22,1.92,4.15,4.6,3.85,4.89,3.55,5.18,3.56,5,3.4,4.88.3,1-.15.74-.44.44-.59.3-1.63.15-1.48.15-5.19.14-5-.14-5-.45-4.89-.74-4.89-1-4.73-1.19-9.19-2.81-2.67-7.12-3.25-6.81-3.71-6.36-2.22-3.12-2.22-2.81-2.22-1-2.38-.3-2.51.15-2.22.89-2.82,1.93-5.92-1.63-5.93-1.63-5.92-1.93L239.51,481l-2.81-1.49.44,1,.74.89,1.78,1.62,2.22,1.34,2.23,1.18,6.22,2.22,6.37,1.78-.74,1.19-.74,1.18L254,494.58l1-.15,1-.59,1.93-1.48,1.92-1.78,1.19-.74,1.18-.59,1.49-1.19,1.92-1,1-.45h1l.88.15,1,.74,2.22,2.81,2.08,3,1.63,3.1,1.48,3.12,2.66,6.22,1.34,3.26,1.18,3.11-.29.59v.59l.59.89.59.74.3.44-.15.45.29,2.52-.29,2.66-.89,2.22-.74,1-.89.89-5.18-1.63-5-2.07-4.74-2.67-4.74-3-4.44-3.26L252.25,509l-8.74-7.26-8.74-7.56-4.29-3.55-4.59-3.41-4.6-3.11-4.73-2.66L211.67,479l-5.19-1.78-7.55-3.11-7.26-3.41-3.56-1.92-3.4-2.22-3.11-2.52-3-2.82-.45-.89-.14-.74V459l.29-.44,1-.75,1.48-.59,5.77-1,5.78-1,3-.14,2.81.3,2.66.88,1.34.75,1.18.88,3.85,3.7,4,3.42,4.15,3,4.3,2.52,1-.6-.15-3.56-.59-3.55-1.63-6.81-.74-3.26-.44-3.41.15-3.4.88-3.41v-2.82h.3l.3.15h.59l.3-.44.74,1,1.18.44,1.19-.15.88-.74Z"/><path class="cls-8" d="M772.76,466.44v.88l-3.41,2.22-3.41,1.93-7.11,3.41-7.41,2.81-7.7,2.23-7.85,1.92-8,1.63-16,3.11-2.82.45-3,.29-3,.15h-2.67L702,485l1-2.67.3-1.48.15-1.63-.3-1.48-.44-1.63-.6-1.48-1-1.48-2.08-3,1.48-.59,8.89-.14,8.89-.59,17.47-1.63,17.33-1.34,8.74-.44,8.74.15Z"/><path class="cls-10" d="M291.06,475.47v.74l.3.74.89.45.88-.15,1.63-1.19.89-.74.74-.59.89-.45.89-.14,2.52-.15,2.37.44,2.07.59,2.22,1,3.86,2.52,3.84,2.67,3.71,3.4,4,3.56,3.7,3.7L327.8,494l1.18,2.07-1.33,1.19-1.63.59-3.56.44L320,496.21l-2.23-2.52-2.37-2.52L313,489,310.61,487l-2.37-1.79-2.52-1.77-2.51-1.63-2.67-1.18-2.67-.9-3-.44-3,.15-14.52-.89-7.4-.74-7.26-.89-7.11-1.18-7-1.78-6.52-2.23-3.11-1.48-3-1.63,6.22,2.08,6.66,1.63,6.67,1.33,7,1,7.11.74,7.11.44,7.11-.14,7.11-.3Z"/><path class="cls-7" d="M699,474.14l.59,1.77.45,1.93.14,1.78-.14,1.93-.45,1.92-.59,1.77-.89,1.63-1,1.48-7.41.3,1-2.37.89-2.51.3-2.81-.15-1.49-.44-1.34-2.08-4-2.51-4,1.77-.14,1.78-.15,3.56.15,1.62.45,1.49.73,1.18,1.19.89,1.78Z"/></g></g></svg>