<svg xmlns="http://www.w3.org/2000/svg" viewBox="0 0 702.13 595.31"><defs><style>.cls-1,.cls-10,.cls-11,.cls-12,.cls-2,.cls-3,.cls-4,.cls-5,.cls-6,.cls-7,.cls-8,.cls-9{fill-rule:evenodd;}.cls-2{fill:#33358d;}.cls-3{fill:#d14f2e;}.cls-4{fill:#f3d239;}.cls-5{fill:#42a3df;}.cls-6{fill:#ca272d;}.cls-7{fill:#fff;}.cls-8{fill:#b0d5ea;}.cls-9{fill:#972d33;}.cls-10{fill:#c565a2;}.cls-11{fill:#cadbe3;}.cls-12{fill:#e1a03b;}</style></defs><title>Fichier 1</title><g id="Calque_2" data-name="Calque 2"><g id="Calque_1-2" data-name="Calque 1"><path class="cls-1" d="M116.26,71.26l-3.54-10.77-3.54-10.92-1.48-5.46-1.32-5.61-.74-5.75L105.49,27l.44-1,.59-1,.59-.88.89-.45h1.92l1.91.45,1.63.88,1.47,1,2.95,2.51,3.1,2.22,5.46,5.6,5.16,5.76,5,5.9,4.72,6,9.15,12.39,8.56,12.54,8.26,12.84,8,13,8.26,12.83L192,130.27,217,167.16l12.84,18.29L243,203.6l13.43,18.14,13.72,17.86,14.31,17.7,14.76,17.41,37.47,41.46L392,374l8.11,8.71,8,8.56,8.26,8.26,8.56,8,3.84-.44,3.53-1,3.4-1.33,3.25-1.62,3.1-1.92,3.09-2.21,5.61-4.87,4.42-12.84L460,368.39l5.17-12.54,5.6-12.24,6.35-12.1,6.78-11.8,3.84-5.75,3.83-5.76,4.14-5.61,4.43-5.45,1-1,1.18-1,2.36-1.77,2.65-1.33,1.33-.44,1.62-.15.3.59.29.3,1,.44,1,.15,1,.59,5.91,5.61.88-1.33,1.33-7.53.88-7.52.3-3.84v-3.69l-.15-4-.59-3.84-5.75-14-6.35-13.72L507.09,233l-3.84-6.64-4-6.34L495,213.63l-3.4-2.21-3.39-1.77-3.68-1.48-3.69-1.33-3.55-1.47-3.53-1.48L470.5,202l-3.1-2.51h-.15l-3.1,1.62-3.24,1.33L454,204.63l-7.08,1.77-7.23,1-7.52.58-7.53.3-7.37-.15-7.38-.44L407.2,207l-2.5-1-2.36-1.48-2.07-1.62-.3-1v-1l.3-.88.44-.89,1.33-1.47,1.63-1.18L406,195l2.52-.88,2.65-.6,2.8-.29,5.46-.3,5.46-.29.88-.74.59-1,1.33-2.21.59-.89.89-.59,1-.15,1.48.45,4.13,1.62,2.36.44,2.21.45h2.36l2.36-.3,2.22-.59,2.21-1,1.92-3.84,1.47-4.28,1-4.28.6-4.57.29-4.58-.29-4.57-.74-4.42-1.33-4.28-5.75,6.78.44-2.65.74-2.51,1-2.66,1.47-2.36-1.18-2.06-1.62-2.07L446,143.85l-1.18-2.22-1.18-3.24-1-3.54-.73-3.84-.3-3.84h-.15l-.58-.14-.74.29-1.33,1.48L437.6,127l-.74-2.07-.44-2.21-.3-2.36.15-4.58.3-4.28.73-2.06,1-1.92.89-1.92.44-2.06h-1l-1.18.44-1,.3-.44-.15-.3-.3.3-1.62.44-1.48,1.33-2.65,2.06-2.21,2.36-1.77,2.51-1.63,2.8-1.32,5.46-2.07,3.54-.74,3.69-.29,3.84-.15h3.68l7.38.88L482,90.29h.14l1.63-.74L485.4,89l3.25-1.48,1.47-.73,1.33-1,1.18-1.32.88-1.48,1.33-1,1.62-.74,1.48-.88,1.33-1-1.48-.58-.59-.45-.29-.73,1.33-1.63,1.47-1.33,1.63-1,1.76-.74,1.92-.44,1.92-.3,4.28-.14.44-.3v-.14l-.15-.3-.29-.44-.59-.59.44-1,.74-.6,1.92-.29L515.2,68l1.33.15,2.66.89,2.36,1.32,2.36,1.48,7.08-6.2,7.23-6.05,14.9-12.24,7.67-5.76,7.82-5.46,8-5,8.26-4.43,8.26-3.84,8.56-2.95,4.28-1.18,4.42-1,4.28-.73,4.58-.45,4.42-.29,4.58.14,4.72.3,4.57.74,4.72.88L647,19.62l4.87,1.62,4.87,2.07,6.5,3.54L669.53,31l6.05,4.72,5.9,5.17,5.61,5.6,5.3,5.91,5,6,4.72,6-.59,1.63-.88,1.47-1,1.33-1.47,1.18-3.1,2.06L692,73.76l-7.82,2.81-7.82,2.65L668.49,82l-7.67,3.1-7.52,3.54-3.69,2.06L646.07,93l-3.54,2.5-3.4,2.66-3.24,3.1-7.23,7.23-4,4.13-7.37,8.56L610.07,130l-7.08,8.7-7.38,8.71-3.83,4.13-4.14,4-4.13,3.84-4.42,3.54-4.72,3.39-5,3.1-.89.59-1.32.44-1.18.3-1.33.44-1.18.29-.89.6-.44.88.15,1.33,1.91,4.13,2.07,4,2.36,3.84,2.8,3.54,2.81,3.39,3.1,3.25,3.39,2.95,3.39,2.8,7.23,5.17L599,212l8,4,7.82,3.69h.15l6.93,4,7.09,4.58,6.93,5,6.49,5.61,6,6.2,2.66,3.24,2.5,3.39,2.21,3.55,2.07,3.54,1.77,3.83,1.33,3.84-.89.59-1.18.15-1.18-.15-1-.59-8-2.66-8.12-2.36-8.41-1.77-8.71-1.47-15-2.66-15.2-2.21-15.34-2.07-15.35-1.77-3.25,6.64-1.18,3.25-.73,3.39,1.18,6.64,1.77,6.34,2.21,6.05,2.51,6,2.81,5.91L571,299.5l6.35,11.5,2.36-4.13,2.36-4.42,2.36-4.72,2.65-4.43,3.1-4,1.77-1.77,1.92-1.63,2.07-1.18,2.36-1,2.65-.74,2.8-.29h.15l2.81.59,2.65.89,2.51,1.18,2.51,1.47,2.21,1.62,2.22,1.77,4,4.13,3.69,4.58,3.09,4.86,2.81,5,2.51,5,2.95,6.2,2.8,6.49,2.65,6.64,2.37,6.78,2.06,7.09,1.77,7.08,1.48,7.23,1.18,7.22.73,7.38.45,7.38.15,7.38-.3,7.23-.74,7.37-1.18,7.08-1.77,7.23-2.06,6.94-5.76,14.75-1.62,1-1.18-2.21.89-9.44.29-9.15-.15-4.72-.59-4.57-.88-4.43-1.33-4.57h-.15l-1,13.13-.59,6.49-.74,6.49-1,6.2-1.48,6.19L630,447.47l-2.81,5.61-2.95,3.1-1.77.89-.88.29H620l-.73-.29-1.18-.89-.74-1.33-.59-1.18-.45-6.93.15-6.93-.29-6.94-.44-3.39-.74-3.54h-.15l-.59.15-.3.14-.14.89v.74l-.15.29-.74,3.25-.88,3.24-1,3.25-1.18,3.24-1.47,3.25-1.77,2.95L604.17,450l-2.81,2.36-1,.14-.74-.29-.44-.59-.29-.59-.3-1.77-.15-.74-.14-.74.14-3.83V440.4l.15-6.5-.44-6.49-.3-3.39-.44-3.54L595.31,428,594,431.54l-1.48,3.69-1.62,3.4L589,441.87l-2.21,3.25-2.66,2.95-1.47-.6-1.33-.73-.89-1-.29-.59v-.74l-.15-3.54V422.25l-.15-3.39-1.77,6.19L576,431.1l-1.18,2.8-1.48,2.81-1.77,2.65L569.65,442l1,10.92,1.63,10.77,1.92,10.47.88,5.31,1,5.17.29,2.65-.29,2.51-.6,5L580,506.2l4.58,11.36,4.71,11.21,5,10.92,4.43,2.65,4.57,2.22,4.58,2.06,4.86,1.77,4.87,1.48,4.87,1.18,5,.88,5.16.74,17.56.59,4,1.62L658,556.8l3.69,2.22,3.68,2.5,7.09,5.46,6.93,6.2.59,1,.15.89-.3.88-.59.74-1.62,1.33-.88.44-.74.59-2.81.89,1.18,1.47,1,1.48.44.88.15.89-.15.88-.44.89-.74,1-.88.74-1.19.44-1.18.3-1.18.15-1.32.14-2.36.59h-.15l-19.62.89-.89,1.47-.74,1.62-1,1.18-.74.3h-6.64l-5.46-.59-5.45-.89-5.32-1.47-5.16-1.62-5-2.07-5-2.21L600.48,584l-2.07-1.62-1.92-1.77-3.24-3.84-2.81-4-2.5-4.28-4.57-8.71L581,555.47l-2.66-4.13-7.23-9.88-7.67-9.89-7.67-9.73-7.24-9.74h-.14l-1-2.66-.14-1.47.29-1.48,1.33-.73,1.33-.3,2.66-.15,2.65.59,2.51,1.18,4.72,3.25,2.36,1.77,2.21,1.47-1-3-1.18-2.95-3-5.9-3-5.9-2.66-5.9-4.87-4.28-4.28-4.57-3.83-4.73L540,471.53l-3.39-5.17-3.1-5-3-5.3-3-5.17H527l-2.07,7.82-1.33,3.84L522,466.21l-2.07,3.55-2.36,3.1-3.1,2.8-1.62,1.18-1.92,1-1.47-.74-.89-1-.74-1.33-.29-1.47-.15-1.62-.15-1.48-.59-3.1-4.57,8.41-4.43,8.71-4.86,8.55-2.66,4.28-2.8,4-1.62,3.84-1.33,3.84-2.37,8-1.91,8.12-1.62,8.11.58.59,1.63-.29,1.47-.45,3-1.47,2.81-1.92,2.8-2.07,2.8-1.76,3.1-1.33,1.48-.3,1.77-.14,1.77.14,1.92.44,4.57,1.48,4.57,1.47,2.22,1,1.92,1.32,1.62,1.78,1.18,2.06-.15,1.18-.44,1-.74.74-.74.6-1,.44-.88.44-1.92,1.18-5.32,2.51L503,543.52l-5.6,1.48-5.61,1.62-5.6,1.48L480.68,550l-5.31,2.36-2.51,1.33-2.51,1.62L464,560.2l-6.35,4.72-6.79,4.27-6.78,3.69-3.69,1.63-3.54,1.33L433.17,577l-3.84.73-3.83.59-4,.3-4.13-.15-4.13-.44-2.5-2.07.44-.88v-2.66l.14-1,4.28-8.71-.59-.29-12.24,1-6.35.15h-6.34l-6.34-.44-6.05-.89-5.91-1.33-5.6-1.91-.74-.45-.59-.88-.14-1.18v-1.18l2.21-2.8,2.5-2.66,2.66-2.36,3.1-2.07,6.2-4,6-4-2.65-1-2.66-1-2.5-1.48-1-1-1-1.18,4-3.1,4.13-2.65,4.43-2.07,4.58-1.47,4.72-1.19,4.86-.73,4.87-.59,5-.15,3.69,1.62,3.54,1.77,3.54,1.78,3.69,1.47,4,1.18,4.13,1.33,8.27,2.65,4.13,1,4.27.44h4.14l4.27-.74,1.92-3.84,1.62-3.83,2.66-8,2.07-8.41,2.21-8.26-.89-.29-2.21-9.89-2.51-10.33-3-10.33-1.77-5-1.92-5h-.14l-.3-.89-.29-.74-1-1-1.33-.59-1.47-.3-1.33-.44-1-.59-.74-1.18-.15-.89v-1l-.15-2.21-.73-2.07-1.33.89-1.48,1.32-1.47.74h-.74l-.74-.44-1-2.8-.73-2.95-.3-3.1-.15-3.25-4.28-1.92-4-2.06-8-4.87-7.82-5.46-7.67-5.6-9.15-3.1-9-3.25-8.85-3.54L375.78,404l-8.7-4-8.56-4.28-17.12-8.85-16.82-9.59-16.52-10-16.23-10.48L275.6,346.12h-.15L203,294.78,146.06,251.4l-18.59-15.2-18.88-15.49L89.85,204.78,71.56,188.25l-8.86-8.4-8.55-8.71-8.41-8.85-8.12-9L30,144l-7.38-9.44-6.78-9.74L9.3,114.93l-1.63-3.54L5.9,108l-3.54-7.09L.89,97.37.15,93.68,0,91.77l.15-1.92.29-1.92L1,86,3,85.57H4.72l1.77.14,1.62.3,3.25,1.33,3,1.92,5.61,4.57,2.8,2.22,3,1.91L23.9,93.39l-2.06-4.87-1.92-4.87-1.62-5L13.43,60.93l-2.37-9-1.91-9-1.48-9.3-.88-9.29-.15-4.72.15-4.57.44-4.87.59-4.73.59-1.76L9.3,2.21,10.48.88,12.1,0l3.54.3,3.54.44,6.94,1.47L32.9,4.28l6.64,2.8,6.35,3.25L52.23,14l12.1,7.81,7.23,5.31,6.93,5.76,6.79,5.9,6.49,6.34,12.39,13,12.1,13.13Z"/><path class="cls-2" d="M67.43,28.47l9.73,8.11,9.59,8.71,9.15,9,9,9.29,8.56,9.74,8.12,9.74L129.39,93l7.53,10-7.82-.44-7.67.14-3.69.44-3.69.6-3.69.88L107,105.78,103.43,107l-3.25,1.63-3.24,1.77-3.1,2.06-3,2.36-2.66,2.66-2.66,2.8-2.5,3.25-1.77,2.8-1.63,3-1.47,3.1L77,135.59,75,142.08l-1.33,6.63-10.18-9.88-10.18-9.89-9.88-10.18-4.72-5.31-4.43-5.31L29.36,96.78,24.94,85.27,21.1,73.62l-3.39-12L14.9,49.57,12.54,37.18,10.63,24.64,9.3,12l.29-2.51.59-2.51.59-1.18.74-1,1.18-.59L14,3.69l3.69.44,3.68.59,7.23,1.91,6.79,2.66,6.64,3.1,6.49,3.54,6.35,4,12.54,8.56Z"/><path class="cls-3" d="M693.28,58.42l1.62,1.77L696.53,62,697.71,64l.15,1.18v1.18l-3.25,2.51L691.07,71l-3.69,1.63-3.84,1.32-7.67,2.36-7.53,2.37L636,87.19l-4.87,2.66-4.72,3-4.72,3.25L617,99.29l-9,7.23L599.15,114,546,162l-5,4-5.16,3.39-5.46,3.1L524.79,175l-5.9,1.91-6,1.48-6.34.88-6.64.15,2.66-2.36,2.8-1.91,3.09-1.33,3.1-1-1-.59H509.3l-2.65.89-3.55,1.33-3.39,1.92-3.39,2.35-2.95,2.81-2.66,3.24-2.21,3.54L487,191.94l-.29,1.92-.3,1.92.74.44.74-.15,1.77-2.8,1.47-3.1,1.63-2.8L494,186l1.33-1,1.91,3.39,2.07,3.1,4.57,6.19,5.17,5.76,5.6,5.31,5.76,5.17,6,5,12.24,9.74,5.31,3.24,5.61,2.81,5.75,2.21,5.9,1.77,6,1.48,6.2,1.18,12.83,1.77,13,1.33,12.83,1.32,6.35.74,6.34,1,6,1.33,6,1.62h.15l4,1.63,4,2.07,8,4.86.44-.29v-.59l-.73-.89v-.14l-2.66-2.22L647.4,253l-2.81-1.77-2.8-1.62-5.9-2.66-6.2-2.35h-.15L626,239.45,622,235l-4.28-4-4.57-3.54-4.72-3.25-5-3.09-10-5.61-10-5.9-4.87-3.25L573.92,203l-4.27-4-4-4.28-3.69-5-1.62-2.66-1.48-2.95-2.94-7.37-1.33-3.84-.89-3.83,3.69-1,3.54-1.18,3.39-1.48,3.4-1.62,6.34-3.83,6.2-4.58,5.9-5.16,5.61-5.46,10.76-11.36,4.73-6.34,5-6.5,5.46-6.34,5.61-6.34,5.9-6,6.2-5.61,6.49-5,6.79-4.58,4-.59-7.08,4.28-6.5,5-6.19,5.31-5.76,5.75-5.45,5.9-5.32,6.2-10.32,12.69-10.48,12.39-5.31,5.76-5.61,5.6-6.05,5.16-6.19,4.58-6.79,4L562,170.4,558.28,172l1.92,5.45,2.36,5.17,2.81,4.72,3.24,4.43,3.69,4.27,4,3.84,4.28,3.69L585,207l4.72,3.1,4.87,3.1,9.88,5.6,5,2.51,5,2.51,9.59,4.87,5,3.54,4.87,3.69,4.72,4.13,4.57,4.28,4.28,4.57,4,4.87,3.54,5,3.1,5.16-4.28-1.18-4.28-1.48-4.43-1.62-4.42-1.18h-.15L630,256.12l-10.77-2.06-10.77-1.77-10.92-1.48-22-2.95-22.12-3-13-4.28-2.8-2.51L535,235.76l-2.5-2.51-2.37-2.8H530l-6.49-5-6.63-4.72-6.94-4.13L503,212.75l-7.23-3.4-7.23-3.25L481,203.3l-7.52-2.65-1.47-1-1.33-1.18-1-1.47-.29-.89-.15-.88,1.62-3.39,2.07-3.25,2.51-2.8,2.8-2.66,6.05-4.87,6.19-4.28,4.58-2.36,4.72-2.21,4.72-1.92,4.87-1.77,9.89-3,9.88-2.66-1-.73-1.33-.15h-2.8l14.16-15.34,14.46-15.2,7.38-7.23,7.67-7.08,7.82-6.79,8.11-6.19,3.1-2.81,3.25-2.65,6.93-5.32L604,85.42,611,80.11l3.25-2.8,3.1-2.81,2.8-3.09,2.51-3.4,2.21-3.39,1.92-3.84,1.33-4,.89-4.28-.6-2.66-1-2.65L626.59,46l-1-1-1.18-.89-1.47-.44-4.43-.44H614.2l-4.13.14-4.13.44-4.13.74-4.13.89-8,2.21L582,50.31l-7.68,3.1-7.66,3.1-7.53,3.09-13,6.79-6.49,3.69-6.35,4L527,78.19l-6.2,4.43-5.9,4.86-5.76,5.32.15-1.33.3-1.18,1.18-2.36,1.62-2.36L514,83.21l9.89-8.27,9.88-8.26,10-8.11L554,50.9l10.32-7.38L575,36.73l10.91-6.19,5.61-2.81,5.61-2.5,4.72-1.63,4.87-1.32,5-.89,5-.59,5-.29h5.16l5,.44,5,.73,4.87.89,4.87,1.33,4.87,1.77,4.57,1.92,4.43,2.21,4.28,2.51,4,2.95,3.83,3.1,20.66,20.06Z"/><path class="cls-2" d="M121.28,36.29l6.19,6.79L133.23,50l5.46,7.08L144,64.32l10,14.61,9.59,14.75-3.1-.29h-3.24l-3.25.44-3.1.74-3,1.33-2.66,1.62-2.21,2.36-1.92,2.8L135,95.31l-5.75-7.68-2.66-4-2.36-4.13-1.92-4.13L120.69,71h-.15l-3.83-9.74-3.4-9.88-3-10.18L109,36l-1-5.31.15-1.78.29-.88.74-.74,1.92.44,1.62.74,1.62,1.18,1.33,1.18,2.81,2.8,2.8,2.66Z"/><path class="cls-4" d="M623.2,47.36l1.47,1.92,1,2.36.29,2.5-.44,2.66-1.62,3.83-1.77,3.55L620,67.42l-2.5,3-2.66,2.8-2.95,2.66-6.2,4.87L599,85.27l-6.65,4.58L586,94.57l-3.1,2.51-2.8,2.8L566,112,559,118l-6.64,6.34-6.49,6.35-6.19,6.64L533.65,144l-5.76,6.94.44-1.77.15-1.77-.15-3.4-.73-3.39-1.18-3.39-2.51-6.94-1-3.69-.3-3.69-3.69-8.26,1.48-.44,1-.74v-.15l-.59-.73-1-.45-1-.44-1-.44-1.33-1.62-1.62-1.48L513,107l-.89-.29h-1.18l2.07-1.33,2.21-1.48.89-.88.74-1,.29-1.32V99.29l-.74-.74-.88-.44-2.07-.59-2.07-.15-2.21-.29.59-1.77,5.76-4.87,5.9-4.58,6.05-4.27,6-4.13,6.2-3.84,6.19-3.69,6.35-3.39,6.34-3.25,6.49-3.1,6.64-2.8,6.64-2.51,6.78-2.36,6.79-2.21,6.94-1.92,7.08-1.77L613,45.14l2.8.15,2.66.3,2.51.59,1.18.44,1,.74Z"/><path class="cls-1" d="M521.69,73.17l-12,10.63L494.4,86l1.33-1.62,1.62-1.48,3.39-2.36,3.69-1.77,3.4-1.92-7.67.3,1.76-1.33,1.77-.89,1.92-.58,2.07-.3,4-.15,4.28.45.29-.74v-.74l-1.17-.74-1.18-1-.3-.74.15-.88,2.21.29,2.07.89,3.68,2.5ZM546.63,78l-5.31,3.55-5.17,3.68L531,89l-2.66,1.62-2.65,1.33-.74-.73.15-.89.44-.74.45-.74,2.21-2.06,2.36-1.92,2.5-1.62,2.66-1.48,2.51-1.18,2.8-1L546.63,78Z"/><path class="cls-5" d="M508.56,86l-1.47,2.51-.89,2.66-.29,2.8.14,3.1-2.65-.15-2.51-.3L496,95.16l-2.51-1-2.36-1-4.72-1.77v-.14l2.36-1,2.51-1,5.61-1.33,2.95-.44,2.95-.44,5.75-.89Z"/><path class="cls-2" d="M18.89,97.67,74.8,155.21l-2.51,1.62-2.21,2.06-1.77,2.22L67,163.62l-1.18,2.65-.88,2.81-1.18,5.75-8.71-9-8.41-9-8.11-9.3-7.67-9.44-7.38-9.59-6.78-9.88-6.35-10.33L4.72,97.67,4,95.6l-.74-2.07L3,91.32l.3-1,.59-1.18,2.21.29,2.06.74L10,91,12,92.21,15.49,95l3.4,2.66Z"/><path class="cls-6" d="M552.09,167.45l.29,4.87,1,4.72,1.47,4.58,1.92,4.42,2.5,4.13,2.81,4.13,3.1,3.84,3.54,3.69V202l5,4.12,5.17,3.7,5.31,3.39,5.46,3.39,11.06,6.34,11.07,6.64h-.74l7.68,6.64,3.53,3.55,3.25,3.68-9.74-1.32-10-.89-10.18-.88-10.33-.89-1-3.1-1.33-3.1-1.47-2.95-1.77-3-4-5.61-4.57-5.16L566,212l-5.46-4.13-5.76-3.69-5.9-2.95.89-4.13.44-4.28-.15-4.28-.44-4.28-1-4.28-1.47-4L545,172.32l-2.36-3.24,10.77-9.3L564,150.49,574.51,141,585,131.6l10.47-9.44,10.63-9,10.77-8.85,10.91-8.41,11.07-6.2-5.61,4.72-5.31,5-5.16,5.31-4.87,5.61L608.15,122l-9.59,11.66-4.87,5.6-5,5.31-5.31,5-5.61,4.72L572,158.45l-6.2,3.69-6.64,3-3.54,1.33-3.54,1Z"/><path class="cls-1" d="M480.83,93.09l3.39.59,3.4.89,6.78,2.36L501,99.14l3.39.59,3.4.15H514l-1.62,1.92-1.92,1.32-2.21,1-2.51.59-2.51.29-2.65.15-5.31-.15-5.61-.58-5.9-.3-5.91.15-5.75.59-2.8.44-2.81.73-2.65,1-2.51,1.18L459,109.77l-2.36,1.76-2.06,2.22-1.92,2.36h-.15l-.45.88-.44,1-.29,1v1l2.36-2.21,2.36-2.36,2.66-2.07,1.47-.74,1.63-.59-4.28,8.27-1.92,4.28-1.48,4.27-1.33,4.43-.88,4.57-.3,4.58v4.72l-2.21-3-1.77-3.39-1.33-3.4-1-3.69-.74-3.69-.44-3.83v-3.84l.15-3.83-.59-.89-4,6.64-.44-3.24-.15-3.25.3-3.4.44-3.24.89-3.25,1.18-3.09,1.33-3.1L444.83,99l-.89-.29-.74.29-1.47,1-1.62,1.33-.74.29h-.89l1.92-2.07,2.07-1.91,2.21-1.62L447,94.57l2.51-1.18,2.65-.89,2.81-.73,2.8-.59,5.75-.6,5.91.3,5.75.74,5.61,1.47Z"/><path class="cls-7" d="M173.8,109.62l-3-.59-3.1-.3-2.95.15-3,.59-2.8.74-2.66,1.18L153.88,113l-2.21,1.92-1.18-1.33-1.62-1.48-3-3.09-1.18-1.62-.74-1.78v-1.91l.29-1,.59-1,1.77-1.92,1.92-1.47,2.22-1.18,2.36-.89,2.5-.59,2.66-.15,2.65.15,2.66.59,1.63,1.18,1.47,1.48,2.51,3.39,2.21,3.83,2.36,3.7v-.15Zm-33.79-3,3.55,4.42,3.24,4.43h-7.67l-7.53.74-3.83.59-3.84.88-3.69,1-3.53,1.33-3.4,1.48-3.39,1.77-3.25,2.06-3,2.36-2.8,2.51-2.66,2.95-2.36,3.1-2.06,3.54-4.43,10-4.13,10.48-8.27-8,.6-5.75,1.18-5.75,1.62-5.46,2.21-5.32,2.95-5,3.4-4.58L91,118.47l2.21-1.92,2.37-1.92,2.5-1.62,4.72-2.21,5-1.92,5-1.62,5.31-1.18,5.31-.74,5.46-.15,5.61.3,5.45,1.18Z"/><path class="cls-8" d="M514.61,111.53l-3.25.89-3.39.74-3.54.74-3.24,1-6.35,2.36-6.34,2.65-6.05,3.1-6.05,3.4-5.75,3.68L465,134.26l-5.46,4.42-5.16,4.87.29-4.72.59-4.42,1-4.43,1.47-4.28,1.77-4.13,2.07-4.13L464,113.6l2.65-3.83v-.15l5.17-1.33,5.31-.59,5.46-.29,5.6.14,5.46.15,5.61.29,5.46.15H510Z"/><path class="cls-5" d="M176.31,113.3l35.55,54.45,51.64,69.19L273,248.6l9.59,11.65,19.76,23L322.67,306l20.5,22.28,66.1,68.46L420,406.9l-2.65-.29-2.66-.59-2.51-.74-2.36-.88-30.54-29.51-30.25-29.8-29.95-30.25L304.37,299.5,289.91,284l-53.7-59-10.92-13.28-10.47-13.28-20.51-26.85L184.13,158l-10-13.43-20.66-26.85.89-1.62,1.18-1.18,1.32-1,1.48-.74,3.1-1,3.1-.89,3.24.15,3.1.29,3,.45,1.33.44,1.18.73Z"/><path class="cls-7" d="M519.63,121.71l.88,2.66.6,2.66.44,2.65.14,2.66-.14,5.46-1,5.46-1.62,5.16-2.51,4.87-3,4.57-3.69,3.84L507.83,163l-2.07,1.18-2.07.73-2.06.74-4.43.59-4.42.15-4.58-.3-4.72-.44-9.14-1-.89.29-.89.15-1.62-.29-1.62-.74-1.63-.89,2.81-.73,2.95-1.18,1.18-.74,1.18-1,.88-1.18.74-1.33.74-3,.3-3.09.14-3.25-.29-3.1-.74-3.24-.89-3-1.47-2.95-1.77-2.66,4.72-3.24,4.87-3,5-2.65,5.16-2.51,5.31-2.07,5.6-1.77,5.61-1.32,5.91-.74,4,6.19Z"/><path class="cls-5" d="M162.44,134.85l56.21,73.77,34.09,39.09L311.16,311l59.6,59.31,35.41,33.5-.73.44-1,.74-1,.59-.88.44-19.78-10.77-19.47-11.36-19.18-11.95-19-12.39-18.89-13L287.4,333.14,269,319.41,250.67,305.1l-88.82-73.32-18.59-16.23L125.11,199l-18-16.82L89.26,164.94l-.73-1.18-.3-1.32v-1.33l.3-1.33.88-2.51.74-2.65,2.65-6.05,3.4-5.91,4.13-5.75,4.57-5.31,2.66-2.36,2.65-2.21L113,125l3-1.62,3.09-1.48,3.25-1.18,3.25-.74,3.39-.44,5.31-.59,5.31-.44h5.17l5,.74,12.69,15.64Z"/><path class="cls-7" d="M475.66,143.55v.89l.15,1-.15.88-.29.45-.59.14h-.15l-1.62-.88-1.18-1.48-.89-1.62-.59-1.62V137.8l.3-1.33.44-.59.59-.29,1.18,1.77,1.18,1.91Z"/><path class="cls-8" d="M523,158.89l-1.91.89-2.51.44-2.51.45-2.36.74v-.15l4-4.87,1.62-2.66,1.48-2.65,1.18-3,1-3,.59-3.09.3-3.25,1.18,2.21.59,2.36.15,2.66-.3,2.65-1.18,5.17-.74,2.66-.59,2.35Z"/><path class="cls-5" d="M467.69,166l-1,1.77-.29,1.91.14,1.92.74,1.77h.15l1.63,2.22,2.06,1.77,2.36,1.47,2.21,1.63-.88.73-.74,1-1.77,2.07-.89.88-1,.6h-1.18L468,185l-2.8-3.39-2.36-3.54-1.92-3.84-1.62-4L456.78,162l-2.36-8.41L455,153l6.05,6.64,3.24,3.25,3.39,3.1Z"/><path class="cls-7" d="M82.77,163.47l-2.21,1.91-2.07,2.22L76.87,170l-1.33,2.36L74.36,175l-.89,2.8-.73,2.8-.45,2.81v.14l-1.76-1.77-1.77-1.62-1.63-1.62-.59-1-.3-1,1-5,1.77-5,1-2.36,1.48-2.21,1.77-1.92,2.06-1.62h1.18l1.18.29,1,.59.88.88,1.63,1.78,1.47,1.62Z"/><path class="cls-5" d="M85.87,166.27l19.62,18.88,19.92,18.59,20.51,18.15,20.8,17.86,55.33,45.73,21.09,17.11,21.25,16.68,21.69,16.08,22,15.49,22.28,14.9,22.42,14.16,22.73,13.73,23,13,1.47.29,1.33.59.89.89.88,1.18.74,1.18.74,1.33.89,1,1,.88-9.15-3.53-9-3.84-9-4-8.85-4.14-17.56-9-17.26-9.6-17-10.17-17-10.63L285.05,348l-16.53-11.22L194.75,284l-58.42-44.86-15.49-12.83-15.5-13L90,200.06l-7.52-6.94-7.38-6.93.59-5.61.59-2.8.73-2.65,1.19-2.66,1.62-2.36L81.74,168l2.36-1.77Z"/><path class="cls-8" d="M478.32,178.52l-1.18-.3-1.18-.59-2.21-1.77-2.07-2.06-1.33-2.37-.15-1.17.15-1.18.44-.89.89-.74,5.6.15L483,168l11.36,1-15.93,9.44Z"/><path class="cls-9" d="M543.82,175.13l.89,2.65.74,2.95.59,3,.29,3.25.15,6.34-.29,3.1-.45,3.1-.88.59h-.15l-3.83-.74-4.14-.59h-4.13l-4,.29-4.13.59-3.84,1.18L517,202.42l-3.24,2.21-2.51-2.36-2.36-2.51-4.43-5.6-3.83-5.76-3.69-5.9h5.9l5.75-.44,5.76-.89,5.46-1.18,5.31-1.77,5.16-2.21,4.87-2.66,4.72-3.09.89.29.59.3,1,1.32.74,1.48.73,1.48Z"/><path class="cls-2" d="M468,188.7l-1,1.77-.89,1.77-.59,1.92v1.91l-3.1,2.07L459,199.76l-3.39,1.48-3.4,1.18-3.54,1L445,204l-3.69.59-3.84.3.3-.3h-2.07l4.28-2.21,3.84-2.81,3.39-3.09,3.1-3.69,2.36-4,2.06-4.28,1.48-4.43,1-4.72,2.07,3.54,1.18,1.92,1.33,1.92,2.8,3.39,1.62,1.33L468,188.7Z"/><path class="cls-2" d="M445.86,193l-3.69,3.4-3.84,2.95-4.27,2.36-4.43,1.92-4.72,1.33-4.87.73-5,.15-5.17-.29-1.92-.74-1.77-1-1.33-1.33-.59-.74-.29-1,.15-.89.44-.88,1.18-1,1.77-.88,1.77-.59,6.2-.59,6.19-.15,5.91.29,5.9.74,1.33-1.47-.89-.59-1.18-.3-1.18-.29-1.18-.3-.89-.29-.73-.59v-1l.14-.6.3-.73,1.18-1.48h.15l3.54,1.77,3.69,1.18,4,.74,4.13.29Z"/><path class="cls-10" d="M581.59,238.71l-13.42-1.77L564,232.81l-4.28-4-4.57-3.4-4.87-3-5.17-2.5-5.31-2.07-5.61-1.33-5.75-.88-3.39-1.63-3.25-1.92-3.1-2.5-2.8-2.81,1.47-1.62L519,204l1.92-.88,1.92-.59,2.06-.3,2.07-.44,4.27-.89,4.14.15,4.13.59,4,1,3.84,1.33,3.83,1.62,3.69,1.92,3.54,2.36,3.39,2.36,3.25,2.81,3.1,2.95,2.8,3.1,2.66,3.24,2.36,3.39,2.21,3.55L580,235l1.62,3.69Z"/><path class="cls-5" d="M528.78,234.43l1.77,7.53,2.21,7.37,2.36,7.38,2.36,7.38,2.22,7.38,1.76,7.67,1.19,7.82.44,4,.14,4.13-.58-.74-.3-.73-.44-1.77-.45-1.48-.44-.44-.59-.15-.29,7.82-1,7.67-1.77,7.67-1,3.55L535,319.86,532.32,316l-2.66-4.13-5.75-8.56.29-5.45.3-5.61.44-5.61.74-5.46.44.3.3.59.14,1.47.3,1.18.44.45h.89l-.3-5.61L527,274l-1.33-5.31-1.62-5.16-3.84-10.18-2.21-5-2.07-4.87-7.53-14L500.6,215.7l7.37,3.83,7.38,4.28,3.54,2.21,3.54,2.51,3.25,2.81,3.1,3.09Z"/><path class="cls-10" d="M563.89,235.76l-4.58-1-4.57-1.33-4.28-1.77-4.27-2.07-4.14-2.35-4-2.66-3.69-2.81-3.69-3.24,4.73.88,4.42,1.33,4.43,1.77,4.13,2.21,4,2.37,4,2.65,7.52,6Z"/><path class="cls-7" d="M558.87,249.48,557,253.91l-1.76,4.87-1.33,5.16-.89,5.31-.44,5.31.15,5.31.88,5.17.74,2.51.89,2.5-.59-5.16V280l.29-4.87.59-5.31,1,2.51,1,3.1.29,1.62.44,1.62.89,3.1,2.51,6.35,2.8,6.19,2.95,6.05,3.24,6.05,3.4,5.9,3.84,5.9,4,5.61,4.42,5.61-1.32-.3-1-.88-1-.89-1.33-.74.45,1.92.59,1.77,1.62,3.25,2.21,3.24,2.51,3,2.51,3.09,2.06,3.1,1.63,3.39.59,1.78.29,1.91-2.51-2.5-2.06-2.81-1.92-2.95-2.06-3.1-.3.74.74,2.07.88,1.91.89,1.77.88,1.92.74,2.07.45,1.92-.15,2.21-.74,2.36-.59,1.18-.44,1.18-.74,1-.59.3h-.74l.74-1.92.59-2.06.14-2.07-.14-1.92-.3-2.06-.59-1.92-.88-1.92-1-1.77-.14,4,.29,4.27.15,4.28-.15,2.07-.44,1.92v1.32l1,.3,1-.15,1.91-.89-.59,4.57-.88,4.58-1,4.28-1.19,4.42L584.84,386l-1.62,4.13-1.92,4.13-1.92,4L577.17,402l-2.36,3.83-2.66,3.69-2.8,3.69-6.05,6.93-6.79,6.64.74.44L558,427l.74-.44.73-.59,6.79-4.58-.15,9.15.3,9,.74,8.85,1,8.56,1.33,8.41,1.62,8.41,3.54,16.82L573,488.64,571.27,487l-1.92-1.48-1.92-1.47-1.77-1.63-1.77-1.62-1.33-2.06-1.18-2.37h-.29l.73,3.84,1.18,3.84,1.48,3.83,1.18,3.84-2.21-1.18-1.77-1.48-1.63-1.91-1.47-2.07-2.65-4.43-1.48-2.06-1.62-1.92.29,2.51.89,2.36,1.18,2.36,1.32,2.36L551.94,482l-4.13-4.72-3.69-5-3.39-5-6.35-10.48-6.19-10.18v-1l.44-.74.59-.44.73-.44,1.63-.45.89-.29.58-.59.45.59.59.74.59.88.59.89.73.74.74.29.89-.15,1-.88,4.28-6.79,1.92-1.18,2.06-1.33,1.48-1.77.44-.89.3-1-5,2.81,1.18-6.79,1.18-6.93.74-7.09.74-7.08.44-7.23.15-7.08V386.1l-.15-7.23-.59-7.08-.74-7.08-1-6.94-1.33-6.93-1.62-6.79-1.92-6.49L539,331.07l-2.51-6.19,1.47-3L539.1,319l.89-3.1.74-3.24,1-6.49.59-6.79h1.18l1-.59.89-1,.29-1.18.3-4v-4l-.3-3.84-.44-3.83-1.48-7.38-2.06-7.38-5-14.31-2.65-7.08-2.22-7.23,3,2.95,2.95,2.22,3.24,1.92,3.54,1.47,3.4,1,3.68.89,7.23,1.47Z"/><path class="cls-5" d="M632.05,315.28l4,8.71,3.39,9,3.1,9.29,2.51,9.3-7.38-4-1.92-6.5-2.21-6.2-2.36-6.34-2.51-6.05-2.8-5.9-3.1-5.9-3.4-5.76-3.54-5.6-4.13-4.57-4-4.43-2.21-1.77-2.36-1.48-2.66-.88-1.33-.15h-1.47l1.91-1,1.92-.3h1.92l2.07.45,1.91.73,1.78.89,3.54,2.06,5.9,6.2,5.16,6.49,4.43,6.79,3.83,6.93Z"/><path class="cls-11" d="M618.92,310.12l2.81,5.16,2.5,5.32,2.36,5.46,2.22,5.6,1.91,5.46,1.78,5.75,3.09,11.66,2.22,11.8,1.47,12.1.89,12.25.14,12.54-1.91-7.82-1.77-8-1.77-8-1.77-7.82L631,363.82l-2.36-7.67-3.1-7.37-1.77-3.55-1.92-3.54-.88,1.92,2.65,6.05,2.22,6.19,1.91,6.35,1.77,6.64,1.33,6.64,1,6.79.73,6.78.3,6.94.15,6.93-.15,6.93-.44,6.94-.74,6.94-1,6.78-1.32,6.64-1.63,6.64-1.91,6.49-.89,1.33-.74,1.47-1,1.18-1.62.89-.89-.44-.59-.59-.44-.74-.15-1-.15-2.22-.14-2.06V436.12l-.59-11.66-1.18-11.65-1.92-11.37-2.36-11.06-3.1-10.92-3.69-10.77-4.13-10.32-.59-.74-.3-.3-.29.15,3.54,13.28L608,384l2.8,13.58,1.18,6.93,1,6.94-1.33,9.88-.88,4.87-1,4.87L608.45,436l-1.63,4.72-1.91,4.43-2.37,4.27-1.77.89.15-8,.3-8.26.14-8.26v-8.41l-.44-8.26-.59-4-.59-4-.88-3.84-1.18-3.68-1.33-3.55-1.77-3.39-.59.59L597.38,406l-2.21,10.33-1.18,5-1.33,4.87-1.77,4.87-2.07,4.57-2.36,4.43-3,4.28-.59-.59-.29-.74-.15-1.77.15-1.92v-1.77l.14-8.26v-8.12l-.14-4-.59-4-.59-4-1-3.84-.59,2.21-.29,2.51-.15,2.51-.44,2.51L577,420.48l-1.77,5.31L573,431l-2.37,4.86h-.14l-.59-.29.15-5.31.29-5,.44-5.17.74-4.86,4.72-5.76,4-6.05,3.54-6.19,3.09-6.49,2.36-6.79,1.92-6.93,1.18-7.09.74-7.23-.44-.88-.15-.89.15-1.62.44-1.62.3-1.78.88.15.89.74.88.89,1,.74.73-1.78.45-1.92.14-1.76-.14-1.77-.89-3.4-1.47-3.24-2.07-3.1-2.36-2.95L589,335.64l-2.36-2.5,1.92.29,1.77.89,1.77.88,1.92,1-.59-2.5-3.84-5-3.69-4.87L582.33,319l-3.1-5.16,1.92-3.25,1.77-3.54,3.39-7.08,1.92-3.39,2.36-2.95,2.81-2.66,1.77-1.18,1.92-.89,1.91.45,1.77.59,3.4,1.77,3.1,2.51,2.65,2.95,2.51,3.1,2.36,3.39,2.07,3.39,2.06,3.1Z"/><path class="cls-5" d="M520.22,303.92l3.39,5.17,3.4,5,3.09,5.17,2.66,5.31-.29.59v.59l.58,1,.89,1,.74,1,2.65,8.11,2.22,8.41,1.77,8.56,1.33,8.7-.6,3.1-1,3.1-1.47,3-1.77,2.65L535.56,377l-2.36,2.21-2.65,1.77-2.95,1.62-1.18-2.21-.89-2.36-.89-2.22-.73-2.36-.3,1-.15.89.3,2.07.3,2.21-.15,2.06-1.63,2.81-1.77,2.8-2.06,2.66-2.22,2.65-2.5,2.22-2.66,1.62-2.95,1.18-1.62.3-1.63.14-1-3.54L503,391l-.3,1.33-.15,1.33.15,2.65.3,2.8-.3,3L500.89,404l-2.06,1.62-2.22,1.32-2.21,1.18-2.51.74-2.51.59h-2.5l-2.66-.29-.15-3.4-.59-3-.74-2.8-.59-3H482l-.44,3.1v3.54l.14,3.54.3,3.39-1.18.74-1.33.59-2.95.44h-3.1l-3.1-.59v-6.19l.3-6.05.59-5.9.74-5.76,1.77-11.51,1.62-11.5-1,.29-1.78,6.49L471.09,378l-1.18,6.64-.74,6.64-.88-.89v-3.84l-.15-4-.15-4,.3-3.69-.89,1.62-.59,1.77-.3,1.92-.14,2.07v8.41l1.92,11.06-1,9.74h-.14l-.15.29.73,1-.14,6.35.44,6.34.44,6.05.15,6-2.51,4.58-2.51,4.42-1.47,2.22-1.62,2.06-1.92,1.77-2.21,1.62h-.15L455,453.08l-.44-4.42v-4.43l.58-9.15.89-9.14.3-4.58v-4.57h-.15l-1.77,2.06-.89,3.84-.44,3.84-.3,4-.29,3.84-.59,3.68-.89,3.55L449.55,445l-1,1.62-1.18,1.48-.74-5-.15-5,.15-4.86.59-4.87.89-5,.73-5,1.62-10.18,4.43-14.45,4.87-14.17,5.46-14,6.19-13.72L478,338.3l7.38-13.13,4-6.49,4.13-6.35,4.28-6.19,4.58-6.2,1.32-1.62L505,296.7l1.48-1.19,1.77-.73,1.91.29,1.63.74,1.62,1,1.62,1.18,2.66,3,2.51,2.95Z"/><path class="cls-1" d="M579.24,364.56l-.6-.29v-.15l1.78-3.54,1.32-3.84,1.18-3.83,1.18-3.84.3,2.21-.15,2.07-.3,2.06-.73,1.92-1.77,3.84Z"/><path class="cls-7" d="M646.81,359l.59,6.5-3.54-3.1-3.84-2.8L638,351l2.81,1.18,2.65,1.62,1.18,1,1,1.18.73,1.48.45,1.47Z"/><path class="cls-2" d="M650.49,397l-1.18,9.88-1.77,9.74-1,4.87-1.33,4.57-1.47,4.58-1.77,4.27,1.18-18.14.44-9.15.3-9.15-.3-9.14-.44-9-1.18-9-1.63-8.71,2.22,1.33,1.77,1.48,1.62,1.62,1.18,1.77,1,2.07.74,2.06.89,4.57.29,4.87.15,4.87v5Z"/><path class="cls-7" d="M543.53,378.28l-2.8,4-3.4,3.68-1.91,1.63-1.92,1.47-2.22,1.18-2.21.74-.44-.74-.15-.73-.15-1.63V386.1l-.14-.74-.3-.59,2.51-.88,2.51-1.18,2.21-1.63,2.06-1.91L539,377.1l1.62-2.21,1.47-2.21,1.18-2.37.59,1.78.3,2.06v2.21l-.59,1.92Z"/><path class="cls-2" d="M537.33,443.5l-1.77-4-1-8.41-.88-8.26-1.18-8-.74-4-1-4-.14-3.68-.3-3.25-.44-3.24-.15-3.4,2.21-.59,2.07-1,2.06-1.33,1.78-1.62,3.54-3.4,2.8-3.39.74,15.64.15,8-.3,7.82-.74,8L542.5,429l-.89,3.68-1.18,3.69L539.1,440l-1.62,3.55Z"/><path class="cls-7" d="M519.63,400.71l-1.48,1.62-1.47,1.48-1.48,1.33-1.62,1-1.77.88-1.92.59-1.77.29-2.07.15-.88-8,3.24-.3,2.95-.88,2.81-1.48,2.66-1.77,2.21-2.36,2.07-2.51,1.91-2.65,1.48-2.81,1,2.07.3,1.92-.45,2.06-.88,1.92-2.36,3.84-2.51,3.54Z"/><path class="cls-2" d="M527,397.76l.59,9.29.14,9.59-.29,9.59-1,9.59-1.63,9.3-1,4.72-1.33,4.57-1.32,4.43-1.78,4.27-1.92,4.28-2.06,4.14h-.15l-3,2.94-1.18-1.17-.74-1.48-.44-1.62-.29-1.77v-3.84l.14-1.77v-1.77l-.29-12.84-.74-12.54-1-12.39-1.33-12.69h2.8l2.66-.59,2.51-.88,2.36-1.33,2.06-1.62,1.92-1.77,1.77-2.07,1.48-2.21,2.36-4.28.74,1.92Z"/><path class="cls-5" d="M443.65,425.05l-2.66.3h-2.66l-2.65-.15-2.51-.29L428,423.58l-4.87-2.07L418.42,419l-4.57-2.8L409.56,413l-4.27-3.24h.29l-.29-2.51h2.51l2.36.29,4.72,1.33,4.87,1.18,2.51.15,2.65-.15-3,1.33-1.62.59-1.63.89h3.69l3.39-.45,3.4-.88,3.24-1.18,3.1-1.48,3.1-1.62,5.9-4,3.4-2.51-.45,3-.73,2.95-1.33,6.05-1.18,6.2-.59,6.19Z"/><path class="cls-7" d="M503.55,408.08l-1.33,2.07-1.48,1.92L499,413.84l-1.91,1.47L495,416.5l-2.21,1-2.22.59-2.36.44-1.47.15-1-.45-.6-.73-.29-1v-2.37l-.29-2.36v-.29l2.65.29,2.66-.14,2.5-.45,2.36-.88,2.37-1,2.06-1.48,1.77-1.62,1.77-1.77.44.74.3.88Z"/><path class="cls-2" d="M506.05,443.5l-2.5,8.7-3.1,8.7-1.77,4.28-2.22,4.13-2.35,4.14-2.81,3.83h-.89l-1.62-5.61-1.17-6.05-.74-6.19-.3-6.35-.15-6.34-.14-6.34-.3-6.2-.29-5.76-.6-8,2.66.29h2.65l2.52-.44,2.5-.88,2.36-1.19,2.07-1.47,1.92-1.92,1.47-2.07,1.33,7.38.74,7.68.29,7.81.44,7.83Z"/><path class="cls-7" d="M480.83,421.07l-2.22.88-2.51.59-2.5-.15-1.18-.29-1-.44-.44-1.92-.44-1.92V415.9l.44-1.92h.15l1.18.45,1.33.15h2.65l2.66-.6,2.51-.88.44,2.07.29,2.21-.14,2.07-.44.88-.74.74Z"/><path class="cls-2" d="M483.92,462.53l-1.62,3.39-1.77,3.1-1.48-.89L477.28,463l-1.47-5.31-1.18-5.46-1-5.46-1.33-11.36-1.18-11.51,2.8.44,2.95.3,3-.15,1.33-.29,1.33-.59,1.47,38.95Z"/><path class="cls-7" d="M443.35,427.86v6.34l-2.36-.59-2.21-.89-4.43-2.21-4.28-2.65-4-2.51,4,1.47,4.28.89,4.43.29,4.57-.14Zm89.41,12.24-1.48.59h-1.91l1.32-14.75,2.07,14.16Zm-63,3.69,1.18,6.64,1.48,6.49,1.77,6.34,2.36,6.05,1.32.89,1.33,1.33.59.44.74.14.74-.44.74-.88h.14l1-1.33,1-1.33.74,3.25,1,3.09,1.63,3,1.76,2.65h.15l3.25-1.62,2.65-2.07,2.21-2.5,1.78-2.81L501,468l1.33-3.24,1.32-3.1,1.18-3.1,1.48-4.87.3,2.07.14,2.07-.29,1.91-.45,1.92-1.47,3.54L503,468.72l-8.12,14.61L487,497.93h-.59v-3.69l-.29-3.68v-3.84l.29-1.77.59-1.77-1.62,2.07-1.33,2.36-1.32,2.65-1.18,2.66-2.81,5.16L477,500.44l-1.91,2.07.88-17.26-1.18-1.48h-.15L474,485l-.29,1.48-.3,3.1-.15,3.24-.29,1.47-.45,1.48-1.91-10.62-2.22-10.63-2.95-10.62-1.77-5.16-1.91-5,1.32-1,1-1,1.78-2.51.73-1.48.89-1.32,1.62-2.8.59.29Z"/><path class="cls-12" d="M574.22,499.11l4.72,12.4,4.87,12.24,5.31,11.81,3,5.75,3.1,5.75,1.92,1.18.44-.73v-.59l-.3-.74-.14-.89,4.57,2.22,4.72,1.91,5,1.77,5,1.63,5.32,1.18,5.31,1.18,5.46.89,5.45.58,4.87-.58-.88,2.65.59.44.59-.14.88-.74.44-.45.6-.44.59-.44h3.24l2.51.29,2.21.89,2.21,1,4.14,2.51,4.13,2.36,3.24,2.36,3.25,2.8,3.1,2.95,3,3-1.48,1-1.32.59-1.33.29H671.3l-1.18-.44-1.18-.59-2.22-1.62-2.06-2.07-2.21-2.06-2.37-1.77-1.18-.59-1.32-.44L656,566l-1.77-1-1.77-.89-1.92-.59-4-.88-4-.3-2.07-.15H638.4l-4-.44-4-.89-1.92-.73-1.92-1-8.85-3.69-9-3.69-.59.59v.15l1.18,1.33,1.33,1,.44.44v.59l-.29.88-.89.89.3.59.29.29,2.8-2.8,5.76,3,5.6,2.81,3,1.32,3,.89,3.09.88,3.25.45-.44.73-.74.74-.59.89.15.44.44.59,1.77-1.18,1.77-.88,1.62-.6,1.78-.29h1.76l1.63.29,3.39,1,3.25,1.62,3.24,1.92,3.1,2.06,3.1,1.77,2.06,1.63,1.78,1.76,1.77,1.63,1,.59,1.33.59.59.59.44.59,1,1.18.44,1.33v.74l-.29.73v.15l-3.39.59-3.25.3-6.49.29-6.64-.15-6.93-.44-1.33-3.1-1.62-3.39-1.78-3.25-2.21-2.95-2.36-2.65-2.8-2.21-1.48-.89-1.62-.59-1.77-.44-1.77-.3-2.22.89-2.06.15-2.07-.45-2.06-.73-2.07-1.18-1.91-1.19-4-2.06-3.83-1.92-1.92-1.18-1.62-1.48-.89.3-.89.59,1.33,1.18,1.48,1.33-.59.74-.74.59-.88.59-.74.59-.74.59-.59.73-.15.89.3,1,1.62-1,1.92-1,2.06-.59,2.22-.3,2.65,1.18,2.66,1.48,5,3.09-1.77,2.07-1.77,2.21-1.33,2.22-.29,1.18v1.18l3.24-3.54,1.78-1.63,1.91-1.47,1.92-1,2.22-.73,2.35-.15,2.52.59,2.65,1.48,2.36,1.91,2.22,2.22,1.91,2.36,1.62,2.66,1.48,2.8,1.18,2.8,1,2.8v.15l-.29.89-.3.88-.59.74-.88.44H638l-3.39-.14-3.39-.6-3.25-.74L621.43,589l-3.1-.89-3.1-1-4.87-2.22-4.86-2.21-2.36-1.18-2.22-1.62-2.06-1.77L597.09,576l-4.73-8.55-5.31-8.27-5.6-8.26-5.76-8L563.45,527,551.2,511.07l-.29-.74-.3-.89v-.73l.15-.15.44-.15L554,509l2.65.89,2.51,1.18,2.36,1.47,4.57,3.54,4.43,4,2.36,4.43,2.21,4.72,2.36,4.72,2.66,4.58-1.62-6-2.07-5.9-2.36-5.76-2.51-5.6-2.65-5.76-2.66-5.6-2.51-5.76-2.36-5.75.74.15.59.44,1.47,1.18,1.63,1,.88.15.89-.15.29-.89.15-.88-.29-1.77-.45-1.77v-1.77l1.48,1,1.33,1.18.88,1.33.89,1.47,1.18,3.1,1.18,2.95ZM476,530.84l-.3,2.06-.14,1.92-.15,1.92v2.36l.59.15.59-.15.73-.74.59-1.33.45-1.33,2.95-.14,2.65-.74,2.51-1,2.37-1.33,4.57-3.1,2.36-1.33,2.36-1.18h2.36l2.36.3,4.57,1,4.13,1.77,4.14,2.36.44.59.15.74v.59l-.3.59-3.24,1.62-3.25,1.48-6.64,2.51-6.93,1.91-7.08,2.07L482,546.47l-6.79,2.66L472,550.61l-3.1,1.92-2.95,2.06L463,557l-4.73,3.54-5,3.25-5.16,3-5.32,2.65-5.31,2.22-5.61,1.91-5.75,1.63-5.75,1.18-1.92.14-1.62-.29-1.48-.59-.89-1v-.15l.89-3.69,1.62-3.54,1.92-3.25,2.36-2.8,2.8-2.8,2.81-2.36,3.1-2.21,2.95-2.07,2.06.44,1.77.74,1.63,1.18,1.32,1.47L441,557.1l1.18,1.62,2.07,3.1.29-1.77-.44-1.77-.59-1.77-.44-1.77-2.81-3.1,5.61-1.33,5.46-1.62,5.16-2.36L459,545l2.51-1.62-.88-.59-7.23,2.35-7.23,2.37-3.69.88-3.69.74-4,.44h-4l-3.54,1.92L423.88,554l-6.05,6-2.8-1-11.66,1-5.75.15h-5.91l-5.75-.3-5.75-.59-5.46-1L369.29,557,368.7,555l3.69-3.84,4-3.39,4.28-3.1,4.28-2.65,9.15-4.87,9.29-4.28,1.77,1.62,1.48,1.77,1,2.07.89,2.21,1,4.57.6,4.73.44.29.44.15.44-.3.45-.44.44-3.24.15-3.4-.59-3.24-.45-1.62-.73-1.48,5.31,1,5.31.74,5.6.44,5.46.3H438l5.46-.15,5.61-.44,5.31-.59-.15-.74-.44-.44-.74-.15H439.37l-6.35-.3-6.34-.44-6.34-.88-6-1.18-5.9-1.48-5.61-2.07-2.66.89-2.5,1.18-5,2.36-2.51.74-2.51.15-1.33-.3-1.17-.44-1.33-.89-1.33-1-.88-.88,3.54-2.37,3.68-1.91,4-1.48,4-1.18,8.41-1.77,8.41-1.77.59.89.29,1v2.07l.15,1.76.3.74.73.59,1.92-4,4.43,2.21,4.72,1.92,4.87,1.77,4.87,1.48,5.16,1.32,5.17,1,5.16.74,5.31.58.74-.14.74-.44.88-.15,1,.44.88.88L464,533.2l2.06-3.4,1.92-3.54,1.48-3.83,1.32-4,1-4,1.62-8,1.92-.88,1.62-1.19,1.48-1.32,1.18-1.33,2.06-3.24,1.62-3.4.15,4.58-.59,4.42-1,4.43L480.68,513l-1.48,4.27-1.33,4.43-1.17,4.57-.74,4.58Z"/></g></g></svg>